<?xml version="1.0" standalone="no"?>
<!DOCTYPE svg PUBLIC "-//W3C//DTD SVG 1.1//EN" "http://www.w3.org/Graphics/SVG/1.1/DTD/svg11.dtd" >
<svg xmlns="http://www.w3.org/2000/svg" xmlns:xlink="http://www.w3.org/1999/xlink" version="1.1">
<metadata>
Created by FontForge 20170924 at Sun Jun  5 23:08:06 2016
 By www-data
Samsung Sharp Sans is a customized version of Sharp Sans, which is copyright \(c\) 2015 by Lucas Sharp. All rights reserved.
</metadata>
<defs>
<font id="SamsungSharpSans-Bold" horiz-adv-x="646" >
  <font-face 
    font-family="Samsung Sharp Sans"
    font-weight="700"
    font-stretch="normal"
    units-per-em="1000"
    panose-1="2 0 8 6 0 0 0 2 0 4"
    ascent="800"
    descent="-200"
    x-height="585"
    cap-height="730"
    bbox="-91 -283 1414 1100"
    underline-thickness="50"
    underline-position="-100"
    unicode-range="U+000D-FB79"
  />
<missing-glyph horiz-adv-x="926" 
d="M100 0v730h726v-730h-726zM236 600v-470h454v470h-454zM340 162l-80 78l123 127l-124 129l80 78l122 -126l124 127l80 -78l-126 -130l125 -128l-80 -78l-123 126z" />
    <glyph glyph-name="uni203D" unicode="&#x21;&#x3f;" horiz-adv-x="517" 
d="M292 187h-95c-5 120 -12 292 -12 426v2c-32 -16 -51 -46 -59 -79l-126 43c25 96 109 161 238 161c147 0 246 -84 246 -209c0 -189 -192 -136 -192 -332v-12zM163 69c0 49 31 82 82 82s81 -33 81 -82c0 -48 -31 -81 -82 -81s-81 33 -81 81zM348 533c0 37 -16 63 -49 80
c0 -61 -2 -125 -6 -190c29 32 55 57 55 110z" />
    <glyph glyph-name="uniE935" unicode="&#xa1;&#xbf;" horiz-adv-x="517" 
d="M279 -240c-147 0 -247 84 -247 209c0 189 193 136 193 332v12h95c5 -120 12 -292 12 -426v-2c31 16 51 46 59 79l126 -43c-25 -96 -109 -161 -238 -161zM194 431c0 49 31 82 82 82s81 -33 81 -82c0 -48 -31 -81 -82 -81s-81 33 -81 81zM168 -33c0 -36 17 -63 50 -80
c0 60 1 125 5 190c-29 -32 -55 -56 -55 -110z" />
    <glyph glyph-name="uniFB76" unicode="&#x683;" horiz-adv-x="493" arabic-form="isolated" 
d="M171 0h-136v596h214c142 0 224 -84 224 -209c0 -68 -30 -133 -90 -169l107 -218h-147l-83 179h-89v-179zM171 304h65c75 0 97 39 97 87s-29 79 -97 79h-65v-166z" />
    <glyph glyph-name="uniFB77" unicode="&#x683;" horiz-adv-x="493" arabic-form="final" 
d="M171 0h-136v596h214c142 0 224 -84 224 -209c0 -68 -30 -133 -90 -169l107 -218h-147l-83 179h-89v-179zM171 304h65c75 0 97 39 97 87s-29 79 -97 79h-65v-166zM171 646l115 170h126l-150 -170h-91z" />
    <glyph glyph-name="uniFB78" unicode="&#x683;" horiz-adv-x="493" arabic-form="initial" 
d="M171 0h-136v596h214c142 0 224 -84 224 -209c0 -68 -30 -133 -90 -169l107 -218h-147l-83 179h-89v-179zM195 646l-119 170h102l59 -89l59 89h102l-119 -170h-84zM171 304h65c75 0 97 39 97 87s-29 79 -97 79h-65v-166z" />
    <glyph glyph-name="uniFB79" unicode="&#x683;" horiz-adv-x="493" arabic-form="medial" 
d="M171 0h-136v596h214c142 0 224 -84 224 -209c0 -68 -30 -133 -90 -169l107 -218h-147l-83 179h-89v-179zM171 304h65c75 0 97 39 97 87s-29 79 -97 79h-65v-166zM237 -252h-83l34 204h119z" />
    <glyph glyph-name=".notdef" horiz-adv-x="926" 
d="M100 0v730h726v-730h-726zM236 600v-470h454v470h-454zM340 162l-80 78l123 127l-124 129l80 78l122 -126l124 127l80 -78l-126 -130l125 -128l-80 -78l-123 126z" />
    <glyph glyph-name="uni0000" horiz-adv-x="0" 
 />
    <glyph glyph-name="uni0000" horiz-adv-x="0" 
 />
    <glyph glyph-name="uni000D" unicode="&#xd;" horiz-adv-x="250" 
 />
    <glyph glyph-name="space" unicode=" " horiz-adv-x="245" 
 />
    <glyph glyph-name="exclam" unicode="!" horiz-adv-x="209" 
d="M141 198h-73c-19 120 -31 281 -31 415v117h134v-117c0 -134 -11 -295 -30 -415zM22 69c0 49 31 82 82 82s81 -33 81 -82c0 -48 -31 -81 -82 -81s-81 33 -81 81z" />
    <glyph glyph-name="quotedbl" unicode="&#x22;" horiz-adv-x="323" 
d="M107 500h-37c-11 24 -34 114 -34 146v84h105v-84c0 -34 -24 -123 -34 -146zM252 500h-37c-11 24 -33 114 -33 146v84h105v-84c0 -35 -24 -122 -35 -146z" />
    <glyph glyph-name="numbersign" unicode="#" horiz-adv-x="802" 
d="M484 0v155h-174v-155h-136v155h-148v130h148v170h-148v130h148v145h136v-145h174v145h136v-145h156v-130h-156v-170h156v-130h-156v-155h-136zM310 455v-170h174v170h-174z" />
    <glyph glyph-name="dollar" unicode="$" horiz-adv-x="588" 
d="M564 217c0 -100 -71 -197 -196 -221v-116h-136v117c-96 16 -167 64 -219 124l124 97c23 -39 58 -68 98 -84v193c-93 29 -195 79 -195 204c0 99 78 186 192 204v105h136v-108c76 -15 127 -51 174 -98l-113 -85c-17 24 -38 42 -65 54v-174c94 -32 200 -82 200 -212z
M426 218c0 35 -26 55 -62 71v-159c39 17 62 51 62 88zM176 536c0 -35 23 -52 59 -67v141c-37 -13 -59 -41 -59 -74z" />
    <glyph glyph-name="percent" unicode="%" horiz-adv-x="825" 
d="M136 562c0 -36 30 -66 65 -66s65 30 65 66c0 35 -30 65 -65 65s-65 -30 -65 -65zM446 168c0 99 80 178 179 178s178 -79 178 -178s-79 -179 -178 -179s-179 80 -179 179zM13 0l627 730h172l-627 -730h-172zM560 168c0 -36 29 -65 65 -65c35 0 64 29 64 65
c0 35 -29 65 -64 65c-36 0 -65 -30 -65 -65zM22 562c0 99 80 178 179 178s178 -79 178 -178s-79 -179 -178 -179s-179 80 -179 179z" />
    <glyph glyph-name="ampersand" unicode="&#x26;" horiz-adv-x="749" 
d="M563 0l-57 56c-59 -41 -125 -67 -197 -67c-211 0 -288 126 -288 238c0 92 53 162 126 205c-23 36 -34 73 -34 120c0 106 88 188 209 188s187 -62 213 -136l-132 -47c-11 35 -33 62 -76 62c-41 0 -71 -28 -71 -67c0 -56 25 -82 121 -178l139 -140c29 41 48 87 59 134h-123
v129h258v-63c0 -92 -41 -197 -109 -285l148 -149h-186zM308 108c39 0 76 11 112 33l-155 156c-15 14 -28 28 -41 41c-44 -27 -68 -59 -68 -110c0 -63 53 -120 152 -120z" />
    <glyph glyph-name="quotesingle" unicode="'" horiz-adv-x="177" 
d="M107 500h-37c-11 24 -34 114 -34 146v84h105v-84c0 -34 -24 -123 -34 -146z" />
    <glyph glyph-name="parenleft" unicode="(" horiz-adv-x="388" 
d="M385 -142l-85 -112c-165 112 -278 276 -278 504c0 230 106 376 267 494l91 -98c-125 -83 -216 -212 -216 -396c0 -177 77 -304 221 -392z" />
    <glyph glyph-name="parenright" unicode=")" horiz-adv-x="388" 
d="M224 248c0 184 -91 313 -216 396l91 98c163 -117 268 -265 268 -494c0 -228 -114 -392 -279 -504l-84 112c144 88 220 215 220 392z" />
    <glyph glyph-name="asterisk" unicode="*" horiz-adv-x="405" 
d="M325 415l-87 77l23 -115h-117l22 114l-89 -76l-57 102l110 37l-110 39l60 100l87 -76l-23 114h117l-24 -116l90 78l58 -102l-112 -38l112 -38z" />
    <glyph glyph-name="plus" unicode="+" horiz-adv-x="442" 
d="M36 307v115h129v127h113v-127h128v-115h-128v-128h-113v128h-129z" />
    <glyph glyph-name="comma" unicode="," horiz-adv-x="207" 
d="M21 -117l35 204h119l-70 -204h-84z" />
    <glyph glyph-name="hyphen" unicode="-" horiz-adv-x="442" 
d="M36 197v115h370v-115h-370z" />
    <glyph glyph-name="period" unicode="." horiz-adv-x="207" 
d="M22 69c0 49 31 82 82 82s81 -33 81 -82c0 -48 -31 -81 -82 -81s-81 33 -81 81z" />
    <glyph glyph-name="slash" unicode="/" horiz-adv-x="511" 
d="M11 0l346 730h144l-346 -730h-144z" />
    <glyph glyph-name="zero" unicode="0" horiz-adv-x="588" 
d="M293 125c73 0 113 48 113 108v259c0 69 -39 114 -111 114c-73 0 -113 -50 -113 -114v-258c0 -64 38 -109 111 -109zM294 -10c-159 0 -248 98 -248 238v268c0 139 101 244 248 244c151 0 248 -109 248 -243v-269c0 -143 -91 -238 -248 -238z" />
    <glyph glyph-name="one" unicode="1" horiz-adv-x="331" 
d="M260 0h-136v603h-89v127h225v-730z" />
    <glyph glyph-name="two" unicode="2" horiz-adv-x="536" 
d="M36 0v128c0 126 101 199 192 261c72 51 138 91 138 147c0 48 -35 87 -100 87c-64 0 -103 -43 -128 -104l-117 59c45 100 126 162 246 162c148 0 237 -90 237 -205s-94 -180 -182 -239c-75 -51 -150 -97 -150 -166h329v-130h-465z" />
    <glyph glyph-name="three" unicode="3" horiz-adv-x="502" 
d="M237 -10c-93 0 -171 29 -234 102l118 88c31 -47 70 -66 115 -66c63 0 108 36 108 97s-50 101 -125 101h-75v125h75c80 0 116 45 116 97c0 53 -40 88 -103 88c-57 0 -88 -27 -111 -70l-116 60c43 80 129 128 225 128c142 0 237 -80 237 -205c0 -67 -31 -120 -83 -157
c60 -35 96 -91 96 -167c0 -125 -86 -221 -243 -221z" />
    <glyph glyph-name="four" unicode="4" horiz-adv-x="623" 
d="M348 0v168h-313v124l306 438h139v-438h107v-124h-107v-168h-132zM182 292h166v235z" />
    <glyph glyph-name="five" unicode="5" horiz-adv-x="541" 
d="M270 -10c-128 0 -211 67 -249 140l126 73c21 -47 59 -88 124 -88c60 0 112 47 112 115s-43 121 -115 121c-57 0 -92 -31 -117 -74l-121 62l52 391h406v-127h-298l-21 -162c28 19 67 34 114 34c131 0 237 -86 237 -245c0 -142 -105 -240 -250 -240z" />
    <glyph glyph-name="six" unicode="6" horiz-adv-x="562" 
d="M282 -10c-152 0 -261 108 -261 248c0 68 21 138 56 189l189 303h160l-160 -248c14 4 28 6 43 6c128 0 231 -103 231 -249s-110 -249 -258 -249zM279 113c69 0 127 57 127 129c0 70 -58 127 -127 127c-68 0 -125 -57 -125 -128c0 -70 57 -128 125 -128z" />
    <glyph glyph-name="seven" unicode="7" horiz-adv-x="530" 
d="M98 0l255 600h-318v130h460v-118l-253 -612h-144z" />
    <glyph glyph-name="eight" unicode="8" horiz-adv-x="588" 
d="M293 -10c-168 0 -259 85 -259 228c0 76 33 132 90 171c-41 35 -65 82 -65 143c0 125 95 208 239 208c141 0 237 -83 237 -208c0 -63 -26 -109 -69 -144c56 -39 88 -95 88 -170c0 -143 -94 -228 -261 -228zM293 110c87 0 131 48 131 108s-44 108 -128 108
c-85 0 -131 -48 -131 -108s40 -108 128 -108zM295 440c76 0 116 41 116 92s-40 93 -112 93c-73 0 -116 -42 -116 -93c0 -52 36 -92 112 -92z" />
    <glyph glyph-name="nine" unicode="9" horiz-adv-x="562" 
d="M135 0l161 251c-14 -4 -28 -6 -42 -6c-128 0 -234 100 -234 246c0 149 114 249 259 249c151 0 260 -108 260 -248c0 -68 -21 -138 -56 -189l-188 -303h-160zM281 362c69 0 126 57 126 129c0 69 -57 129 -126 129c-68 0 -127 -61 -127 -130c0 -71 59 -128 127 -128z" />
    <glyph glyph-name="colon" unicode=":" horiz-adv-x="207" 
d="M22 69c0 49 31 82 82 82s81 -33 81 -82c0 -48 -31 -81 -82 -81s-81 33 -81 81zM22 430c0 49 31 82 82 82s81 -33 81 -82c0 -48 -31 -81 -82 -81s-81 33 -81 81z" />
    <glyph glyph-name="semicolon" unicode=";" horiz-adv-x="207" 
d="M21 -117l35 204h119l-70 -204h-84zM22 430c0 49 31 82 82 82s81 -33 81 -82c0 -48 -31 -81 -82 -81s-81 33 -81 81z" />
    <glyph glyph-name="less" unicode="&#x3c;" horiz-adv-x="442" 
d="M406 172l-370 134v115l370 133v-118l-224 -73l224 -73v-118z" />
    <glyph glyph-name="equal" unicode="=" horiz-adv-x="442" 
d="M36 389v115h370v-115h-370zM36 222v115h370v-115h-370z" />
    <glyph glyph-name="greater" unicode="&#x3e;" horiz-adv-x="442" 
d="M36 172v118l223 73l-223 73v118l370 -133v-115z" />
    <glyph glyph-name="question" unicode="?" horiz-adv-x="517" 
d="M181 188v11c0 243 166 214 166 334c0 51 -37 89 -96 89c-53 0 -88 -37 -100 -86l-126 43c24 96 99 161 228 161c136 0 231 -84 231 -209c0 -189 -182 -150 -182 -332v-11h-121zM159 69c0 49 31 82 82 82s81 -33 81 -82c0 -48 -31 -81 -82 -81s-81 33 -81 81z" />
    <glyph glyph-name="at" unicode="@" horiz-adv-x="789" 
d="M395 -125c-208 0 -373 167 -373 375c0 207 165 375 373 375c228 0 373 -168 373 -337c0 -114 -67 -211 -172 -211c-60 0 -97 24 -120 55c-25 -33 -67 -54 -126 -54c-81 0 -165 64 -154 180c13 123 109 180 179 180c43 0 76 -14 97 -37c1 15 3 22 3 26c1 3 1 4 1 5h107
l-19 -181c-5 -43 8 -68 41 -68c32 0 55 42 55 105c0 115 -101 232 -265 232c-148 0 -267 -121 -267 -271c0 -149 119 -270 267 -270c80 0 147 33 198 88l81 -67c-68 -76 -166 -125 -279 -125zM375 179c47 0 81 37 85 82c5 44 -23 81 -68 81c-44 0 -84 -34 -87 -81
c-7 -47 25 -82 70 -82z" />
    <glyph glyph-name="A" unicode="A" horiz-adv-x="687" 
d="M15 0l260 730h137l260 -730h-142l-45 130h-283l-45 -130h-142zM344 537l-96 -277h192z" />
    <glyph glyph-name="B" unicode="B" horiz-adv-x="573" 
d="M42 0v730h230c163 0 254 -69 254 -204c0 -63 -27 -111 -80 -142c68 -31 106 -87 106 -168c0 -144 -101 -216 -262 -216h-248zM284 312h-106v-187h112c83 0 125 34 125 94s-30 93 -131 93zM272 605h-94v-166h94c87 0 117 35 117 87c0 55 -33 79 -117 79z" />
    <glyph glyph-name="C" unicode="C" horiz-adv-x="738" 
d="M397 -10c-225 0 -375 167 -375 375c0 218 164 375 375 375c137 0 256 -72 320 -181l-119 -76c-43 76 -106 123 -201 123c-139 0 -240 -105 -240 -241c0 -133 101 -239 237 -239c101 0 171 57 210 137l124 -65c-64 -124 -187 -208 -331 -208z" />
    <glyph glyph-name="D" unicode="D" horiz-adv-x="648" 
d="M42 0v730h199c246 0 386 -158 386 -365c0 -208 -158 -365 -380 -365h-205zM225 604h-47v-478h53c160 0 260 103 260 239c0 140 -85 239 -266 239z" />
    <glyph glyph-name="E" unicode="E" horiz-adv-x="509" 
d="M42 0v730h433v-130h-297v-168h297v-130h-297v-172h297v-130h-433z" />
    <glyph glyph-name="F" unicode="F" horiz-adv-x="491" 
d="M42 0v730h413v-130h-277v-168h277v-130h-277v-302h-136z" />
    <glyph glyph-name="G" unicode="G" horiz-adv-x="780" 
d="M401 -10c-228 0 -379 172 -379 375c0 208 157 375 373 375c151 0 270 -77 332 -187l-120 -72c-46 85 -116 127 -211 127c-136 0 -239 -111 -239 -243c0 -135 102 -243 244 -243c111 0 184 62 211 158h-233v130h379v-54c0 -197 -138 -366 -357 -366z" />
    <glyph glyph-name="H" unicode="H" horiz-adv-x="636" 
d="M458 0v301h-280v-301h-136v730h136v-299h280v299h136v-730h-136z" />
    <glyph glyph-name="I" unicode="I" horiz-adv-x="230" 
d="M47 0v730h136v-730h-136z" />
    <glyph glyph-name="J" unicode="J" horiz-adv-x="501" 
d="M247 -10c-119 0 -204 64 -228 165l134 44c11 -47 45 -82 92 -82c56 0 79 42 79 93v520h136v-508c0 -148 -76 -232 -213 -232z" />
    <glyph glyph-name="K" unicode="K" horiz-adv-x="618" 
d="M450 0l-193 351l-79 -98v-253h-136v730h136v-299l241 299h165l-231 -284l252 -446h-155z" />
    <glyph glyph-name="L" unicode="L" horiz-adv-x="481" 
d="M42 0v730h136v-600h267v-130h-403z" />
    <glyph glyph-name="M" unicode="M" horiz-adv-x="798" 
d="M42 0v730h135l221 -307l230 307h129v-730h-136v512l-224 -302l-219 297v-507h-136z" />
    <glyph glyph-name="N" unicode="N" horiz-adv-x="690" 
d="M42 0v730h154l316 -497v497h136v-730h-145l-325 513v-513h-136z" />
    <glyph glyph-name="O" unicode="O" horiz-adv-x="790" 
d="M395 -10c-208 0 -373 167 -373 375c0 207 165 375 373 375s374 -168 374 -375c0 -208 -166 -375 -374 -375zM395 124c133 0 239 108 239 241s-106 241 -239 241s-238 -108 -238 -241s105 -241 238 -241z" />
    <glyph glyph-name="P" unicode="P" horiz-adv-x="581" 
d="M42 0v730h250c151 0 263 -116 263 -260c0 -145 -112 -261 -264 -261h-113v-209h-136zM282 604h-104v-269h104c80 0 136 60 136 135s-56 134 -136 134z" />
    <glyph glyph-name="Q" unicode="Q" horiz-adv-x="790" 
d="M617 0l-275 359h163l92 -120c23 37 37 79 37 126c0 133 -106 241 -239 241s-238 -108 -238 -241s105 -241 238 -241c24 0 48 4 71 11l85 -111c-49 -23 -101 -34 -156 -34c-208 0 -373 167 -373 375c0 207 165 375 373 375s374 -168 374 -375c0 -92 -32 -173 -84 -238
l98 -127h-166z" />
    <glyph glyph-name="R" unicode="R" horiz-adv-x="584" 
d="M178 0h-136v730h234c172 0 273 -103 273 -254c0 -88 -43 -170 -123 -213l146 -263h-155l-117 223h-122v-223zM178 348h86c112 0 149 61 149 133c0 75 -45 122 -149 122h-86v-255z" />
    <glyph glyph-name="S" unicode="S" horiz-adv-x="563" 
d="M288 -10c-131 0 -218 56 -285 131l124 98c37 -64 93 -99 160 -99c72 0 111 47 111 98c0 61 -75 81 -152 105c-99 32 -207 69 -207 208c0 117 102 209 242 209c117 0 186 -45 245 -106l-112 -85c-31 47 -75 70 -132 70c-67 0 -102 -36 -102 -83c0 -59 69 -76 149 -103
c99 -32 211 -76 211 -216c0 -115 -92 -227 -252 -227z" />
    <glyph glyph-name="T" unicode="T" horiz-adv-x="579" 
d="M221 0v600h-195v130h527v-130h-196v-600h-136z" />
    <glyph glyph-name="U" unicode="U" horiz-adv-x="608" 
d="M304 -10c-152 0 -263 91 -263 262v478h136v-486c0 -72 54 -128 126 -128c71 0 128 56 128 128v486h136v-478c0 -171 -112 -262 -263 -262z" />
    <glyph glyph-name="V" unicode="V" horiz-adv-x="657" 
d="M260 0l-245 730h141l173 -522l172 522h141l-245 -730h-137z" />
    <glyph glyph-name="W" unicode="W" horiz-adv-x="1023" 
d="M222 0l-208 730h142l138 -511l153 511h134l152 -509l137 509h137l-206 -730h-135l-153 515l-153 -515h-138z" />
    <glyph glyph-name="X" unicode="X" horiz-adv-x="630" 
d="M467 0l-152 251l-151 -251h-153l223 369l-218 361h152l147 -243l147 243h153l-220 -361l224 -369h-152z" />
    <glyph glyph-name="Y" unicode="Y" horiz-adv-x="629" 
d="M245 0v346l-232 384h150l151 -253l152 253h150l-235 -387v-343h-136z" />
    <glyph glyph-name="Z" unicode="Z" horiz-adv-x="556" 
d="M36 0v125l323 475h-312v130h472v-124l-323 -476h323v-130h-483z" />
    <glyph glyph-name="bracketleft" unicode="[" horiz-adv-x="345" 
d="M36 -230v960h273v-130h-137v-700h137v-130h-273z" />
    <glyph glyph-name="backslash" unicode="\" horiz-adv-x="511" 
d="M357 0l-346 730h144l346 -730h-144z" />
    <glyph glyph-name="bracketright" unicode="]" horiz-adv-x="345" 
d="M36 -230v130h137v700h-137v130h273v-960h-273z" />
    <glyph glyph-name="asciicircum" unicode="^" horiz-adv-x="472" 
d="M75 549l119 170h84l119 -170h-101l-60 89l-59 -89h-102z" />
    <glyph glyph-name="underscore" unicode="_" horiz-adv-x="447" 
d="M36 -125v115h375v-115h-375z" />
    <glyph glyph-name="grave" unicode="`" horiz-adv-x="472" 
d="M255 550l-150 170h127l114 -170h-91z" />
    <glyph glyph-name="a" unicode="a" horiz-adv-x="671" 
d="M308 -12c-141 0 -288 112 -288 304c0 194 142 305 290 305c77 0 145 -31 188 -82v70h135v-585h-135v76c-43 -55 -113 -88 -190 -88zM330 112c101 0 175 81 175 182c0 100 -74 180 -175 180c-100 0 -177 -79 -177 -180c0 -102 77 -182 177 -182z" />
    <glyph glyph-name="b" unicode="b" horiz-adv-x="668" 
d="M365 -12c-80 0 -149 32 -192 88v-76h-134v740h135v-229c41 52 110 86 189 86c147 0 288 -111 288 -305c0 -192 -146 -304 -286 -304zM342 112c99 0 176 80 176 182c0 101 -77 180 -176 180c-100 0 -174 -80 -174 -180c0 -101 74 -182 174 -182z" />
    <glyph glyph-name="c" unicode="c" horiz-adv-x="617" 
d="M324 -12c-171 0 -304 136 -304 304c0 171 133 305 304 305c131 0 234 -75 279 -181l-121 -51c-27 64 -85 105 -157 105c-99 0 -173 -79 -173 -178c0 -97 74 -177 174 -177c76 0 131 45 158 109l121 -52c-46 -108 -145 -184 -281 -184z" />
    <glyph glyph-name="d" unicode="d" horiz-adv-x="671" 
d="M308 -12c-141 0 -288 112 -288 304c0 194 142 305 290 305c76 0 144 -30 187 -81v224h136v-740h-135v76c-43 -55 -113 -88 -190 -88zM330 112c101 0 175 81 175 182c0 100 -74 180 -175 180c-100 0 -177 -79 -177 -180c0 -102 77 -182 177 -182z" />
    <glyph glyph-name="e" unicode="e" 
d="M329 -12c-184 0 -309 134 -309 303c0 171 133 306 304 306c174 0 301 -128 301 -301v-51h-476c19 -83 84 -138 180 -138c76 0 134 40 162 103l111 -64c-51 -95 -141 -158 -273 -158zM324 478c-81 0 -144 -48 -168 -120h332c-20 79 -80 120 -164 120z" />
    <glyph glyph-name="f" unicode="f" horiz-adv-x="391" 
d="M17 464v121h99v1c0 168 67 234 245 234h12v-125c-108 0 -120 -25 -120 -110h120v-121h-120v-464h-137v464h-99z" />
    <glyph glyph-name="g" unicode="g" horiz-adv-x="673" 
d="M499 10v68c-43 -56 -112 -90 -191 -90c-141 0 -288 112 -288 304c0 194 142 305 290 305c77 0 145 -34 188 -87v75h135v-570c0 -164 -105 -298 -302 -298c-152 0 -247 71 -300 168l120 73c43 -79 89 -117 182 -117c102 0 166 80 166 169zM330 112c101 0 175 81 175 182
c0 100 -74 180 -175 180c-100 0 -177 -79 -177 -180c0 -102 77 -182 177 -182z" />
    <glyph glyph-name="h" unicode="h" horiz-adv-x="619" 
d="M39 0v740h135v-225c40 51 100 82 175 82c147 0 232 -91 232 -250v-347h-138v332c0 92 -44 148 -132 148c-76 0 -136 -57 -136 -159v-321h-136z" />
    <glyph glyph-name="i" unicode="i" horiz-adv-x="214" 
d="M39 0v585h136v-585h-136zM22 728c0 51 33 85 85 85c53 0 85 -34 85 -85s-32 -84 -85 -84c-55 0 -85 33 -85 84z" />
    <glyph glyph-name="j" unicode="j" horiz-adv-x="213" 
d="M-82 -269v127c105 0 121 15 121 118v609h136v-610c0 -185 -59 -244 -238 -244h-19zM22 728c0 51 33 85 85 85c53 0 85 -34 85 -85s-32 -84 -85 -84c-55 0 -85 33 -85 84z" />
    <glyph glyph-name="k" unicode="k" horiz-adv-x="601" 
d="M39 0v740h135v-437l249 282h162l-226 -253l234 -332h-151l-175 252l-93 -103v-149h-135z" />
    <glyph glyph-name="l" unicode="l" horiz-adv-x="214" 
d="M39 0v740h136v-740h-136z" />
    <glyph glyph-name="m" unicode="m" horiz-adv-x="998" 
d="M39 0v585h134v-68c37 49 95 80 167 80c92 0 155 -37 190 -101c40 61 108 101 192 101c159 0 238 -92 238 -245v-352h-138v341c0 85 -43 139 -127 139c-73 0 -129 -50 -129 -153v-327h-137v345c0 84 -42 135 -123 135c-76 0 -132 -52 -132 -156v-324h-135z" />
    <glyph glyph-name="n" unicode="n" horiz-adv-x="619" 
d="M39 0v585h134v-72c39 51 99 84 175 84c147 0 232 -91 232 -250v-347h-137v333c0 91 -44 147 -132 147c-77 0 -137 -56 -137 -159v-321h-135z" />
    <glyph glyph-name="o" unicode="o" 
d="M323 -12c-169 0 -303 136 -303 304c0 171 134 305 303 305c168 0 303 -134 303 -305c0 -168 -135 -304 -303 -304zM323 115c96 0 170 80 170 177c0 99 -74 178 -170 178c-97 0 -170 -79 -170 -178c0 -97 73 -177 170 -177z" />
    <glyph glyph-name="p" unicode="p" horiz-adv-x="668" 
d="M364 -12c-80 0 -150 29 -191 81v-338h-134v854h134v-78c41 55 110 90 190 90c147 0 288 -111 288 -305c0 -192 -146 -304 -287 -304zM342 112c99 0 176 80 176 182c0 101 -77 180 -176 180c-101 0 -174 -80 -174 -180c0 -101 73 -182 174 -182z" />
    <glyph glyph-name="q" unicode="q" horiz-adv-x="671" 
d="M308 -12c-141 0 -288 112 -288 304c0 194 142 305 290 305c77 0 145 -34 188 -87v75h135v-854h-136v337c-43 -51 -110 -80 -189 -80zM330 112c101 0 175 81 175 182c0 100 -74 180 -175 180c-100 0 -177 -79 -177 -180c0 -102 77 -182 177 -182z" />
    <glyph glyph-name="r" unicode="r" horiz-adv-x="431" 
d="M39 0v585h134v-87c27 58 77 87 150 87c43 0 76 -10 103 -25l-51 -128c-20 13 -42 23 -81 23c-79 0 -120 -42 -120 -143v-312h-135z" />
    <glyph glyph-name="s" unicode="s" horiz-adv-x="518" 
d="M259 -12c-131 0 -213 50 -260 142l125 60c28 -55 77 -85 141 -85c67 0 100 32 100 71c0 43 -65 51 -137 67c-100 21 -205 53 -205 176c0 94 91 179 230 179c119 0 194 -46 239 -121l-115 -58c-24 41 -68 67 -124 67c-64 0 -94 -30 -94 -63c0 -39 46 -49 134 -68
c96 -19 206 -53 206 -176c0 -82 -73 -191 -240 -191z" />
    <glyph glyph-name="t" unicode="t" horiz-adv-x="399" 
d="M18 464v121h100v89l136 93v-182h119v-121h-119v-219c0 -102 15 -118 119 -118v-127h-19c-181 0 -236 58 -236 244v220h-100z" />
    <glyph glyph-name="u" unicode="u" horiz-adv-x="605" 
d="M566 585v-585h-134v67c-37 -49 -93 -79 -168 -79c-140 0 -225 91 -225 250v347h137v-333c0 -91 40 -147 125 -147c75 0 130 56 130 159v321h135z" />
    <glyph glyph-name="v" unicode="v" horiz-adv-x="599" 
d="M232 0l-223 585h141l151 -412l148 412h139l-220 -585h-136z" />
    <glyph glyph-name="w" unicode="w" horiz-adv-x="995" 
d="M213 0l-195 585h138l129 -403l147 403h134l144 -404l134 404h137l-205 -585h-130l-148 405l-152 -405h-133z" />
    <glyph glyph-name="x" unicode="x" horiz-adv-x="614" 
d="M5 0l220 298l-212 287h165l133 -186l132 186h160l-210 -289l224 -296h-165l-143 195l-139 -195h-165z" />
    <glyph glyph-name="y" unicode="y" horiz-adv-x="618" 
d="M123 -270l123 299l-240 556h144l163 -394l154 394h142l-349 -855h-137z" />
    <glyph glyph-name="z" unicode="z" horiz-adv-x="577" 
d="M28 0v123l340 342h-333v120h509v-123l-340 -342h346v-120h-522z" />
    <glyph glyph-name="braceleft" unicode="{" horiz-adv-x="372" 
d="M346 -230h-11c-167 0 -220 54 -220 217v97c0 77 -10 101 -94 101v125c84 0 94 22 94 100v103c0 163 53 217 220 217h11v-125c-86 0 -97 -13 -97 -93v-103c0 -84 -20 -135 -75 -162c56 -27 75 -78 75 -162v-97c0 -80 11 -93 97 -93v-125z" />
    <glyph glyph-name="bar" unicode="|" horiz-adv-x="209" 
d="M36 -230v960h136v-960h-136z" />
    <glyph glyph-name="braceright" unicode="}" horiz-adv-x="372" 
d="M26 -230v125c86 0 97 13 97 93v97c0 84 19 135 75 162c-56 27 -75 78 -75 162v103c0 80 -11 93 -97 93v125h11c167 0 220 -54 220 -217v-103c0 -78 10 -100 94 -100v-125c-84 0 -94 -24 -94 -101v-97c0 -163 -53 -217 -220 -217h-11z" />
    <glyph glyph-name="asciitilde" unicode="~" horiz-adv-x="471" 
d="M142 574h-79c0 81 38 134 105 134c33 0 56 -12 76 -24c19 -12 35 -24 52 -24c19 0 28 15 28 44h78c0 -81 -34 -134 -105 -134c-39 0 -64 17 -87 30c-15 9 -27 17 -42 17c-17 0 -26 -14 -26 -43z" />
    <glyph glyph-name="exclamdown" unicode="&#xa1;" horiz-adv-x="209" 
d="M37 -230v117c0 134 12 296 31 416h73c19 -120 30 -282 30 -416v-117h-134zM22 430c0 49 31 82 82 82s81 -33 81 -82c0 -48 -31 -81 -82 -81s-81 33 -81 81z" />
    <glyph glyph-name="cent" unicode="&#xa2;" horiz-adv-x="588" 
d="M234 -130v130c-118 32 -203 138 -203 266s87 234 203 266v131h136v-128c91 -19 158 -79 193 -160l-121 -52c-23 56 -73 92 -136 92c-82 0 -146 -66 -146 -149s64 -149 147 -149c63 0 112 38 135 91l121 -51c-35 -80 -102 -141 -193 -160v-127h-136z" />
    <glyph glyph-name="sterling" unicode="&#xa3;" horiz-adv-x="588" 
d="M54 329v107h56c-11 29 -18 61 -18 96c0 125 86 208 222 208c124 0 195 -57 223 -146l-129 -47c-13 47 -41 75 -92 75c-57 0 -86 -37 -86 -88c0 -35 11 -66 26 -98h193v-107h-142c20 -47 36 -95 36 -158c0 -17 -3 -35 -8 -53c15 -12 26 -20 37 -20c27 0 31 13 31 58v81
h139v-77c0 -119 -31 -170 -136 -170c-47 0 -83 20 -115 47c-27 -29 -63 -48 -106 -48c-104 0 -152 43 -152 114c0 67 46 118 126 118c32 0 60 -9 84 -24c-8 43 -41 84 -74 132h-115zM177 81c17 0 30 6 41 18c-17 13 -33 22 -50 22c-13 0 -21 -8 -21 -19c0 -12 11 -21 30 -21
z" />
    <glyph glyph-name="currency" unicode="&#xa4;" horiz-adv-x="773" 
d="M390 102c-47 0 -91 11 -130 34l-127 -130l-98 96l129 131c-22 40 -33 83 -33 129c0 47 12 90 35 130l-133 140l99 93l131 -136c39 22 81 33 127 33c47 0 89 -12 126 -32l124 127l98 -95l-125 -128c23 -39 36 -84 36 -132c0 -49 -13 -94 -36 -133l125 -131l-98 -95
l-126 130c-38 -21 -79 -31 -124 -31zM390 229c72 0 129 60 129 133s-57 133 -129 133s-128 -60 -128 -133s56 -133 128 -133z" />
    <glyph glyph-name="yen" unicode="&#xa5;" horiz-adv-x="588" 
d="M80 282v109h146v24l-203 315h152l120 -198l120 198h150l-203 -315v-24h147v-109h-147v-79h147v-110h-147v-93h-136v93h-146v110h146v79h-146z" />
    <glyph glyph-name="brokenbar" unicode="&#xa6;" horiz-adv-x="211" 
d="M36 310v420h136v-420h-136zM36 -230v420h136v-420h-136z" />
    <glyph glyph-name="section" unicode="&#xa7;" horiz-adv-x="575" 
d="M285 -10c-128 0 -222 76 -243 151l135 37c12 -44 58 -76 118 -76c56 0 84 19 84 46c0 37 -61 48 -144 67c-121 30 -215 64 -215 162c0 53 36 97 85 118c-21 25 -32 55 -32 89c0 88 74 159 210 156c120 0 209 -67 227 -138l-128 -36c-7 39 -45 69 -102 69
c-53 0 -80 -18 -80 -45c0 -36 56 -54 139 -74c121 -27 216 -67 216 -160c0 -52 -32 -91 -77 -114c23 -23 35 -53 35 -88c0 -90 -92 -167 -228 -164zM312 317c27 -7 50 -13 71 -20c25 8 37 22 37 41c0 36 -58 52 -158 76c-24 6 -46 13 -67 21c-27 -7 -40 -24 -40 -43
c0 -36 57 -52 157 -75z" />
    <glyph glyph-name="dieresis" unicode="&#xa8;" horiz-adv-x="473" 
d="M69 619c0 43 28 72 72 72c45 0 72 -29 72 -72s-27 -71 -72 -71s-72 28 -72 71zM260 619c0 43 28 72 72 72s72 -29 72 -72s-28 -71 -72 -71c-47 0 -72 28 -72 71z" />
    <glyph glyph-name="copyright" unicode="&#xa9;" horiz-adv-x="790" 
d="M395 -10c-208 0 -373 167 -373 375c0 207 165 375 373 375s374 -168 374 -375c0 -208 -166 -375 -374 -375zM395 94c149 0 268 122 268 271s-119 271 -268 271c-152 0 -265 -122 -265 -271s113 -271 265 -271zM401 163c-120 0 -204 90 -204 202s87 202 204 202
c81 0 149 -47 178 -110c-51 -23 -76 -35 -89 -40l-15 -7c-7 25 -32 50 -75 50c-52 0 -93 -42 -93 -95s41 -95 93 -95c41 0 70 26 77 51l107 -37c-31 -68 -98 -121 -183 -121z" />
    <glyph glyph-name="ordfeminine" unicode="&#xaa;" horiz-adv-x="364" 
d="M151 435c-56 0 -131 43 -131 150c0 108 78 151 133 151c35 0 60 -13 77 -32v26h98v-290h-98v31c-19 -21 -46 -36 -79 -36zM176 525c35 0 57 28 57 61s-22 60 -57 60s-60 -24 -60 -60c0 -35 25 -61 60 -61z" />
    <glyph glyph-name="guillemotleft" unicode="&#xab;" horiz-adv-x="477" 
d="M431 104l-183 114v75l183 113v-91l-100 -60l100 -59v-92zM229 104l-183 114v75l183 113v-91l-100 -60l100 -59v-92z" />
    <glyph glyph-name="logicalnot" unicode="&#xac;" horiz-adv-x="603" 
d="M432 156v231h-404v131h540v-362h-136z" />
    <glyph glyph-name="uni00AD" unicode="&#xad;" horiz-adv-x="442" 
d="M36 197v115h370v-115h-370z" />
    <glyph glyph-name="registered" unicode="&#xae;" horiz-adv-x="790" 
d="M395 -125c-208 0 -373 167 -373 375c0 207 165 375 373 375s374 -168 374 -375c0 -208 -166 -375 -374 -375zM395 -21c149 0 268 122 268 271s-119 271 -268 271c-152 0 -265 -122 -265 -271s113 -271 265 -271zM236 65v374h173c109 0 170 -65 170 -133
c0 -56 -25 -97 -76 -116l74 -125h-125l-97 186h50c32 0 59 14 59 49s-28 46 -61 46h-54v-281h-113z" />
    <glyph glyph-name="overscore" unicode="&#xaf;" horiz-adv-x="472" 
d="M105 550v86h264v-86h-264z" />
    <glyph glyph-name="degree" unicode="&#xb0;" horiz-adv-x="400" 
d="M200 387c-98 0 -177 79 -177 177c0 96 79 176 177 176c99 0 176 -80 176 -176c0 -98 -77 -177 -176 -177zM200 501c35 0 63 28 63 63s-28 63 -63 63s-63 -28 -63 -63s28 -63 63 -63z" />
    <glyph glyph-name="plusminus" unicode="&#xb1;" horiz-adv-x="442" 
d="M36 417v114h129v128h113v-128h128v-114h-128v-128h-113v128h-129zM36 117v114h370v-114h-370z" />
    <glyph glyph-name="twosuperior" unicode="&#xb2;" horiz-adv-x="330" 
d="M14 308v83c0 83 62 125 115 152c40 23 75 39 75 64c0 17 -14 32 -41 32c-31 0 -51 -27 -62 -54l-97 50c31 63 84 101 161 101c92 0 154 -53 154 -128c0 -80 -64 -119 -118 -146c-35 -19 -63 -33 -66 -50h181v-104h-302z" />
    <glyph glyph-name="threesuperior" unicode="&#xb3;" horiz-adv-x="325" 
d="M158 302c-57 0 -116 16 -153 53l85 77c18 -19 38 -28 61 -28c27 0 45 13 45 36s-24 33 -59 33h-44v98h42c35 0 52 12 52 36c0 21 -14 31 -43 31c-23 0 -41 -9 -52 -28l-80 69c33 36 88 57 136 57c93 0 157 -48 157 -125c0 -33 -14 -61 -42 -83c35 -21 52 -51 52 -91
c0 -76 -61 -135 -157 -135z" />
    <glyph glyph-name="acute" unicode="&#xb4;" horiz-adv-x="472" 
d="M105 550l115 170h126l-150 -170h-91z" />
    <glyph glyph-name="mu" unicode="&#xb5;" horiz-adv-x="527" 
d="M32 -230v730h136v-261c0 -85 30 -133 94 -133c55 0 99 37 99 121v273h134v-500h-133v49c-31 -37 -73 -59 -125 -59c-25 0 -49 6 -72 17v-237h-133z" />
    <glyph glyph-name="mu" unicode="&#x3bc;" horiz-adv-x="527" 
d="M32 -230v730h136v-261c0 -85 30 -133 94 -133c55 0 99 37 99 121v273h134v-500h-133v49c-31 -37 -73 -59 -125 -59c-25 0 -49 6 -72 17v-237h-133z" />
    <glyph glyph-name="paragraph" unicode="&#xb6;" horiz-adv-x="658" 
d="M329 0v302h-91c-124 0 -217 94 -217 214s93 214 216 214h385v-730h-117v604h-60v-604h-116z" />
    <glyph glyph-name="middot" unicode="&#xb7;" horiz-adv-x="207" 
d="M36 186v137h134v-137h-134z" />
    <glyph glyph-name="cedilla" unicode="&#xb8;" horiz-adv-x="472" 
d="M213 -240c-53 0 -105 24 -144 59l78 47c23 -19 41 -34 76 -34c29 0 55 14 55 31c0 18 -19 27 -58 27h-50v110h84v-53c75 3 115 -31 115 -80c0 -62 -68 -107 -156 -107z" />
    <glyph glyph-name="onesuperior" unicode="&#xb9;" horiz-adv-x="298" 
d="M14 308v104h81v166c-13 -17 -34 -26 -63 -26h-6v107h3c56 0 70 42 70 71h109v-318h78v-104h-272z" />
    <glyph glyph-name="ordmasculine" unicode="&#xba;" horiz-adv-x="339" 
d="M170 435c-83 0 -150 67 -150 150c0 85 67 151 150 151s149 -66 149 -151c0 -83 -66 -150 -149 -150zM170 528c31 0 55 26 55 57c0 32 -24 58 -55 58c-32 0 -55 -26 -55 -58c0 -31 23 -57 55 -57z" />
    <glyph glyph-name="guillemotright" unicode="&#xbb;" horiz-adv-x="477" 
d="M248 104v92l100 59l-100 60v91l183 -113v-75zM46 104v92l100 59l-100 60v91l183 -113v-75z" />
    <glyph glyph-name="onequarter" unicode="&#xbc;" horiz-adv-x="854" 
d="M85 0l527 730h156l-527 -730h-156zM674 0v84h-169v99l168 239h105v-243h62v-95h-62v-84h-104zM14 308v104h81v166c-13 -17 -34 -26 -63 -26h-6v107h3c56 0 70 42 70 71h109v-318h78v-104h-272zM621 179h53v77z" />
    <glyph glyph-name="onehalf" unicode="&#xbd;" horiz-adv-x="870" 
d="M85 0l527 730h156l-527 -730h-156zM553 0v83c0 83 62 125 115 152c40 23 75 39 75 64c0 17 -14 32 -41 32c-31 0 -51 -27 -62 -54l-97 50c31 63 84 101 161 101c92 0 154 -53 154 -128c0 -80 -64 -119 -118 -146c-35 -19 -63 -33 -66 -50h181v-104h-302zM14 308v104h81
v166c-13 -17 -34 -26 -63 -26h-6v107h3c56 0 70 42 70 71h109v-318h78v-104h-272z" />
    <glyph glyph-name="threequarters" unicode="&#xbe;" horiz-adv-x="860" 
d="M92 0l527 730h156l-527 -730h-156zM680 0v84h-169v99l168 239h105v-243h62v-95h-62v-84h-104zM158 302c-57 0 -116 16 -153 53l85 77c18 -19 38 -28 61 -28c27 0 45 13 45 36s-24 33 -59 33h-44v98h42c35 0 52 12 52 36c0 21 -14 31 -43 31c-23 0 -41 -9 -52 -28l-80 69
c33 36 88 57 136 57c93 0 157 -48 157 -125c0 -33 -14 -61 -42 -83c35 -21 52 -51 52 -91c0 -76 -61 -135 -157 -135zM627 179h53v77z" />
    <glyph glyph-name="questiondown" unicode="&#xbf;" horiz-adv-x="517" 
d="M263 -240c-135 0 -231 84 -231 209c0 189 183 150 183 332v11h120v-11c0 -243 -165 -214 -165 -334c0 -51 36 -89 95 -89c55 0 89 37 101 86l126 -43c-25 -96 -100 -161 -229 -161zM194 431c0 49 31 82 82 82s81 -33 81 -82c0 -48 -31 -81 -82 -81s-81 33 -81 81z" />
    <glyph glyph-name="Agrave" unicode="&#xc0;" horiz-adv-x="687" 
d="M15 0l260 730h137l260 -730h-142l-45 130h-283l-45 -130h-142zM344 537l-96 -277h192zM300 780l-150 170h127l114 -170h-91z" />
    <glyph glyph-name="Aacute" unicode="&#xc1;" horiz-adv-x="687" 
d="M15 0l260 730h137l260 -730h-142l-45 130h-283l-45 -130h-142zM344 537l-96 -277h192zM297 780l115 170h126l-150 -170h-91z" />
    <glyph glyph-name="Acircumflex" unicode="&#xc2;" horiz-adv-x="687" 
d="M15 0l260 730h137l260 -730h-142l-45 130h-283l-45 -130h-142zM181 780l119 170h84l119 -170h-102l-59 89l-59 -89h-102zM344 537l-96 -277h192z" />
    <glyph glyph-name="Atilde" unicode="&#xc3;" horiz-adv-x="687" 
d="M15 0l260 730h137l260 -730h-142l-45 130h-283l-45 -130h-142zM251 780h-78c0 81 39 135 104 135c33 0 56 -12 77 -24c19 -13 35 -25 52 -25c19 0 28 15 28 45h78c0 -83 -34 -135 -105 -135c-39 0 -64 18 -87 31c-15 9 -28 17 -43 17c-17 0 -26 -15 -26 -44zM344 537
l-96 -277h192z" />
    <glyph glyph-name="Adieresis" unicode="&#xc4;" horiz-adv-x="687" 
d="M15 0l260 730h137l260 -730h-142l-45 130h-283l-45 -130h-142zM344 537l-96 -277h192zM176 849c0 43 28 72 72 72c45 0 72 -29 72 -72s-27 -71 -72 -71s-72 28 -72 71zM367 849c0 43 28 72 72 72s72 -29 72 -72s-28 -71 -72 -71c-47 0 -72 28 -72 71z" />
    <glyph glyph-name="Aring" unicode="&#xc5;" horiz-adv-x="687" 
d="M15 0l245 688c-20 21 -33 50 -33 82c0 67 52 118 116 118c65 0 117 -51 117 -118c0 -32 -11 -59 -34 -82l246 -688h-142l-45 130h-283l-45 -130h-142zM344 537l-96 -277h192zM343 731c23 0 41 18 41 39c0 23 -18 41 -41 41s-40 -18 -40 -41c0 -21 17 -39 40 -39z" />
    <glyph glyph-name="AE" unicode="&#xc6;" horiz-adv-x="938" 
d="M13 0l333 730h558v-130h-386l42 -168h344v-130h-311l43 -172h268v-130h-378l-32 129h-281l-58 -129h-142zM395 534l-126 -279h194z" />
    <glyph glyph-name="Ccedilla" unicode="&#xc7;" horiz-adv-x="738" 
d="M388 -240c-53 0 -105 24 -144 59l78 47c23 -19 41 -34 76 -34c29 0 55 14 55 31c0 18 -19 27 -58 27h-50v104c-196 24 -323 179 -323 371c0 218 164 375 375 375c137 0 256 -72 320 -181l-119 -76c-43 76 -106 123 -201 123c-139 0 -240 -105 -240 -241
c0 -133 101 -239 237 -239c101 0 171 57 210 137l124 -65c-60 -117 -166 -195 -299 -206v-45c75 3 115 -31 115 -80c0 -62 -68 -107 -156 -107z" />
    <glyph glyph-name="Egrave" unicode="&#xc8;" horiz-adv-x="509" 
d="M42 0v730h433v-130h-297v-168h297v-130h-297v-172h297v-130h-433zM222 780l-150 170h127l114 -170h-91z" />
    <glyph glyph-name="Eacute" unicode="&#xc9;" horiz-adv-x="509" 
d="M42 0v730h433v-130h-297v-168h297v-130h-297v-172h297v-130h-433zM202 780l115 170h126l-150 -170h-91z" />
    <glyph glyph-name="Ecircumflex" unicode="&#xca;" horiz-adv-x="509" 
d="M42 0v730h433v-130h-297v-168h297v-130h-297v-172h297v-130h-433zM97 780l119 170h84l119 -170h-102l-59 89l-59 -89h-102z" />
    <glyph glyph-name="Edieresis" unicode="&#xcb;" horiz-adv-x="509" 
d="M42 0v730h433v-130h-297v-168h297v-130h-297v-172h297v-130h-433zM95 849c0 43 28 72 72 72c45 0 72 -29 72 -72s-27 -71 -72 -71s-72 28 -72 71zM286 849c0 43 28 72 72 72s72 -29 72 -72s-28 -71 -72 -71c-47 0 -72 28 -72 71z" />
    <glyph glyph-name="Igrave" unicode="&#xcc;" horiz-adv-x="230" 
d="M47 0v730h136v-730h-136zM70 780l-150 170h127l114 -170h-91z" />
    <glyph glyph-name="Iacute" unicode="&#xcd;" horiz-adv-x="230" 
d="M47 0v730h136v-730h-136zM70 780l115 170h126l-150 -170h-91z" />
    <glyph glyph-name="Icircumflex" unicode="&#xce;" horiz-adv-x="230" 
d="M47 0v730h136v-730h-136zM-46 780l119 170h84l119 -170h-102l-59 89l-59 -89h-102z" />
    <glyph glyph-name="Idieresis" unicode="&#xcf;" horiz-adv-x="230" 
d="M152 781v137h134v-137h-134zM-55 781v137h134v-137h-134zM47 0v730h136v-730h-136z" />
    <glyph glyph-name="Eth" unicode="&#xd0;" horiz-adv-x="695" 
d="M20 309v115h69v306h199c246 0 386 -158 386 -365c0 -208 -158 -365 -380 -365h-205v309h-69zM272 604h-47v-180h165v-115h-165v-183h53c160 0 260 103 260 239c0 140 -85 239 -266 239z" />
    <glyph glyph-name="Ntilde" unicode="&#xd1;" horiz-adv-x="690" 
d="M42 0v730h154l316 -497v497h136v-730h-145l-325 513v-513h-136zM252 780h-78c0 81 39 135 104 135c33 0 56 -12 77 -24c19 -13 35 -25 52 -25c19 0 28 15 28 45h78c0 -83 -34 -135 -105 -135c-39 0 -64 18 -87 31c-15 9 -28 17 -43 17c-17 0 -26 -15 -26 -44z" />
    <glyph glyph-name="Ograve" unicode="&#xd2;" horiz-adv-x="790" 
d="M395 -10c-208 0 -373 167 -373 375c0 207 165 375 373 375s374 -168 374 -375c0 -208 -166 -375 -374 -375zM395 124c133 0 239 108 239 241s-106 241 -239 241s-238 -108 -238 -241s105 -241 238 -241zM349 780l-150 170h127l114 -170h-91z" />
    <glyph glyph-name="Oacute" unicode="&#xd3;" horiz-adv-x="790" 
d="M343 780l115 170h126l-150 -170h-91zM395 -10c-208 0 -373 167 -373 375c0 207 165 375 373 375s374 -168 374 -375c0 -208 -166 -375 -374 -375zM395 124c133 0 239 108 239 241s-106 241 -239 241s-238 -108 -238 -241s105 -241 238 -241z" />
    <glyph glyph-name="Ocircumflex" unicode="&#xd4;" horiz-adv-x="790" 
d="M395 -10c-208 0 -373 167 -373 375c0 207 165 375 373 375s374 -168 374 -375c0 -208 -166 -375 -374 -375zM395 124c133 0 239 108 239 241s-106 241 -239 241s-238 -108 -238 -241s105 -241 238 -241zM230 780l119 170h84l119 -170h-102l-59 89l-59 -89h-102z" />
    <glyph glyph-name="Otilde" unicode="&#xd5;" horiz-adv-x="790" 
d="M395 -10c-208 0 -373 167 -373 375c0 207 165 375 373 375s374 -168 374 -375c0 -208 -166 -375 -374 -375zM395 124c133 0 239 108 239 241s-106 241 -239 241s-238 -108 -238 -241s105 -241 238 -241zM298 780h-78c0 81 39 135 104 135c33 0 56 -12 77 -24
c19 -13 35 -25 52 -25c19 0 28 15 28 45h78c0 -83 -34 -135 -105 -135c-39 0 -64 18 -87 31c-15 9 -28 17 -43 17c-17 0 -26 -15 -26 -44z" />
    <glyph glyph-name="Odieresis" unicode="&#xd6;" horiz-adv-x="790" 
d="M221 849c0 43 28 72 72 72c45 0 72 -29 72 -72s-27 -71 -72 -71s-72 28 -72 71zM412 849c0 43 28 72 72 72s72 -29 72 -72s-28 -71 -72 -71c-47 0 -72 28 -72 71zM395 -10c-208 0 -373 167 -373 375c0 207 165 375 373 375s374 -168 374 -375c0 -208 -166 -375 -374 -375
zM395 124c133 0 239 108 239 241s-106 241 -239 241s-238 -108 -238 -241s105 -241 238 -241z" />
    <glyph glyph-name="multiply" unicode="&#xd7;" horiz-adv-x="442" 
d="M116 179l-79 79l105 105l-106 106l79 79l106 -106l106 106l79 -79l-106 -106l105 -105l-79 -79l-105 105z" />
    <glyph glyph-name="Oslash" unicode="&#xd8;" horiz-adv-x="790" 
d="M24 0l92 114c-60 68 -94 154 -94 251c0 207 165 375 373 375c68 0 130 -19 186 -50l33 40h157l-95 -117c59 -67 93 -152 93 -248c0 -208 -166 -375 -374 -375c-68 0 -129 17 -184 48l-30 -38h-157zM157 365c0 -55 17 -104 46 -144l292 362c-32 15 -65 23 -100 23
c-133 0 -238 -108 -238 -241zM395 124c133 0 239 108 239 241c0 52 -17 101 -45 140l-291 -361c30 -13 62 -20 97 -20z" />
    <glyph glyph-name="Ugrave" unicode="&#xd9;" horiz-adv-x="608" 
d="M304 -10c-152 0 -263 91 -263 262v478h136v-486c0 -72 54 -128 126 -128c71 0 128 56 128 128v486h136v-478c0 -171 -112 -262 -263 -262zM267 780l-150 170h127l114 -170h-91z" />
    <glyph glyph-name="Uacute" unicode="&#xda;" horiz-adv-x="608" 
d="M250 780l115 170h126l-150 -170h-91zM304 -10c-152 0 -263 91 -263 262v478h136v-486c0 -72 54 -128 126 -128c71 0 128 56 128 128v486h136v-478c0 -171 -112 -262 -263 -262z" />
    <glyph glyph-name="Ucircumflex" unicode="&#xdb;" horiz-adv-x="608" 
d="M304 -10c-152 0 -263 91 -263 262v478h136v-486c0 -72 54 -128 126 -128c71 0 128 56 128 128v486h136v-478c0 -171 -112 -262 -263 -262zM143 780l119 170h84l119 -170h-102l-59 89l-59 -89h-102z" />
    <glyph glyph-name="Udieresis" unicode="&#xdc;" horiz-adv-x="608" 
d="M141 849c0 43 28 72 72 72c45 0 72 -29 72 -72s-27 -71 -72 -71s-72 28 -72 71zM332 849c0 43 28 72 72 72s72 -29 72 -72s-28 -71 -72 -71c-47 0 -72 28 -72 71zM304 -10c-152 0 -263 91 -263 262v478h136v-486c0 -72 54 -128 126 -128c71 0 128 56 128 128v486h136
v-478c0 -171 -112 -262 -263 -262z" />
    <glyph glyph-name="Yacute" unicode="&#xdd;" horiz-adv-x="629" 
d="M245 0v346l-232 384h150l151 -253l152 253h150l-235 -387v-343h-136zM264 780l115 170h126l-150 -170h-91z" />
    <glyph glyph-name="Thorn" unicode="&#xde;" horiz-adv-x="558" 
d="M42 0v730h136v-127h121c136 0 232 -103 232 -232s-97 -232 -233 -232h-120v-139h-136zM291 477h-113v-212h113c64 0 105 46 105 106c0 59 -41 106 -105 106z" />
    <glyph glyph-name="germandbls" unicode="&#xdf;" horiz-adv-x="589" 
d="M-80 -269v127c101 0 119 23 119 118v625c-5 149 87 253 252 253c148 0 249 -98 249 -235c0 -81 -43 -145 -116 -176c84 -27 146 -101 146 -198c0 -149 -105 -256 -264 -256c-27 0 -56 2 -79 11v122c10 -8 60 -11 77 -11c72 0 128 57 128 133c0 71 -60 131 -157 131h-26
v123h26c80 0 133 53 133 122c0 66 -46 120 -118 120c-75 0 -123 -41 -123 -125v-639c0 -180 -53 -245 -226 -245h-21z" />
    <glyph glyph-name="agrave" unicode="&#xe0;" horiz-adv-x="671" 
d="M308 -12c-141 0 -288 112 -288 304c0 194 142 305 290 305c77 0 145 -31 188 -82v70h135v-585h-135v76c-43 -55 -113 -88 -190 -88zM330 112c101 0 175 81 175 182c0 100 -74 180 -175 180c-100 0 -177 -79 -177 -180c0 -102 77 -182 177 -182zM286 645l-150 170h127
l114 -170h-91z" />
    <glyph glyph-name="aacute" unicode="&#xe1;" horiz-adv-x="671" 
d="M308 -12c-141 0 -288 112 -288 304c0 194 142 305 290 305c77 0 145 -31 188 -82v70h135v-585h-135v76c-43 -55 -113 -88 -190 -88zM330 112c101 0 175 81 175 182c0 100 -74 180 -175 180c-100 0 -177 -79 -177 -180c0 -102 77 -182 177 -182zM271 645l115 170h126
l-150 -170h-91z" />
    <glyph glyph-name="acircumflex" unicode="&#xe2;" horiz-adv-x="671" 
d="M308 -12c-141 0 -288 112 -288 304c0 194 142 305 290 305c77 0 145 -31 188 -82v70h135v-585h-135v76c-43 -55 -113 -88 -190 -88zM330 112c101 0 175 81 175 182c0 100 -74 180 -175 180c-100 0 -177 -79 -177 -180c0 -102 77 -182 177 -182zM149 642l119 170h84
l119 -170h-102l-59 89l-59 -89h-102z" />
    <glyph glyph-name="atilde" unicode="&#xe3;" horiz-adv-x="671" 
d="M308 -12c-141 0 -288 112 -288 304c0 194 142 305 290 305c77 0 145 -31 188 -82v70h135v-585h-135v76c-43 -55 -113 -88 -190 -88zM330 112c101 0 175 81 175 182c0 100 -74 180 -175 180c-100 0 -177 -79 -177 -180c0 -102 77 -182 177 -182zM241 645h-78
c0 81 39 135 104 135c33 0 56 -12 77 -24c19 -13 35 -25 52 -25c19 0 28 15 28 45h78c0 -83 -34 -135 -105 -135c-39 0 -64 18 -87 31c-15 9 -28 17 -43 17c-17 0 -26 -15 -26 -44z" />
    <glyph glyph-name="adieresis" unicode="&#xe4;" horiz-adv-x="671" 
d="M308 -12c-141 0 -288 112 -288 304c0 194 142 305 290 305c77 0 145 -31 188 -82v70h135v-585h-135v76c-43 -55 -113 -88 -190 -88zM330 112c101 0 175 81 175 182c0 100 -74 180 -175 180c-100 0 -177 -79 -177 -180c0 -102 77 -182 177 -182zM156 713c0 43 28 72 72 72
c45 0 72 -29 72 -72s-27 -71 -72 -71s-72 28 -72 71zM347 713c0 43 28 72 72 72s72 -29 72 -72s-28 -71 -72 -71c-47 0 -72 28 -72 71z" />
    <glyph glyph-name="aring" unicode="&#xe5;" horiz-adv-x="671" 
d="M308 -12c-141 0 -288 112 -288 304c0 194 142 305 290 305c77 0 145 -31 188 -82v70h135v-585h-135v76c-43 -55 -113 -88 -190 -88zM330 112c101 0 175 81 175 182c0 100 -74 180 -175 180c-100 0 -177 -79 -177 -180c0 -102 77 -182 177 -182zM329 640
c-64 0 -116 52 -116 116c0 67 52 118 116 118c65 0 117 -51 117 -118c0 -64 -52 -116 -117 -116zM329 717c23 0 41 18 41 39c0 23 -18 41 -41 41s-40 -18 -40 -41c0 -21 17 -39 40 -39z" />
    <glyph glyph-name="ae" unicode="&#xe6;" horiz-adv-x="1035" 
d="M719 -12c-113 0 -198 47 -250 123c-40 -67 -129 -123 -239 -123c-147 0 -212 71 -212 166c0 109 83 157 193 184c98 26 196 39 196 89c0 35 -36 63 -108 63c-97 0 -141 -50 -141 -110v-3h-124v2c0 139 95 218 259 218c96 0 170 -29 210 -85c53 53 126 85 210 85
c172 0 302 -128 302 -301v-47h-477c16 -85 82 -142 181 -142c76 0 138 43 166 106l114 -49c-49 -107 -149 -176 -280 -176zM237 100c97 0 167 87 175 135c0 2 1 54 -2 59c-7 -19 -58 -35 -134 -52c-83 -19 -123 -37 -123 -84c0 -35 24 -58 84 -58zM713 478
c-80 0 -139 -47 -166 -116h330c-23 76 -83 116 -164 116z" />
    <glyph glyph-name="ccedilla" unicode="&#xe7;" horiz-adv-x="617" 
d="M316 -245c-53 0 -105 24 -144 59l78 47c23 -19 41 -34 76 -34c29 0 55 14 55 31c0 18 -19 27 -58 27h-50v107c-146 24 -253 148 -253 300c0 171 133 305 304 305c131 0 234 -75 279 -181l-121 -51c-27 64 -85 105 -157 105c-99 0 -173 -79 -173 -178
c0 -97 74 -177 174 -177c76 0 131 45 158 109l121 -52c-43 -100 -127 -171 -248 -182v-48c75 3 115 -31 115 -80c0 -62 -68 -107 -156 -107z" />
    <glyph glyph-name="egrave" unicode="&#xe8;" 
d="M329 -12c-184 0 -309 134 -309 303c0 171 133 306 304 306c174 0 301 -128 301 -301v-51h-476c19 -83 84 -138 180 -138c76 0 134 40 162 103l111 -64c-51 -95 -141 -158 -273 -158zM324 478c-81 0 -144 -48 -168 -120h332c-20 79 -80 120 -164 120zM306 640l-150 170
h127l114 -170h-91z" />
    <glyph glyph-name="eacute" unicode="&#xe9;" 
d="M329 -12c-184 0 -309 134 -309 303c0 171 133 306 304 306c174 0 301 -128 301 -301v-51h-476c19 -83 84 -138 180 -138c76 0 134 40 162 103l111 -64c-51 -95 -141 -158 -273 -158zM324 478c-81 0 -144 -48 -168 -120h332c-20 79 -80 120 -164 120zM279 645l115 170h126
l-150 -170h-91z" />
    <glyph glyph-name="ecircumflex" unicode="&#xea;" 
d="M329 -12c-184 0 -309 134 -309 303c0 171 133 306 304 306c174 0 301 -128 301 -301v-51h-476c19 -83 84 -138 180 -138c76 0 134 40 162 103l111 -64c-51 -95 -141 -158 -273 -158zM324 478c-81 0 -144 -48 -168 -120h332c-20 79 -80 120 -164 120zM168 639l119 170h84
l119 -170h-102l-59 89l-59 -89h-102z" />
    <glyph glyph-name="edieresis" unicode="&#xeb;" 
d="M329 -12c-184 0 -309 134 -309 303c0 171 133 306 304 306c174 0 301 -128 301 -301v-51h-476c19 -83 84 -138 180 -138c76 0 134 40 162 103l111 -64c-51 -95 -141 -158 -273 -158zM324 478c-81 0 -144 -48 -168 -120h332c-20 79 -80 120 -164 120zM156 703
c0 43 28 72 72 72c45 0 72 -29 72 -72s-27 -71 -72 -71s-72 28 -72 71zM347 703c0 43 28 72 72 72s72 -29 72 -72s-28 -71 -72 -71c-47 0 -72 28 -72 71z" />
    <glyph glyph-name="igrave" unicode="&#xec;" horiz-adv-x="214" 
d="M39 0v585h136v-585h-136zM59 635l-150 170h127l114 -170h-91z" />
    <glyph glyph-name="iacute" unicode="&#xed;" horiz-adv-x="214" 
d="M55 635l115 170h126l-150 -170h-91zM39 0v585h136v-585h-136z" />
    <glyph glyph-name="icircumflex" unicode="&#xee;" horiz-adv-x="214" 
d="M39 0v585h136v-585h-136zM-51 635l119 170h84l119 -170h-102l-59 89l-59 -89h-102z" />
    <glyph glyph-name="idieresis" unicode="&#xef;" horiz-adv-x="214" 
d="M145 630v161h135v-161h-135zM-68 630v161h136v-161h-136zM39 0v585h136v-585h-136z" />
    <glyph glyph-name="eth" unicode="&#xf0;" horiz-adv-x="661" 
d="M116 626l133 92c-45 35 -97 73 -160 116h193c23 -17 42 -34 61 -50l71 50h126l-140 -99c166 -153 227 -277 227 -443c0 -164 -133 -304 -304 -304c-163 0 -303 127 -303 309c0 168 138 298 285 298c51 0 84 -12 111 -32c-27 35 -63 71 -108 108l-64 -45h-128zM323 115
c96 0 170 80 170 177c0 99 -74 178 -170 178c-97 0 -170 -79 -170 -178c0 -97 73 -177 170 -177z" />
    <glyph glyph-name="ntilde" unicode="&#xf1;" horiz-adv-x="618" 
d="M39 0v585h134v-72c39 51 99 84 175 84c147 0 232 -91 232 -250v-347h-137v333c0 91 -44 147 -132 147c-77 0 -137 -56 -137 -159v-321h-135zM245 646h-78c0 81 39 135 104 135c33 0 56 -12 77 -24c19 -13 35 -25 52 -25c19 0 28 15 28 45h78c0 -83 -34 -135 -105 -135
c-39 0 -64 18 -87 31c-15 9 -28 17 -43 17c-17 0 -26 -15 -26 -44z" />
    <glyph glyph-name="ograve" unicode="&#xf2;" 
d="M323 -12c-169 0 -303 136 -303 304c0 125 76 236 185 281l-129 147h127l84 -125c12 1 24 2 36 2c168 0 303 -134 303 -305c0 -168 -135 -304 -303 -304zM323 115c96 0 170 80 170 177c0 99 -74 178 -170 178c-97 0 -170 -79 -170 -178c0 -97 73 -177 170 -177z" />
    <glyph glyph-name="oacute" unicode="&#xf3;" 
d="M277 645l115 170h126l-150 -170h-91zM323 -12c-169 0 -303 136 -303 304c0 171 134 305 303 305c168 0 303 -134 303 -305c0 -168 -135 -304 -303 -304zM323 115c96 0 170 80 170 177c0 99 -74 178 -170 178c-97 0 -170 -79 -170 -178c0 -97 73 -177 170 -177z" />
    <glyph glyph-name="ocircumflex" unicode="&#xf4;" 
d="M323 -12c-169 0 -303 136 -303 304c0 171 134 305 303 305c168 0 303 -134 303 -305c0 -168 -135 -304 -303 -304zM323 115c96 0 170 80 170 177c0 99 -74 178 -170 178c-97 0 -170 -79 -170 -178c0 -97 73 -177 170 -177zM165 635l119 170h84l119 -170h-102l-59 89
l-59 -89h-102z" />
    <glyph glyph-name="otilde" unicode="&#xf5;" 
d="M323 -12c-169 0 -303 136 -303 304c0 171 134 305 303 305c168 0 303 -134 303 -305c0 -168 -135 -304 -303 -304zM323 115c96 0 170 80 170 177c0 99 -74 178 -170 178c-97 0 -170 -79 -170 -178c0 -97 73 -177 170 -177zM243 643h-78c0 81 39 135 104 135
c33 0 56 -12 77 -24c19 -13 35 -25 52 -25c19 0 28 15 28 45h78c0 -83 -34 -135 -105 -135c-39 0 -64 18 -87 31c-15 9 -28 17 -43 17c-17 0 -26 -15 -26 -44z" />
    <glyph glyph-name="odieresis" unicode="&#xf6;" 
d="M154 703c0 43 28 72 72 72c45 0 72 -29 72 -72s-27 -71 -72 -71s-72 28 -72 71zM345 703c0 43 28 72 72 72s72 -29 72 -72s-28 -71 -72 -71c-47 0 -72 28 -72 71zM323 -12c-169 0 -303 136 -303 304c0 171 134 305 303 305c168 0 303 -134 303 -305
c0 -168 -135 -304 -303 -304zM323 115c96 0 170 80 170 177c0 99 -74 178 -170 178c-97 0 -170 -79 -170 -178c0 -97 73 -177 170 -177z" />
    <glyph glyph-name="divide" unicode="&#xf7;" horiz-adv-x="442" 
d="M36 307v115h370v-115h-370zM165 462v117h114v-117h-114zM165 151v116h114v-116h-114z" />
    <glyph glyph-name="oslash" unicode="&#xf8;" 
d="M323 -12c-53 0 -102 13 -145 36l-19 -24h-139l73 92c-47 53 -73 123 -73 200c0 171 134 305 303 305c52 0 100 -13 143 -36l19 24h139l-73 -92c47 -53 75 -124 75 -201c0 -168 -135 -304 -303 -304zM323 115c96 0 171 80 171 177c0 35 -9 67 -27 96l-207 -261
c19 -8 40 -12 63 -12zM152 292c0 -35 8 -66 25 -94l207 260c-19 8 -39 12 -61 12c-98 0 -171 -79 -171 -178z" />
    <glyph glyph-name="ugrave" unicode="&#xf9;" horiz-adv-x="608" 
d="M569 585v-585h-134v67c-37 -49 -93 -79 -168 -79c-140 0 -225 91 -225 250v347h137v-333c0 -91 40 -147 125 -147c75 0 130 56 130 159v321h135zM268 627l-150 170h127l114 -170h-91z" />
    <glyph glyph-name="uacute" unicode="&#xfa;" horiz-adv-x="608" 
d="M569 585v-585h-134v67c-37 -49 -93 -79 -168 -79c-140 0 -225 91 -225 250v347h137v-333c0 -91 40 -147 125 -147c75 0 130 56 130 159v321h135zM249 624l115 170h126l-150 -170h-91z" />
    <glyph glyph-name="ucircumflex" unicode="&#xfb;" horiz-adv-x="608" 
d="M569 585v-585h-134v67c-37 -49 -93 -79 -168 -79c-140 0 -225 91 -225 250v347h137v-333c0 -91 40 -147 125 -147c75 0 130 56 130 159v321h135zM141 635l119 170h84l119 -170h-102l-59 89l-59 -89h-102z" />
    <glyph glyph-name="udieresis" unicode="&#xfc;" horiz-adv-x="608" 
d="M569 585v-585h-134v67c-37 -49 -93 -79 -168 -79c-140 0 -225 91 -225 250v347h137v-333c0 -91 40 -147 125 -147c75 0 130 56 130 159v321h135zM138 703c0 43 28 72 72 72c45 0 72 -29 72 -72s-27 -71 -72 -71s-72 28 -72 71zM329 703c0 43 28 72 72 72s72 -29 72 -72
s-28 -71 -72 -71c-47 0 -72 28 -72 71z" />
    <glyph glyph-name="yacute" unicode="&#xfd;" horiz-adv-x="618" 
d="M123 -270l123 299l-240 556h144l163 -394l154 394h142l-349 -855h-137zM257 611l115 170h126l-150 -170h-91z" />
    <glyph glyph-name="thorn" unicode="&#xfe;" horiz-adv-x="670" 
d="M365 -12c-84 0 -151 37 -192 92v-349h-134v1123h134v-348c41 53 108 91 192 91c147 0 285 -110 285 -302c0 -195 -143 -307 -285 -307zM343 112c102 0 176 82 176 183c0 99 -73 179 -176 179c-100 0 -174 -80 -174 -180c0 -99 75 -182 174 -182z" />
    <glyph glyph-name="ydieresis" unicode="&#xff;" horiz-adv-x="618" 
d="M123 -270l123 299l-240 556h144l163 -394l154 394h142l-349 -855h-137zM144 703c0 43 28 72 72 72c45 0 72 -29 72 -72s-27 -71 -72 -71s-72 28 -72 71zM335 703c0 43 28 72 72 72s72 -29 72 -72s-28 -71 -72 -71c-47 0 -72 28 -72 71z" />
    <glyph glyph-name="Amacron" unicode="&#x100;" horiz-adv-x="687" 
d="M15 0l260 730h137l260 -730h-142l-45 130h-283l-45 -130h-142zM344 537l-96 -277h192zM213 780v86h264v-86h-264z" />
    <glyph glyph-name="amacron" unicode="&#x101;" horiz-adv-x="671" 
d="M308 -12c-141 0 -288 112 -288 304c0 194 142 305 290 305c77 0 145 -31 188 -82v70h135v-585h-135v76c-43 -55 -113 -88 -190 -88zM330 112c101 0 175 81 175 182c0 100 -74 180 -175 180c-100 0 -177 -79 -177 -180c0 -102 77 -182 177 -182zM203 646v86h264v-86h-264z
" />
    <glyph glyph-name="Abreve" unicode="&#x102;" horiz-adv-x="687" 
d="M15 0l260 730h137l260 -730h-142l-45 130h-283l-45 -130h-142zM343 775c-110 0 -161 73 -161 170h85c0 -64 27 -93 76 -96c48 3 76 32 76 96h86c0 -97 -61 -170 -162 -170zM344 537l-96 -277h192z" />
    <glyph glyph-name="abreve" unicode="&#x103;" horiz-adv-x="671" 
d="M308 -12c-141 0 -288 112 -288 304c0 194 142 305 290 305c77 0 145 -31 188 -82v70h135v-585h-135v76c-43 -55 -113 -88 -190 -88zM330 112c101 0 175 81 175 182c0 100 -74 180 -175 180c-100 0 -177 -79 -177 -180c0 -102 77 -182 177 -182zM323 643
c-110 0 -161 73 -161 170h85c0 -64 27 -93 76 -96c48 3 76 32 76 96h86c0 -97 -61 -170 -162 -170z" />
    <glyph glyph-name="Aogonek" unicode="&#x104;" horiz-adv-x="687" 
d="M585 -227c-87 0 -144 48 -144 109c0 43 19 81 87 124l-43 124h-283l-45 -130h-142l260 730h137l260 -730c-109 -72 -130 -87 -130 -113c0 -23 20 -31 43 -31c27 0 41 14 60 29l79 -54c-35 -32 -91 -58 -139 -58zM344 537l-96 -277h192z" />
    <glyph glyph-name="aogonek" unicode="&#x105;" horiz-adv-x="671" 
d="M308 -12c-141 0 -288 112 -288 304c0 194 142 305 290 305c77 0 145 -31 188 -82v70h135v-585h1c-76 -47 -105 -87 -105 -111c0 -23 15 -33 38 -33c20 0 37 14 50 30l79 -55c-35 -36 -75 -60 -134 -60c-77 0 -131 45 -132 108c-1 51 25 88 68 124v73
c-43 -55 -113 -88 -190 -88zM330 112c101 0 175 81 175 182c0 100 -74 180 -175 180c-100 0 -177 -79 -177 -180c0 -102 77 -182 177 -182z" />
    <glyph glyph-name="Cacute" unicode="&#x106;" horiz-adv-x="738" 
d="M349 780l115 170h126l-150 -170h-91zM397 -10c-225 0 -375 167 -375 375c0 218 164 375 375 375c137 0 256 -72 320 -181l-119 -76c-43 76 -106 123 -201 123c-139 0 -240 -105 -240 -241c0 -133 101 -239 237 -239c101 0 171 57 210 137l124 -65
c-64 -124 -187 -208 -331 -208z" />
    <glyph glyph-name="cacute" unicode="&#x107;" horiz-adv-x="617" 
d="M276 645l115 170h126l-150 -170h-91zM324 -12c-171 0 -304 136 -304 304c0 171 133 305 304 305c131 0 234 -75 279 -181l-121 -51c-27 64 -85 105 -157 105c-99 0 -173 -79 -173 -178c0 -97 74 -177 174 -177c76 0 131 45 158 109l121 -52c-46 -108 -145 -184 -281 -184
z" />
    <glyph glyph-name="Ccircumflex" unicode="&#x108;" horiz-adv-x="738" 
d="M397 -10c-225 0 -375 167 -375 375c0 218 164 375 375 375c137 0 256 -72 320 -181l-119 -76c-43 76 -106 123 -201 123c-139 0 -240 -105 -240 -241c0 -133 101 -239 237 -239c101 0 171 57 210 137l124 -65c-64 -124 -187 -208 -331 -208zM240 780l119 170h84l119 -170
h-102l-59 89l-59 -89h-102z" />
    <glyph glyph-name="ccircumflex" unicode="&#x109;" horiz-adv-x="617" 
d="M324 -12c-171 0 -304 136 -304 304c0 171 133 305 304 305c131 0 234 -75 279 -181l-121 -51c-27 64 -85 105 -157 105c-99 0 -173 -79 -173 -178c0 -97 74 -177 174 -177c76 0 131 45 158 109l121 -52c-46 -108 -145 -184 -281 -184zM164 639l119 170h84l119 -170h-102
l-59 89l-59 -89h-102z" />
    <glyph glyph-name="Cdotaccent" unicode="&#x10a;" horiz-adv-x="738" 
d="M397 -10c-225 0 -375 167 -375 375c0 218 164 375 375 375c137 0 256 -72 320 -181l-119 -76c-43 76 -106 123 -201 123c-139 0 -240 -105 -240 -241c0 -133 101 -239 237 -239c101 0 171 57 210 137l124 -65c-64 -124 -187 -208 -331 -208zM324 849c0 47 31 79 79 79
c49 0 79 -32 79 -79s-30 -78 -79 -78c-51 0 -79 31 -79 78z" />
    <glyph glyph-name="cdotaccent" unicode="&#x10b;" horiz-adv-x="617" 
d="M324 -12c-171 0 -304 136 -304 304c0 171 133 305 304 305c131 0 234 -75 279 -181l-121 -51c-27 64 -85 105 -157 105c-99 0 -173 -79 -173 -178c0 -97 74 -177 174 -177c76 0 131 45 158 109l121 -52c-46 -108 -145 -184 -281 -184zM244 713c0 47 31 79 79 79
c49 0 79 -32 79 -79s-30 -78 -79 -78c-51 0 -79 31 -79 78z" />
    <glyph glyph-name="Ccaron" unicode="&#x10c;" horiz-adv-x="738" 
d="M397 -10c-225 0 -375 167 -375 375c0 218 164 375 375 375c137 0 256 -72 320 -181l-119 -76c-43 76 -106 123 -201 123c-139 0 -240 -105 -240 -241c0 -133 101 -239 237 -239c101 0 171 57 210 137l124 -65c-64 -124 -187 -208 -331 -208zM356 780l-119 170h102l59 -89
l59 89h102l-119 -170h-84z" />
    <glyph glyph-name="ccaron" unicode="&#x10d;" horiz-adv-x="617" 
d="M324 -12c-171 0 -304 136 -304 304c0 171 133 305 304 305c131 0 234 -75 279 -181l-121 -51c-27 64 -85 105 -157 105c-99 0 -173 -79 -173 -178c0 -97 74 -177 174 -177c76 0 131 45 158 109l121 -52c-46 -108 -145 -184 -281 -184zM291 645l-119 170h102l59 -89l59 89
h102l-119 -170h-84z" />
    <glyph glyph-name="Dcaron" unicode="&#x10e;" horiz-adv-x="648" 
d="M42 0v730h199c246 0 386 -158 386 -365c0 -208 -158 -365 -380 -365h-205zM225 604h-47v-478h53c160 0 260 103 260 239c0 140 -85 239 -266 239zM224 780l-119 170h102l59 -89l59 89h102l-119 -170h-84z" />
    <glyph glyph-name="dcaron" unicode="&#x10f;" horiz-adv-x="742" 
d="M308 -12c-141 0 -288 112 -288 304c0 194 142 305 290 305c76 0 144 -30 187 -81v224h136v-740h-135v76c-43 -55 -113 -88 -190 -88zM330 112c101 0 175 81 175 182c0 100 -74 180 -175 180c-100 0 -177 -79 -177 -180c0 -102 77 -182 177 -182zM654 561l25 171h109
l-51 -171h-83z" />
    <glyph glyph-name="Dcroat" unicode="&#x110;" horiz-adv-x="695" 
d="M20 309v115h69v306h199c246 0 386 -158 386 -365c0 -208 -158 -365 -380 -365h-205v309h-69zM272 604h-47v-180h165v-115h-165v-183h53c160 0 260 103 260 239c0 140 -85 239 -266 239z" />
    <glyph glyph-name="dslash" unicode="&#x111;" horiz-adv-x="679" 
d="M430 608v74h67v58h136v-58h61v-74h-61v-608h-135v76c-43 -55 -113 -88 -190 -88c-141 0 -288 112 -288 304c0 194 142 305 290 305c76 0 144 -30 187 -81v92h-67zM330 112c101 0 175 81 175 182c0 100 -74 180 -175 180c-100 0 -177 -79 -177 -180
c0 -102 77 -182 177 -182z" />
    <glyph glyph-name="Emacron" unicode="&#x112;" horiz-adv-x="509" 
d="M42 0v730h433v-130h-297v-168h297v-130h-297v-172h297v-130h-433zM127 780v86h264v-86h-264z" />
    <glyph glyph-name="emacron" unicode="&#x113;" 
d="M329 -12c-184 0 -309 134 -309 303c0 171 133 306 304 306c174 0 301 -128 301 -301v-51h-476c19 -83 84 -138 180 -138c76 0 134 40 162 103l111 -64c-51 -95 -141 -158 -273 -158zM324 478c-81 0 -144 -48 -168 -120h332c-20 79 -80 120 -164 120zM199 643v86h264v-86
h-264z" />
    <glyph glyph-name="Ebreve" unicode="&#x114;" horiz-adv-x="509" 
d="M42 0v730h433v-130h-297v-168h297v-130h-297v-172h297v-130h-433zM262 775c-110 0 -161 73 -161 170h85c0 -64 27 -93 76 -96c48 3 76 32 76 96h86c0 -97 -61 -170 -162 -170z" />
    <glyph glyph-name="ebreve" unicode="&#x115;" 
d="M329 -12c-184 0 -309 134 -309 303c0 171 133 306 304 306c174 0 301 -128 301 -301v-51h-476c19 -83 84 -138 180 -138c76 0 134 40 162 103l111 -64c-51 -95 -141 -158 -273 -158zM329 640c-110 0 -161 73 -161 170h85c0 -64 27 -93 76 -96c48 3 76 32 76 96h86
c0 -97 -61 -170 -162 -170zM324 478c-81 0 -144 -48 -168 -120h332c-20 79 -80 120 -164 120z" />
    <glyph glyph-name="Edotaccent" unicode="&#x116;" horiz-adv-x="509" 
d="M42 0v730h433v-130h-297v-168h297v-130h-297v-172h297v-130h-433zM197 849c0 47 31 79 79 79c49 0 79 -32 79 -79s-30 -78 -79 -78c-51 0 -79 31 -79 78z" />
    <glyph glyph-name="edotaccent" unicode="&#x117;" 
d="M329 -12c-184 0 -309 134 -309 303c0 171 133 306 304 306c174 0 301 -128 301 -301v-51h-476c19 -83 84 -138 180 -138c76 0 134 40 162 103l111 -64c-51 -95 -141 -158 -273 -158zM324 478c-81 0 -144 -48 -168 -120h332c-20 79 -80 120 -164 120zM247 708
c0 47 31 79 79 79c49 0 79 -32 79 -79s-30 -78 -79 -78c-51 0 -79 31 -79 78z" />
    <glyph glyph-name="Eogonek" unicode="&#x118;" horiz-adv-x="509" 
d="M42 0v730h433v-130h-297v-168h297v-130h-297v-172h297v-130h1c-109 -72 -130 -87 -130 -113c0 -23 20 -31 43 -31c27 0 41 14 60 29l79 -54c-35 -32 -91 -58 -139 -58c-87 0 -144 48 -144 109c0 40 17 77 77 118h-280z" />
    <glyph glyph-name="eogonek" unicode="&#x119;" 
d="M343 -224c-87 0 -144 48 -144 109c0 37 15 72 64 109c-147 29 -243 149 -243 297c0 171 133 306 304 306c174 0 301 -128 301 -301v-51h-476c19 -83 84 -138 180 -138c76 0 134 40 162 103l111 -64c-37 -68 -94 -120 -173 -144c-107 -73 -129 -85 -129 -112
c0 -23 20 -31 43 -31c27 0 41 14 60 29l79 -54c-35 -32 -91 -58 -139 -58zM324 478c-81 0 -144 -48 -168 -120h332c-20 79 -80 120 -164 120z" />
    <glyph glyph-name="Ecaron" unicode="&#x11a;" horiz-adv-x="509" 
d="M42 0v730h433v-130h-297v-168h297v-130h-297v-172h297v-130h-433zM215 780l-119 170h102l59 -89l59 89h102l-119 -170h-84z" />
    <glyph glyph-name="ecaron" unicode="&#x11b;" 
d="M329 -12c-184 0 -309 134 -309 303c0 171 133 306 304 306c174 0 301 -128 301 -301v-51h-476c19 -83 84 -138 180 -138c76 0 134 40 162 103l111 -64c-51 -95 -141 -158 -273 -158zM324 478c-81 0 -144 -48 -168 -120h332c-20 79 -80 120 -164 120zM285 640l-119 170
h102l59 -89l59 89h102l-119 -170h-84z" />
    <glyph glyph-name="Gcircumflex" unicode="&#x11c;" horiz-adv-x="780" 
d="M401 -10c-228 0 -379 172 -379 375c0 208 157 375 373 375c151 0 270 -77 332 -187l-120 -72c-46 85 -116 127 -211 127c-136 0 -239 -111 -239 -243c0 -135 102 -243 244 -243c111 0 184 62 211 158h-233v130h379v-54c0 -197 -138 -366 -357 -366zM234 780l119 170h84
l119 -170h-102l-59 89l-59 -89h-102z" />
    <glyph glyph-name="gcircumflex" unicode="&#x11d;" horiz-adv-x="673" 
d="M499 10v68c-43 -56 -112 -90 -191 -90c-141 0 -288 112 -288 304c0 194 142 305 290 305c77 0 145 -34 188 -87v75h135v-570c0 -164 -105 -298 -302 -298c-152 0 -247 71 -300 168l120 73c43 -79 89 -117 182 -117c102 0 166 80 166 169zM330 112c101 0 175 81 175 182
c0 100 -74 180 -175 180c-100 0 -177 -79 -177 -180c0 -102 77 -182 177 -182zM183 645l119 170h84l119 -170h-102l-59 89l-59 -89h-102z" />
    <glyph glyph-name="Gbreve" unicode="&#x11e;" horiz-adv-x="780" 
d="M401 -10c-228 0 -379 172 -379 375c0 208 157 375 373 375c151 0 270 -77 332 -187l-120 -72c-46 85 -116 127 -211 127c-136 0 -239 -111 -239 -243c0 -135 102 -243 244 -243c111 0 184 62 211 158h-233v130h379v-54c0 -197 -138 -366 -357 -366zM394 775
c-110 0 -161 73 -161 170h85c0 -64 27 -93 76 -96c48 3 76 32 76 96h86c0 -97 -61 -170 -162 -170z" />
    <glyph glyph-name="gbreve" unicode="&#x11f;" horiz-adv-x="673" 
d="M499 10v68c-43 -56 -112 -90 -191 -90c-141 0 -288 112 -288 304c0 194 142 305 290 305c77 0 145 -34 188 -87v75h135v-570c0 -164 -105 -298 -302 -298c-152 0 -247 71 -300 168l120 73c43 -79 89 -117 182 -117c102 0 166 80 166 169zM330 112c101 0 175 81 175 182
c0 100 -74 180 -175 180c-100 0 -177 -79 -177 -180c0 -102 77 -182 177 -182zM340 638c-110 0 -161 73 -161 170h85c0 -64 27 -93 76 -96c48 3 76 32 76 96h86c0 -97 -61 -170 -162 -170z" />
    <glyph glyph-name="Gdotaccent" unicode="&#x120;" horiz-adv-x="780" 
d="M401 -10c-228 0 -379 172 -379 375c0 208 157 375 373 375c151 0 270 -77 332 -187l-120 -72c-46 85 -116 127 -211 127c-136 0 -239 -111 -239 -243c0 -135 102 -243 244 -243c111 0 184 62 211 158h-233v130h379v-54c0 -197 -138 -366 -357 -366zM319 849
c0 47 31 79 79 79c49 0 79 -32 79 -79s-30 -78 -79 -78c-51 0 -79 31 -79 78z" />
    <glyph glyph-name="gdotaccent" unicode="&#x121;" horiz-adv-x="673" 
d="M499 10v68c-43 -56 -112 -90 -191 -90c-141 0 -288 112 -288 304c0 194 142 305 290 305c77 0 145 -34 188 -87v75h135v-570c0 -164 -105 -298 -302 -298c-152 0 -247 71 -300 168l120 73c43 -79 89 -117 182 -117c102 0 166 80 166 169zM330 112c101 0 175 81 175 182
c0 100 -74 180 -175 180c-100 0 -177 -79 -177 -180c0 -102 77 -182 177 -182zM249 713c0 47 31 79 79 79c49 0 79 -32 79 -79s-30 -78 -79 -78c-51 0 -79 31 -79 78z" />
    <glyph glyph-name="uni0122" unicode="&#x122;" horiz-adv-x="780" 
d="M401 -10c-228 0 -379 172 -379 375c0 208 157 375 373 375c151 0 270 -77 332 -187l-120 -72c-46 85 -116 127 -211 127c-136 0 -239 -111 -239 -243c0 -135 102 -243 244 -243c111 0 184 62 211 158h-233v130h379v-54c0 -197 -138 -366 -357 -366zM397 -250h-83l34 204
h119z" />
    <glyph glyph-name="uni0123" unicode="&#x123;" horiz-adv-x="673" 
d="M499 10v68c-43 -56 -112 -90 -191 -90c-141 0 -288 112 -288 304c0 194 142 305 290 305c77 0 145 -34 188 -87v75h135v-570c0 -164 -105 -298 -302 -298c-152 0 -247 71 -300 168l120 73c43 -79 89 -117 182 -117c102 0 166 80 166 169zM330 112c101 0 175 81 175 182
c0 100 -74 180 -175 180c-100 0 -177 -79 -177 -180c0 -102 77 -182 177 -182zM362 645h-83l34 204h119z" />
    <glyph glyph-name="Hcircumflex" unicode="&#x124;" horiz-adv-x="636" 
d="M458 0v301h-280v-301h-136v730h136v-299h280v299h136v-730h-136zM156 780l119 170h84l119 -170h-102l-59 89l-59 -89h-102z" />
    <glyph glyph-name="hcircumflex" unicode="&#x125;" horiz-adv-x="619" 
d="M39 0v740h135v-225c40 51 100 82 175 82c147 0 232 -91 232 -250v-347h-138v332c0 92 -44 148 -132 148c-76 0 -136 -57 -136 -159v-321h-136zM-52 776l119 170h84l119 -170h-102l-59 89l-59 -89h-102z" />
    <glyph glyph-name="Hbar" unicode="&#x126;" horiz-adv-x="695" 
d="M14 529v103h57v98h136v-98h280v98h136v-98h57v-103h-57v-529h-136v301h-280v-301h-136v529h-57zM207 529v-98h280v98h-280z" />
    <glyph glyph-name="hbar" unicode="&#x127;" horiz-adv-x="627" 
d="M-11 605v73h58v62h135v-62h63v-73h-63v-90c40 51 100 82 175 82c147 0 232 -91 232 -250v-347h-138v332c0 92 -44 148 -132 148c-76 0 -136 -57 -136 -159v-321h-136v605h-58z" />
    <glyph glyph-name="Itilde" unicode="&#x128;" horiz-adv-x="230" 
d="M47 0v730h136v-730h-136zM31 780h-78c0 81 39 135 104 135c33 0 56 -12 77 -24c19 -13 35 -25 52 -25c19 0 28 15 28 45h78c0 -83 -34 -135 -105 -135c-39 0 -64 18 -87 31c-15 9 -28 17 -43 17c-17 0 -26 -15 -26 -44z" />
    <glyph glyph-name="itilde" unicode="&#x129;" horiz-adv-x="214" 
d="M39 0v585h136v-585h-136zM15 635h-78c0 81 39 135 104 135c33 0 56 -12 77 -24c19 -13 35 -25 52 -25c19 0 28 15 28 45h78c0 -83 -34 -135 -105 -135c-39 0 -64 18 -87 31c-15 9 -28 17 -43 17c-17 0 -26 -15 -26 -44z" />
    <glyph glyph-name="Imacron" unicode="&#x12a;" horiz-adv-x="230" 
d="M47 0v730h136v-730h-136zM-17 780v86h264v-86h-264z" />
    <glyph glyph-name="imacron" unicode="&#x12b;" horiz-adv-x="214" 
d="M39 0v585h136v-585h-136zM-23 635v86h264v-86h-264z" />
    <glyph glyph-name="Ibreve" unicode="&#x12c;" horiz-adv-x="230" 
d="M47 0v730h136v-730h-136zM113 775c-110 0 -161 73 -161 170h85c0 -64 27 -93 76 -96c48 3 76 32 76 96h86c0 -97 -61 -170 -162 -170z" />
    <glyph glyph-name="ibreve" unicode="&#x12d;" horiz-adv-x="214" 
d="M39 0v585h136v-585h-136zM111 629c-110 0 -161 73 -161 170h85c0 -64 27 -93 76 -96c48 3 76 32 76 96h86c0 -97 -61 -170 -162 -170z" />
    <glyph glyph-name="Iogonek" unicode="&#x12e;" horiz-adv-x="230" 
d="M107 -229c-77 0 -131 45 -132 108c-1 52 25 91 72 127v724h136v-730h-4c-76 -47 -105 -87 -105 -111c0 -23 15 -33 38 -33c20 0 37 14 50 30l79 -55c-35 -36 -75 -60 -134 -60z" />
    <glyph glyph-name="iogonek" unicode="&#x12f;" horiz-adv-x="214" 
d="M48 -229c-77 0 -131 45 -132 108c-1 69 46 114 122 163l1 -1v544h136v-585h-55c-76 -47 -105 -87 -105 -111c0 -23 15 -33 38 -33c20 0 37 14 50 30l79 -55c-35 -36 -75 -60 -134 -60zM22 728c0 51 33 85 85 85c53 0 85 -34 85 -85s-32 -84 -85 -84c-55 0 -85 33 -85 84z
" />
    <glyph glyph-name="Idot" unicode="&#x130;" horiz-adv-x="230" 
d="M47 0v730h136v-730h-136zM34 849c0 47 31 79 79 79c49 0 79 -32 79 -79s-30 -78 -79 -78c-51 0 -79 31 -79 78z" />
    <glyph glyph-name="dotlessi" unicode="&#x131;" horiz-adv-x="214" 
d="M39 0v585h136v-585h-136z" />
    <glyph glyph-name="IJ" unicode="&#x132;" horiz-adv-x="495" 
d="M237 0v133h8c60 0 73 10 73 73v524h136v-520c0 -156 -34 -210 -194 -210h-23zM41 0v730h136v-730h-136z" />
    <glyph glyph-name="ij" unicode="&#x133;" horiz-adv-x="434" 
d="M39 -239v127h99c105 0 121 16 121 118v579h136v-580c0 -185 -59 -244 -236 -244h-120zM39 0v585h136v-585h-136zM39 659v163h136v-163h-136zM259 659v163h136v-163h-136z" />
    <glyph glyph-name="Jcircumflex" unicode="&#x134;" horiz-adv-x="501" 
d="M247 -10c-119 0 -204 64 -228 165l134 44c11 -47 45 -82 92 -82c56 0 79 42 79 93v520h136v-508c0 -148 -76 -232 -213 -232zM226 780l119 170h84l119 -170h-102l-59 89l-59 -89h-102z" />
    <glyph glyph-name="jcircumflex" unicode="&#x135;" horiz-adv-x="214" 
d="M-82 -269v127c105 0 121 15 121 118v609h137v-610c0 -186 -59 -244 -239 -244h-19zM-53 635l119 170h84l119 -170h-102l-59 89l-59 -89h-102z" />
    <glyph glyph-name="uni0136" unicode="&#x136;" horiz-adv-x="618" 
d="M450 0l-193 351l-79 -98v-253h-136v730h136v-299l241 299h165l-231 -284l252 -446h-155zM306 -250h-83l34 204h119z" />
    <glyph glyph-name="uni0137" unicode="&#x137;" horiz-adv-x="601" 
d="M39 0v740h135v-437l249 282h162l-226 -253l234 -332h-151l-175 252l-93 -103v-149h-135zM285 -240h-83l34 204h119z" />
    <glyph glyph-name="kgreenlandic" unicode="&#x138;" horiz-adv-x="601" 
d="M442 0l-175 252l-93 -103v-149h-135v585h135v-282l249 282h162l-225 -253l232 -332h-150z" />
    <glyph glyph-name="Lacute" unicode="&#x139;" horiz-adv-x="481" 
d="M42 0v730h136v-600h267v-130h-403zM62 780l115 170h126l-150 -170h-91z" />
    <glyph glyph-name="lacute" unicode="&#x13a;" horiz-adv-x="214" 
d="M62 795l115 170h126l-150 -170h-91zM39 0v740h136v-740h-136z" />
    <glyph glyph-name="uni013B" unicode="&#x13b;" horiz-adv-x="481" 
d="M42 0v730h136v-600h267v-130h-403zM233 -250h-83l34 204h119z" />
    <glyph glyph-name="uni013C" unicode="&#x13c;" horiz-adv-x="214" 
d="M96 -250h-83l34 204h119zM39 0v740h136v-740h-136z" />
    <glyph glyph-name="Lcaron" unicode="&#x13d;" horiz-adv-x="481" 
d="M42 0v730h136v-600h267v-130h-403zM233 559l25 171h109l-51 -171h-83z" />
    <glyph glyph-name="lcaron" unicode="&#x13e;" horiz-adv-x="282" 
d="M37 0v740h136v-740h-136zM195 569l25 171h109l-51 -171h-83z" />
    <glyph glyph-name="Ldot" unicode="&#x13f;" horiz-adv-x="481" 
d="M42 0v730h136v-600h267v-130h-403zM298 360c0 47 31 79 79 79c49 0 79 -32 79 -79s-30 -78 -79 -78c-51 0 -79 31 -79 78z" />
    <glyph glyph-name="ldot" unicode="&#x140;" horiz-adv-x="381" 
d="M39 0v740h136v-740h-136zM217 314c0 47 31 79 79 79c49 0 79 -32 79 -79s-30 -78 -79 -78c-51 0 -79 31 -79 78z" />
    <glyph glyph-name="Lslash" unicode="&#x141;" horiz-adv-x="525" 
d="M17 285v96l69 22v327h136v-284l155 50v-97l-155 -49v-220h267v-130h-403v307z" />
    <glyph glyph-name="lslash" unicode="&#x142;" horiz-adv-x="369" 
d="M29 368v99l86 28v245h135v-201l90 30v-98l-90 -30v-441h-135v396z" />
    <glyph glyph-name="Nacute" unicode="&#x143;" horiz-adv-x="690" 
d="M42 0v730h154l316 -497v497h136v-730h-145l-325 513v-513h-136zM307 780l115 170h126l-150 -170h-91z" />
    <glyph glyph-name="nacute" unicode="&#x144;" horiz-adv-x="618" 
d="M39 0v585h134v-72c39 51 99 84 175 84c147 0 232 -91 232 -250v-347h-137v333c0 91 -44 147 -132 147c-77 0 -137 -56 -137 -159v-321h-135zM258 640l115 170h126l-150 -170h-91z" />
    <glyph glyph-name="uni0145" unicode="&#x145;" horiz-adv-x="690" 
d="M42 0v730h154l316 -497v497h136v-730h-145l-325 513v-513h-136zM332 -250h-83l34 204h119z" />
    <glyph glyph-name="uni0146" unicode="&#x146;" horiz-adv-x="618" 
d="M39 0v585h134v-72c39 51 99 84 175 84c147 0 232 -91 232 -250v-347h-137v333c0 91 -44 147 -132 147c-77 0 -137 -56 -137 -159v-321h-135zM303 -233h-83l34 204h119z" />
    <glyph glyph-name="Ncaron" unicode="&#x147;" horiz-adv-x="690" 
d="M42 0v730h154l316 -497v497h136v-730h-145l-325 513v-513h-136zM305 780l-119 170h102l59 -89l59 89h102l-119 -170h-84z" />
    <glyph glyph-name="ncaron" unicode="&#x148;" horiz-adv-x="618" 
d="M39 0v585h134v-72c39 51 99 84 175 84c147 0 232 -91 232 -250v-347h-137v333c0 91 -44 147 -132 147c-77 0 -137 -56 -137 -159v-321h-135zM277 640l-119 170h102l59 -89l59 89h102l-119 -170h-84z" />
    <glyph glyph-name="Eng" unicode="&#x14a;" horiz-adv-x="690" 
d="M436 -208v133h6c57 0 70 13 70 69v33l-334 494v-521h-136v730h154l316 -466v466h136v-731c0 -156 -51 -207 -192 -207h-20z" />
    <glyph glyph-name="eng" unicode="&#x14b;" horiz-adv-x="618" 
d="M322 -269v127c105 0 121 15 121 118v357c0 91 -44 147 -132 147c-77 0 -137 -56 -137 -159v-321h-135v585h134v-72c39 51 99 84 175 84c147 0 232 -91 232 -250v-372c0 -186 -58 -244 -238 -244h-20z" />
    <glyph glyph-name="Omacron" unicode="&#x14c;" horiz-adv-x="790" 
d="M258 780v86h264v-86h-264zM395 -10c-208 0 -373 167 -373 375c0 207 165 375 373 375s374 -168 374 -375c0 -208 -166 -375 -374 -375zM395 124c133 0 239 108 239 241s-106 241 -239 241s-238 -108 -238 -241s105 -241 238 -241z" />
    <glyph glyph-name="omacron" unicode="&#x14d;" 
d="M193 645v86h264v-86h-264zM323 -12c-169 0 -303 136 -303 304c0 171 134 305 303 305c168 0 303 -134 303 -305c0 -168 -135 -304 -303 -304zM323 115c96 0 170 80 170 177c0 99 -74 178 -170 178c-97 0 -170 -79 -170 -178c0 -97 73 -177 170 -177z" />
    <glyph glyph-name="Obreve" unicode="&#x14e;" horiz-adv-x="790" 
d="M395 -10c-208 0 -373 167 -373 375c0 207 165 375 373 375s374 -168 374 -375c0 -208 -166 -375 -374 -375zM395 124c133 0 239 108 239 241s-106 241 -239 241s-238 -108 -238 -241s105 -241 238 -241zM388 775c-110 0 -161 73 -161 170h85c0 -64 27 -93 76 -96
c48 3 76 32 76 96h86c0 -97 -61 -170 -162 -170z" />
    <glyph glyph-name="obreve" unicode="&#x14f;" 
d="M323 -12c-169 0 -303 136 -303 304c0 171 134 305 303 305c168 0 303 -134 303 -305c0 -168 -135 -304 -303 -304zM323 115c96 0 170 80 170 177c0 99 -74 178 -170 178c-97 0 -170 -79 -170 -178c0 -97 73 -177 170 -177zM321 642c-110 0 -161 73 -161 170h85
c0 -64 27 -93 76 -96c48 3 76 32 76 96h86c0 -97 -61 -170 -162 -170z" />
    <glyph glyph-name="Ohungarumlaut" unicode="&#x150;" horiz-adv-x="790" 
d="M256 780l114 170h120l-150 -170h-84zM422 780l114 170h120l-150 -170h-84zM395 -10c-208 0 -373 167 -373 375c0 207 165 375 373 375s374 -168 374 -375c0 -208 -166 -375 -374 -375zM395 124c133 0 239 108 239 241s-106 241 -239 241s-238 -108 -238 -241
s105 -241 238 -241z" />
    <glyph glyph-name="ohungarumlaut" unicode="&#x151;" 
d="M189 638l114 170h120l-150 -170h-84zM355 638l114 170h120l-150 -170h-84zM323 -12c-169 0 -303 136 -303 304c0 171 134 305 303 305c168 0 303 -134 303 -305c0 -168 -135 -304 -303 -304zM323 115c96 0 170 80 170 177c0 99 -74 178 -170 178
c-97 0 -170 -79 -170 -178c0 -97 73 -177 170 -177z" />
    <glyph glyph-name="OE" unicode="&#x152;" horiz-adv-x="1101" 
d="M634 0v83c-61 -59 -143 -93 -239 -93c-208 0 -373 167 -373 375c0 207 165 375 373 375c96 0 178 -35 239 -94v84h433v-130h-297v-168h297v-130h-297v-172h297v-130h-433zM395 124c128 0 234 102 239 231v20c-5 128 -111 231 -239 231c-133 0 -238 -108 -238 -241
s105 -241 238 -241z" />
    <glyph glyph-name="oe" unicode="&#x153;" horiz-adv-x="1121" 
d="M323 -12c-169 0 -303 136 -303 304c0 171 134 305 303 305c103 0 186 -46 238 -119c52 72 133 119 237 119c174 0 302 -128 302 -301v-47h-476c16 -85 84 -142 181 -142c76 0 136 43 167 106l113 -49c-51 -107 -150 -176 -281 -176c-112 0 -194 45 -245 117
c-53 -72 -136 -117 -236 -117zM323 115c96 0 171 80 171 177c0 99 -75 178 -171 178c-98 0 -171 -79 -171 -178c0 -97 73 -177 171 -177zM800 478c-81 0 -141 -47 -168 -116h331c-23 76 -83 116 -163 116z" />
    <glyph glyph-name="Racute" unicode="&#x154;" horiz-adv-x="584" 
d="M178 0h-136v730h234c172 0 273 -103 273 -254c0 -88 -43 -170 -123 -213l146 -263h-155l-117 223h-122v-223zM178 348h86c112 0 149 61 149 133c0 75 -45 122 -149 122h-86v-255zM196 780l115 170h126l-150 -170h-91z" />
    <glyph glyph-name="racute" unicode="&#x155;" horiz-adv-x="431" 
d="M39 0v585h134v-87c27 58 77 87 150 87c43 0 76 -10 103 -25l-51 -128c-20 13 -42 23 -81 23c-79 0 -120 -42 -120 -143v-312h-135zM178 635l115 170h126l-150 -170h-91z" />
    <glyph glyph-name="uni0156" unicode="&#x156;" horiz-adv-x="584" 
d="M178 0h-136v730h234c172 0 273 -103 273 -254c0 -88 -43 -170 -123 -213l146 -263h-155l-117 223h-122v-223zM178 348h86c112 0 149 61 149 133c0 75 -45 122 -149 122h-86v-255zM290 -281h-83l34 204h119z" />
    <glyph glyph-name="uni0157" unicode="&#x157;" horiz-adv-x="431" 
d="M39 0v585h134v-87c27 58 77 87 150 87c43 0 76 -10 103 -25l-51 -128c-20 13 -42 23 -81 23c-79 0 -120 -42 -120 -143v-312h-135zM93 -249h-83l34 204h119z" />
    <glyph glyph-name="Rcaron" unicode="&#x158;" horiz-adv-x="584" 
d="M178 0h-136v730h234c172 0 273 -103 273 -254c0 -88 -43 -170 -123 -213l146 -263h-155l-117 223h-122v-223zM178 348h86c112 0 149 61 149 133c0 75 -45 122 -149 122h-86v-255zM250 780l-119 170h102l59 -89l59 89h102l-119 -170h-84z" />
    <glyph glyph-name="rcaron" unicode="&#x159;" horiz-adv-x="431" 
d="M39 0v585h134v-87c27 58 77 87 150 87c43 0 76 -10 103 -25l-51 -128c-20 13 -42 23 -81 23c-79 0 -120 -42 -120 -143v-312h-135zM179 635l-119 170h102l59 -89l59 89h102l-119 -170h-84z" />
    <glyph glyph-name="Sacute" unicode="&#x15a;" horiz-adv-x="563" 
d="M222 780l115 170h126l-150 -170h-91zM288 -10c-131 0 -218 56 -285 131l124 98c37 -64 93 -99 160 -99c72 0 111 47 111 98c0 61 -75 81 -152 105c-99 32 -207 69 -207 208c0 117 102 209 242 209c117 0 186 -45 245 -106l-112 -85c-31 47 -75 70 -132 70
c-67 0 -102 -36 -102 -83c0 -59 69 -76 149 -103c99 -32 211 -76 211 -216c0 -115 -92 -227 -252 -227z" />
    <glyph glyph-name="sacute" unicode="&#x15b;" horiz-adv-x="518" 
d="M205 641l115 170h126l-150 -170h-91zM259 -12c-131 0 -213 50 -260 142l125 60c28 -55 77 -85 141 -85c67 0 100 32 100 71c0 43 -65 51 -137 67c-100 21 -205 53 -205 176c0 94 91 179 230 179c119 0 194 -46 239 -121l-115 -58c-24 41 -68 67 -124 67
c-64 0 -94 -30 -94 -63c0 -39 46 -49 134 -68c96 -19 206 -53 206 -176c0 -82 -73 -191 -240 -191z" />
    <glyph glyph-name="Scircumflex" unicode="&#x15c;" horiz-adv-x="563" 
d="M288 -10c-131 0 -218 56 -285 131l124 98c37 -64 93 -99 160 -99c72 0 111 47 111 98c0 61 -75 81 -152 105c-99 32 -207 69 -207 208c0 117 102 209 242 209c117 0 186 -45 245 -106l-112 -85c-31 47 -75 70 -132 70c-67 0 -102 -36 -102 -83c0 -59 69 -76 149 -103
c99 -32 211 -76 211 -216c0 -115 -92 -227 -252 -227zM116 780l119 170h84l119 -170h-102l-59 89l-59 -89h-102z" />
    <glyph glyph-name="scircumflex" unicode="&#x15d;" horiz-adv-x="518" 
d="M259 -12c-131 0 -213 50 -260 142l125 60c28 -55 77 -85 141 -85c67 0 100 32 100 71c0 43 -65 51 -137 67c-100 21 -205 53 -205 176c0 94 91 179 230 179c119 0 194 -46 239 -121l-115 -58c-24 41 -68 67 -124 67c-64 0 -94 -30 -94 -63c0 -39 46 -49 134 -68
c96 -19 206 -53 206 -176c0 -82 -73 -191 -240 -191zM98 635l119 170h84l119 -170h-102l-59 89l-59 -89h-102z" />
    <glyph glyph-name="Scedilla" unicode="&#x15e;" horiz-adv-x="563" 
d="M273 -240c-53 0 -105 24 -144 59l78 47c23 -19 41 -34 76 -34c29 0 55 14 55 31c0 18 -19 27 -58 27h-50v104c-101 13 -171 63 -227 127l124 98c37 -64 93 -99 160 -99c72 0 111 47 111 98c0 61 -75 81 -152 105c-99 32 -207 69 -207 208c0 117 102 209 242 209
c117 0 186 -45 245 -106l-112 -85c-31 47 -75 70 -132 70c-67 0 -102 -36 -102 -83c0 -59 69 -76 149 -103c99 -32 211 -76 211 -216c0 -109 -82 -215 -226 -226v-44c75 3 115 -31 115 -80c0 -62 -68 -107 -156 -107z" />
    <glyph glyph-name="scedilla" unicode="&#x15f;" horiz-adv-x="518" 
d="M246 -240c-53 0 -105 24 -144 59l78 47c23 -19 41 -34 76 -34c29 0 55 14 55 31c0 18 -19 27 -58 27h-50v102c-99 12 -164 59 -204 138l125 60c28 -55 77 -85 141 -85c67 0 100 32 100 71c0 43 -65 51 -137 67c-100 21 -205 53 -205 176c0 94 91 179 230 179
c119 0 194 -46 239 -121l-115 -58c-24 41 -68 67 -124 67c-64 0 -94 -30 -94 -63c0 -39 46 -49 134 -68c96 -19 206 -53 206 -176c0 -77 -65 -179 -212 -190v-42c75 3 115 -31 115 -80c0 -62 -68 -107 -156 -107z" />
    <glyph glyph-name="Scaron" unicode="&#x160;" horiz-adv-x="563" 
d="M288 -10c-131 0 -218 56 -285 131l124 98c37 -64 93 -99 160 -99c72 0 111 47 111 98c0 61 -75 81 -152 105c-99 32 -207 69 -207 208c0 117 102 209 242 209c117 0 186 -45 245 -106l-112 -85c-31 47 -75 70 -132 70c-67 0 -102 -36 -102 -83c0 -59 69 -76 149 -103
c99 -32 211 -76 211 -216c0 -115 -92 -227 -252 -227zM241 780l-119 170h102l59 -89l59 89h102l-119 -170h-84z" />
    <glyph glyph-name="scaron" unicode="&#x161;" horiz-adv-x="518" 
d="M259 -12c-131 0 -213 50 -260 142l125 60c28 -55 77 -85 141 -85c67 0 100 32 100 71c0 43 -65 51 -137 67c-100 21 -205 53 -205 176c0 94 91 179 230 179c119 0 194 -46 239 -121l-115 -58c-24 41 -68 67 -124 67c-64 0 -94 -30 -94 -63c0 -39 46 -49 134 -68
c96 -19 206 -53 206 -176c0 -82 -73 -191 -240 -191zM216 641l-119 170h102l59 -89l59 89h102l-119 -170h-84z" />
    <glyph glyph-name="uni0162" unicode="&#x162;" horiz-adv-x="598" 
d="M289 -250h-83l34 204h119zM233 0v600h-195v130h527v-130h-196v-600h-136z" />
    <glyph glyph-name="uni0163" unicode="&#x163;" horiz-adv-x="399" 
d="M18 464v121h100v89l136 93v-182h119v-121h-119v-219c0 -102 15 -118 119 -118v-127h-19c-181 0 -236 58 -236 244v220h-100zM228 -243h-83l34 204h119z" />
    <glyph glyph-name="Tcaron" unicode="&#x164;" horiz-adv-x="598" 
d="M233 0v600h-195v130h527v-130h-196v-600h-136zM254 780l-119 170h102l59 -89l59 89h102l-119 -170h-84z" />
    <glyph glyph-name="tcaron" unicode="&#x165;" horiz-adv-x="399" 
d="M18 464v121h100v89l136 93v-182h119v-121h-119v-219c0 -102 15 -118 119 -118v-127h-19c-181 0 -236 58 -236 244v220h-100zM297 634l25 171h109l-51 -171h-83z" />
    <glyph glyph-name="Tbar" unicode="&#x166;" horiz-adv-x="598" 
d="M108 303v130h125v167h-195v130h527v-130h-196v-167h120v-130h-120v-303h-136v303h-125z" />
    <glyph glyph-name="tbar" unicode="&#x167;" horiz-adv-x="399" 
d="M18 464v121h100v89l136 93v-182h119v-121h-119v-103h119v-111h-119v-5c0 -102 15 -118 119 -118v-127h-19c-181 0 -236 58 -236 244v6h-100v111h100v103h-100z" />
    <glyph glyph-name="Utilde" unicode="&#x168;" horiz-adv-x="608" 
d="M304 -10c-152 0 -263 91 -263 262v478h136v-486c0 -72 54 -128 126 -128c71 0 128 56 128 128v486h136v-478c0 -171 -112 -262 -263 -262zM204 780h-78c0 81 39 135 104 135c33 0 56 -12 77 -24c19 -13 35 -25 52 -25c19 0 28 15 28 45h78c0 -83 -34 -135 -105 -135
c-39 0 -64 18 -87 31c-15 9 -28 17 -43 17c-17 0 -26 -15 -26 -44z" />
    <glyph glyph-name="utilde" unicode="&#x169;" horiz-adv-x="608" 
d="M569 585v-585h-134v67c-37 -49 -93 -79 -168 -79c-140 0 -225 91 -225 250v347h137v-333c0 -91 40 -147 125 -147c75 0 130 56 130 159v321h135zM219 634h-78c0 81 39 135 104 135c33 0 56 -12 77 -24c19 -13 35 -25 52 -25c19 0 28 15 28 45h78
c0 -83 -34 -135 -105 -135c-39 0 -64 18 -87 31c-15 9 -28 17 -43 17c-17 0 -26 -15 -26 -44z" />
    <glyph glyph-name="Umacron" unicode="&#x16a;" horiz-adv-x="608" 
d="M304 -10c-152 0 -263 91 -263 262v478h136v-486c0 -72 54 -128 126 -128c71 0 128 56 128 128v486h136v-478c0 -171 -112 -262 -263 -262zM172 780v86h264v-86h-264z" />
    <glyph glyph-name="umacron" unicode="&#x16b;" horiz-adv-x="608" 
d="M569 585v-585h-134v67c-37 -49 -93 -79 -168 -79c-140 0 -225 91 -225 250v347h137v-333c0 -91 40 -147 125 -147c75 0 130 56 130 159v321h135zM174 639v86h264v-86h-264z" />
    <glyph glyph-name="Ubreve" unicode="&#x16c;" horiz-adv-x="608" 
d="M304 -10c-152 0 -263 91 -263 262v478h136v-486c0 -72 54 -128 126 -128c71 0 128 56 128 128v486h136v-478c0 -171 -112 -262 -263 -262zM308 775c-110 0 -161 73 -161 170h85c0 -64 27 -93 76 -96c48 3 76 32 76 96h86c0 -97 -61 -170 -162 -170z" />
    <glyph glyph-name="ubreve" unicode="&#x16d;" horiz-adv-x="608" 
d="M569 585v-585h-134v67c-37 -49 -93 -79 -168 -79c-140 0 -225 91 -225 250v347h137v-333c0 -91 40 -147 125 -147c75 0 130 56 130 159v321h135zM309 623c-110 0 -161 73 -161 170h85c0 -64 27 -93 76 -96c48 3 76 32 76 96h86c0 -97 -61 -170 -162 -170z" />
    <glyph glyph-name="Uring" unicode="&#x16e;" horiz-adv-x="608" 
d="M302 729c-64 0 -116 52 -116 116c0 67 52 118 116 118c65 0 117 -51 117 -118c0 -64 -52 -116 -117 -116zM302 806c23 0 41 18 41 39c0 23 -18 41 -41 41s-40 -18 -40 -41c0 -21 17 -39 40 -39zM304 -10c-152 0 -263 91 -263 262v478h136v-486c0 -72 54 -128 126 -128
c71 0 128 56 128 128v486h136v-478c0 -171 -112 -262 -263 -262z" />
    <glyph glyph-name="uring" unicode="&#x16f;" horiz-adv-x="608" 
d="M569 585v-585h-134v67c-37 -49 -93 -79 -168 -79c-140 0 -225 91 -225 250v347h137v-333c0 -91 40 -147 125 -147c75 0 130 56 130 159v321h135zM305 599c-64 0 -116 52 -116 116c0 67 52 118 116 118c65 0 117 -51 117 -118c0 -64 -52 -116 -117 -116zM305 676
c23 0 41 18 41 39c0 23 -18 41 -41 41s-40 -18 -40 -41c0 -21 17 -39 40 -39z" />
    <glyph glyph-name="Uhungarumlaut" unicode="&#x170;" horiz-adv-x="608" 
d="M304 -10c-152 0 -263 91 -263 262v478h136v-486c0 -72 54 -128 126 -128c71 0 128 56 128 128v486h136v-478c0 -171 -112 -262 -263 -262zM161 780l114 170h120l-150 -170h-84zM327 780l114 170h120l-150 -170h-84z" />
    <glyph glyph-name="uhungarumlaut" unicode="&#x171;" horiz-adv-x="608" 
d="M569 585v-585h-134v67c-37 -49 -93 -79 -168 -79c-140 0 -225 91 -225 250v347h137v-333c0 -91 40 -147 125 -147c75 0 130 56 130 159v321h135zM328 635l114 170h120l-150 -170h-84zM162 635l114 170h120l-150 -170h-84z" />
    <glyph glyph-name="Uogonek" unicode="&#x172;" horiz-adv-x="608" 
d="M316 -222c-87 0 -144 48 -144 109c0 37 14 71 65 110c-117 23 -196 110 -196 255v478h136v-486c0 -72 54 -128 126 -128c71 0 128 56 128 128v486h136v-478c0 -135 -65 -215 -164 -247c-109 -72 -130 -87 -130 -113c0 -23 20 -31 43 -31c27 0 41 14 60 29l79 -54
c-35 -32 -91 -58 -139 -58z" />
    <glyph glyph-name="uogonek" unicode="&#x173;" horiz-adv-x="608" 
d="M569 585v-585c-76 -47 -105 -87 -105 -111c0 -23 15 -33 38 -33c20 0 37 14 50 30l79 -55c-35 -36 -75 -60 -134 -60c-77 0 -131 45 -132 108c-1 52 25 89 70 125v63c-37 -49 -93 -79 -168 -79c-140 0 -225 91 -225 250v347h137v-333c0 -91 40 -147 125 -147
c75 0 130 56 130 159v321h135z" />
    <glyph glyph-name="Wcircumflex" unicode="&#x174;" horiz-adv-x="1023" 
d="M222 0l-208 730h142l138 -511l153 511h134l152 -509l137 509h137l-206 -730h-135l-153 515l-153 -515h-138zM350 780l119 170h84l119 -170h-102l-59 89l-59 -89h-102z" />
    <glyph glyph-name="wcircumflex" unicode="&#x175;" horiz-adv-x="995" 
d="M213 0l-195 585h138l129 -403l147 403h134l144 -404l134 404h137l-205 -585h-130l-148 405l-152 -405h-133zM336 634l119 170h84l119 -170h-102l-59 89l-59 -89h-102z" />
    <glyph glyph-name="Ycircumflex" unicode="&#x176;" horiz-adv-x="629" 
d="M245 0v346l-232 384h150l151 -253l152 253h150l-235 -387v-343h-136zM153 780l119 170h84l119 -170h-102l-59 89l-59 -89h-102z" />
    <glyph glyph-name="ycircumflex" unicode="&#x177;" horiz-adv-x="618" 
d="M123 -270l123 299l-240 556h144l163 -394l154 394h142l-349 -855h-137zM148 635l119 170h84l119 -170h-102l-59 89l-59 -89h-102z" />
    <glyph glyph-name="Ydieresis" unicode="&#x178;" horiz-adv-x="629" 
d="M245 0v346l-232 384h150l151 -253l152 253h150l-235 -387v-343h-136zM146 849c0 43 28 72 72 72c45 0 72 -29 72 -72s-27 -71 -72 -71s-72 28 -72 71zM337 849c0 43 28 72 72 72s72 -29 72 -72s-28 -71 -72 -71c-47 0 -72 28 -72 71z" />
    <glyph glyph-name="Zacute" unicode="&#x179;" horiz-adv-x="556" 
d="M36 0v125l323 475h-312v130h472v-124l-323 -476h323v-130h-483zM222 780l115 170h126l-150 -170h-91z" />
    <glyph glyph-name="zacute" unicode="&#x17a;" horiz-adv-x="577" 
d="M28 0v123l340 342h-333v120h509v-123l-340 -342h346v-120h-522zM241 635l115 170h126l-150 -170h-91z" />
    <glyph glyph-name="Zdotaccent" unicode="&#x17b;" horiz-adv-x="556" 
d="M36 0v125l323 475h-312v130h472v-124l-323 -476h323v-130h-483zM203 849c0 47 31 79 79 79c49 0 79 -32 79 -79s-30 -78 -79 -78c-51 0 -79 31 -79 78z" />
    <glyph glyph-name="zdotaccent" unicode="&#x17c;" horiz-adv-x="577" 
d="M28 0v123l340 342h-333v120h509v-123l-340 -342h346v-120h-522zM218 704c0 47 31 79 79 79c49 0 79 -32 79 -79s-30 -78 -79 -78c-51 0 -79 31 -79 78z" />
    <glyph glyph-name="Zcaron" unicode="&#x17d;" horiz-adv-x="556" 
d="M36 0v125l323 475h-312v130h472v-124l-323 -476h323v-130h-483zM241 780l-119 170h102l59 -89l59 89h102l-119 -170h-84z" />
    <glyph glyph-name="zcaron" unicode="&#x17e;" horiz-adv-x="577" 
d="M28 0v123l340 342h-333v120h509v-123l-340 -342h346v-120h-522zM255 635l-119 170h102l59 -89l59 89h102l-119 -170h-84z" />
    <glyph glyph-name="florin" unicode="&#x192;" horiz-adv-x="588" 
d="M48 305v120h191l25 89c45 165 131 216 269 216h10v-125c-91 0 -120 -19 -142 -92l-25 -88h165v-120h-199l-25 -89c-45 -159 -115 -216 -249 -216h-22v125c81 0 115 23 134 92l25 88h-157z" />
    <glyph glyph-name="Aringacute" unicode="&#x1fa;" horiz-adv-x="687" 
d="M15 0l246 691c-19 20 -31 48 -31 79c0 67 52 118 116 118c65 0 117 -51 117 -118c0 -33 -12 -61 -36 -84l245 -686h-142l-45 130h-283l-45 -130h-142zM344 536l-96 -276h192zM299 930l115 170h126l-150 -170h-91zM346 731c23 0 41 18 41 39c0 23 -18 41 -41 41
s-40 -18 -40 -41c0 -21 17 -39 40 -39z" />
    <glyph glyph-name="aringacute" unicode="&#x1fb;" horiz-adv-x="671" 
d="M308 -12c-141 0 -288 112 -288 304c0 150 85 251 192 288c-9 17 -14 36 -14 56c0 67 52 118 116 118c65 0 117 -51 117 -118c0 -21 -6 -41 -17 -60c34 -14 62 -34 84 -61v70h135v-585h-135v76c-43 -55 -113 -88 -190 -88zM330 112c101 0 175 81 175 182
c0 100 -74 180 -175 180c-100 0 -177 -79 -177 -180c0 -102 77 -182 177 -182zM267 788l115 170h126l-150 -170h-91zM310 597h4c23 0 41 18 41 39c0 23 -18 41 -41 41s-40 -18 -40 -41c0 -20 16 -38 36 -39z" />
    <glyph glyph-name="AEacute" unicode="&#x1fc;" horiz-adv-x="938" 
d="M13 0l333 730h558v-130h-386l42 -168h344v-130h-311l43 -172h268v-130h-378l-32 129h-281l-58 -129h-142zM395 534l-126 -279h194zM490 780l115 170h126l-150 -170h-91z" />
    <glyph glyph-name="aeacute" unicode="&#x1fd;" horiz-adv-x="1035" 
d="M719 -12c-113 0 -198 47 -250 123c-40 -67 -129 -123 -239 -123c-147 0 -212 71 -212 166c0 109 83 157 193 184c98 26 196 39 196 89c0 35 -36 63 -108 63c-97 0 -141 -50 -141 -110v-3h-124v2c0 139 95 218 259 218c96 0 170 -29 210 -85c53 53 126 85 210 85
c172 0 302 -128 302 -301v-47h-477c16 -85 82 -142 181 -142c76 0 138 43 166 106l114 -49c-49 -107 -149 -176 -280 -176zM237 100c97 0 167 87 175 135c0 2 1 54 -2 59c-7 -19 -58 -35 -134 -52c-83 -19 -123 -37 -123 -84c0 -35 24 -58 84 -58zM713 478
c-80 0 -139 -47 -166 -116h330c-23 76 -83 116 -164 116zM469 638l115 170h126l-150 -170h-91z" />
    <glyph glyph-name="Oslashacute" unicode="&#x1fe;" horiz-adv-x="790" 
d="M24 0l92 114c-60 68 -94 154 -94 251c0 207 165 375 373 375c68 0 130 -19 186 -50l33 40h157l-95 -117c59 -67 93 -152 93 -248c0 -208 -166 -375 -374 -375c-68 0 -129 17 -184 48l-30 -38h-157zM157 365c0 -55 17 -104 46 -144l292 362c-32 15 -65 23 -100 23
c-133 0 -238 -108 -238 -241zM395 124c133 0 239 108 239 241c0 52 -17 101 -45 140l-291 -361c30 -13 62 -20 97 -20zM333 780l115 170h126l-150 -170h-91z" />
    <glyph glyph-name="oslashacute" unicode="&#x1ff;" 
d="M323 -12c-53 0 -102 13 -145 36l-19 -24h-139l73 92c-47 53 -73 123 -73 200c0 171 134 305 303 305c52 0 100 -13 143 -36l19 24h139l-73 -92c47 -53 75 -124 75 -201c0 -168 -135 -304 -303 -304zM323 115c96 0 171 80 171 177c0 35 -9 67 -27 96l-207 -261
c19 -8 40 -12 63 -12zM152 292c0 -35 8 -66 25 -94l207 260c-19 8 -39 12 -61 12c-98 0 -171 -79 -171 -178zM278 640l115 170h126l-150 -170h-91z" />
    <glyph glyph-name="uni0218" unicode="&#x218;" horiz-adv-x="563" 
d="M270 -249h-83l34 204h119zM288 -10c-131 0 -218 56 -285 131l124 98c37 -64 93 -99 160 -99c72 0 111 47 111 98c0 61 -75 81 -152 105c-99 32 -207 69 -207 208c0 117 102 209 242 209c117 0 186 -45 245 -106l-112 -85c-31 47 -75 70 -132 70c-67 0 -102 -36 -102 -83
c0 -59 69 -76 149 -103c99 -32 211 -76 211 -216c0 -115 -92 -227 -252 -227z" />
    <glyph glyph-name="uni0219" unicode="&#x219;" horiz-adv-x="518" 
d="M248 -254h-83l34 204h119zM259 -12c-131 0 -213 50 -260 142l125 60c28 -55 77 -85 141 -85c67 0 100 32 100 71c0 43 -65 51 -137 67c-100 21 -205 53 -205 176c0 94 91 179 230 179c119 0 194 -46 239 -121l-115 -58c-24 41 -68 67 -124 67c-64 0 -94 -30 -94 -63
c0 -39 46 -49 134 -68c96 -19 206 -53 206 -176c0 -82 -73 -191 -240 -191z" />
    <glyph glyph-name="uni0237" unicode="&#x237;" horiz-adv-x="214" 
d="M-82 -269v127c105 0 121 15 121 118v609h137v-610c0 -186 -59 -244 -239 -244h-19z" />
    <glyph glyph-name="circumflex" unicode="&#x2c6;" horiz-adv-x="472" 
d="M75 550l119 170h84l119 -170h-102l-59 89l-59 -89h-102z" />
    <glyph glyph-name="caron" unicode="&#x2c7;" horiz-adv-x="472" 
d="M193 550l-119 170h102l59 -89l59 89h102l-119 -170h-84z" />
    <glyph glyph-name="breve" unicode="&#x2d8;" horiz-adv-x="472" 
d="M235 545c-110 0 -161 73 -161 170h85c0 -64 27 -93 76 -96c48 3 76 32 76 96h86c0 -97 -61 -170 -162 -170z" />
    <glyph glyph-name="dotaccent" unicode="&#x2d9;" horiz-adv-x="473" 
d="M147 619c0 47 31 79 79 79c49 0 79 -32 79 -79s-30 -78 -79 -78c-51 0 -79 31 -79 78z" />
    <glyph glyph-name="ring" unicode="&#x2da;" horiz-adv-x="472" 
d="M235 546c-64 0 -116 52 -116 116c0 67 52 118 116 118c65 0 117 -51 117 -118c0 -64 -52 -116 -117 -116zM235 623c23 0 41 18 41 39c0 23 -18 41 -41 41s-40 -18 -40 -41c0 -21 17 -39 40 -39z" />
    <glyph glyph-name="ogonek" unicode="&#x2db;" horiz-adv-x="472" 
d="M232 -227c-87 0 -144 48 -144 109c0 52 33 101 150 160l81 -42c-109 -72 -130 -87 -130 -113c0 -23 20 -31 43 -31c27 0 41 14 60 29l79 -54c-35 -32 -91 -58 -139 -58z" />
    <glyph glyph-name="tilde" unicode="&#x2dc;" horiz-adv-x="472" 
d="M142 550h-78c0 81 39 135 104 135c33 0 56 -12 77 -24c19 -13 35 -25 52 -25c19 0 28 15 28 45h78c0 -83 -34 -135 -105 -135c-39 0 -64 18 -87 31c-15 9 -28 17 -43 17c-17 0 -26 -15 -26 -44z" />
    <glyph glyph-name="hungarumlaut" unicode="&#x2dd;" horiz-adv-x="472" 
d="M36 550l114 170h120l-150 -170h-84zM202 550l114 170h120l-150 -170h-84z" />
    <glyph glyph-name="uni0328" unicode="&#x328;" horiz-adv-x="472" 
d="M248 -229c-77 0 -131 45 -132 108c-1 69 46 114 122 163l82 -42c-76 -47 -105 -87 -105 -111c0 -23 15 -33 38 -33c20 0 37 14 50 30l79 -55c-35 -36 -75 -60 -134 -60z" />
    <glyph glyph-name="pi" unicode="&#x3c0;" horiz-adv-x="779" 
d="M36 600v130h706v-130h-129v-394c0 -59 7 -69 64 -69h65v-137h-103c-136 0 -162 70 -162 201l1 399h-184v-600h-136v600h-122z" />
    <glyph glyph-name="pi" unicode="&#x3d6;" horiz-adv-x="779" 
d="M36 600v130h706v-130h-129v-394c0 -59 7 -69 64 -69h65v-137h-103c-136 0 -162 70 -162 201l1 399h-184v-600h-136v600h-122z" />
    <glyph glyph-name="uni0E3F" unicode="&#xe3f;" horiz-adv-x="489" 
d="M36 61v596h178v73h69v-74c119 -8 182 -64 182 -167c0 -56 -25 -95 -66 -120c45 -27 71 -68 71 -128c1 -113 -71 -168 -187 -179v-62h-69v61h-178zM170 305v-124h44v124h-44zM170 538v-111h44v111h-44zM334 245c0 31 -15 50 -51 57v-118c32 8 51 29 51 61zM332 485
c0 28 -16 45 -49 51v-107c33 7 49 25 49 56z" />
    <glyph glyph-name="Wgrave" unicode="&#x1e80;" horiz-adv-x="1023" 
d="M222 0l-208 730h142l138 -511l153 511h134l152 -509l137 509h137l-206 -730h-135l-153 515l-153 -515h-138zM462 780l-150 170h127l114 -170h-91z" />
    <glyph glyph-name="wgrave" unicode="&#x1e81;" horiz-adv-x="995" 
d="M213 0l-195 585h138l129 -403l147 403h134l144 -404l134 404h137l-205 -585h-130l-148 405l-152 -405h-133zM454 635l-150 170h127l114 -170h-91z" />
    <glyph glyph-name="Wacute" unicode="&#x1e82;" horiz-adv-x="1023" 
d="M222 0l-208 730h142l138 -511l153 511h134l152 -509l137 509h137l-206 -730h-135l-153 515l-153 -515h-138zM463 780l115 170h126l-150 -170h-91z" />
    <glyph glyph-name="wacute" unicode="&#x1e83;" horiz-adv-x="995" 
d="M213 0l-195 585h138l129 -403l147 403h134l144 -404l134 404h137l-205 -585h-130l-148 405l-152 -405h-133zM452 636l115 170h126l-150 -170h-91z" />
    <glyph glyph-name="Wdieresis" unicode="&#x1e84;" horiz-adv-x="1023" 
d="M222 0l-208 730h142l138 -511l153 511h134l152 -509l137 509h137l-206 -730h-135l-153 515l-153 -515h-138zM345 849c0 43 28 72 72 72c45 0 72 -29 72 -72s-27 -71 -72 -71s-72 28 -72 71zM536 849c0 43 28 72 72 72s72 -29 72 -72s-28 -71 -72 -71c-47 0 -72 28 -72 71
z" />
    <glyph glyph-name="wdieresis" unicode="&#x1e85;" horiz-adv-x="995" 
d="M213 0l-195 585h138l129 -403l147 403h134l144 -404l134 404h137l-205 -585h-130l-148 405l-152 -405h-133zM334 702c0 43 28 72 72 72c45 0 72 -29 72 -72s-27 -71 -72 -71s-72 28 -72 71zM525 702c0 43 28 72 72 72s72 -29 72 -72s-28 -71 -72 -71c-47 0 -72 28 -72 71
z" />
    <glyph glyph-name="Ygrave" unicode="&#x1ef2;" horiz-adv-x="629" 
d="M245 0v346l-232 384h150l151 -253l152 253h150l-235 -387v-343h-136zM266 780l-150 170h127l114 -170h-91z" />
    <glyph glyph-name="ygrave" unicode="&#x1ef3;" horiz-adv-x="618" 
d="M123 -270l123 299l-240 556h144l163 -394l154 394h142l-349 -855h-137zM265 637l-150 170h127l114 -170h-91z" />
    <glyph glyph-name="figuredash" unicode="&#x2012;" horiz-adv-x="623" 
d="M36 197v115h551v-115h-551z" />
    <glyph glyph-name="endash" unicode="&#x2013;" horiz-adv-x="473" 
d="M36 197v115h401v-115h-401z" />
    <glyph glyph-name="emdash" unicode="&#x2014;" horiz-adv-x="673" 
d="M36 197v115h601v-115h-601z" />
    <glyph glyph-name="uni2015" unicode="&#x2015;" horiz-adv-x="973" 
d="M36 197v115h901v-115h-901z" />
    <glyph glyph-name="uni2016" unicode="&#x2016;" horiz-adv-x="406" 
d="M36 -230v960h136v-960h-136zM234 -230v960h136v-960h-136z" />
    <glyph glyph-name="quoteleft" unicode="&#x2018;" horiz-adv-x="207" 
d="M142 730l34 -204h-83l-70 204h119z" />
    <glyph glyph-name="quoteright" unicode="&#x2019;" horiz-adv-x="207" 
d="M111 526h-83l34 204h119z" />
    <glyph glyph-name="quotesinglbase" unicode="&#x201a;" horiz-adv-x="207" 
d="M105 -117h-83l34 204h119z" />
    <glyph glyph-name="quotereversed" unicode="&#x201b;" horiz-adv-x="207" 
d="M111 526h-83l34 204h119z" />
    <glyph glyph-name="quotedblleft" unicode="&#x201c;" horiz-adv-x="368" 
d="M145 730l35 -204h-83l-70 204h118zM306 730l35 -204h-84l-69 204h118z" />
    <glyph glyph-name="quotedblright" unicode="&#x201d;" horiz-adv-x="368" 
d="M111 526h-83l34 204h119zM272 526h-83l34 204h119z" />
    <glyph glyph-name="quotedblbase" unicode="&#x201e;" horiz-adv-x="368" 
d="M105 -117h-83l34 204h119zM266 -117h-83l34 204h119z" />
    <glyph glyph-name="uni201F" unicode="&#x201f;" horiz-adv-x="368" 
d="M111 526h-83l34 204h119zM272 526h-83l34 204h119z" />
    <glyph glyph-name="dagger" unicode="&#x2020;" horiz-adv-x="526" 
d="M36 379v121h159v230h136v-230h158v-121h-158v-379h-136v379h-159z" />
    <glyph glyph-name="daggerdbl" unicode="&#x2021;" horiz-adv-x="526" 
d="M36 435v120h159v175h136v-175h158v-120h-158v-131h158v-120h-158v-184h-136v184h-159v120h159v131h-159z" />
    <glyph glyph-name="bullet" unicode="&#x2022;" horiz-adv-x="395" 
d="M198 144c-60 0 -111 51 -111 111s51 111 111 111s111 -51 111 -111s-51 -111 -111 -111z" />
    <glyph glyph-name="ellipsis" unicode="&#x2026;" horiz-adv-x="577" 
d="M33 62c0 44 29 74 74 74c47 0 73 -30 73 -74c0 -43 -27 -73 -74 -73c-45 0 -73 30 -73 73zM215 62c0 44 29 74 74 74c47 0 73 -30 73 -74c0 -43 -27 -73 -74 -73c-45 0 -73 30 -73 73zM397 62c0 44 29 74 74 74c47 0 73 -30 73 -74c0 -43 -27 -73 -74 -73
c-45 0 -73 30 -73 73z" />
    <glyph glyph-name="perthousand" unicode="&#x2030;" horiz-adv-x="1204" 
d="M13 0l627 730h172l-627 -730h-172zM625 -11c-99 0 -179 80 -179 179s80 178 179 178s178 -79 178 -178s-79 -179 -178 -179zM625 103c35 0 64 29 64 65c0 35 -29 65 -64 65c-36 0 -65 -30 -65 -65c0 -36 29 -65 65 -65zM201 383c-99 0 -179 80 -179 179s80 178 179 178
s178 -79 178 -178s-79 -179 -178 -179zM201 496c35 0 65 30 65 66c0 35 -30 65 -65 65s-65 -30 -65 -65c0 -36 30 -66 65 -66zM1003 -11c-99 0 -178 80 -178 179s79 178 178 178s179 -79 179 -178s-80 -179 -179 -179zM1003 103c35 0 65 29 65 65c0 35 -30 65 -65 65
s-65 -30 -65 -65c0 -36 30 -65 65 -65z" />
    <glyph glyph-name="minute" unicode="&#x2032;" horiz-adv-x="207" 
d="M111 526h-83l34 204h119z" />
    <glyph glyph-name="second" unicode="&#x2033;" horiz-adv-x="368" 
d="M111 526h-83l34 204h119zM272 526h-83l34 204h119z" />
    <glyph glyph-name="uni2034" unicode="&#x2034;" horiz-adv-x="468" 
d="M107 500h-37c-11 24 -34 114 -34 146v84h105v-84c0 -34 -24 -123 -34 -146zM252 500h-37c-11 24 -33 114 -33 146v84h105v-84c0 -35 -24 -122 -35 -146zM398 500h-37c-11 24 -34 114 -34 146v84h105v-84c0 -34 -24 -123 -34 -146z" />
    <glyph glyph-name="guilsinglleft" unicode="&#x2039;" horiz-adv-x="275" 
d="M222 95l-169 119v83l169 119v-101l-89 -60l89 -59v-101z" />
    <glyph glyph-name="guilsinglright" unicode="&#x203a;" horiz-adv-x="275" 
d="M53 96v101l89 59l-89 60v101l169 -119v-83z" />
    <glyph glyph-name="fraction" unicode="&#x2044;" horiz-adv-x="704" 
d="M11 0l527 730h156l-527 -730h-156z" />
    <glyph glyph-name="uni2070" unicode="&#x2070;" horiz-adv-x="454" 
d="M226 302c-121 0 -215 97 -215 217s94 217 215 217s217 -97 217 -217s-94 -217 -217 -217zM226 413c61 0 102 47 102 106s-42 106 -102 106s-101 -47 -101 -106s41 -106 101 -106z" />
    <glyph glyph-name="uni2074" unicode="&#x2074;" horiz-adv-x="363" 
d="M183 308v84h-169v99l168 239h105v-243h62v-95h-62v-84h-104zM130 487h53v77z" />
    <glyph glyph-name="uni2075" unicode="&#x2075;" horiz-adv-x="320" 
d="M157 302c-69 0 -124 30 -152 78l108 57c9 -19 23 -29 44 -29c25 0 42 17 42 42c0 24 -17 40 -44 40c-19 0 -36 -12 -43 -27l-102 35l32 232h242v-103h-155l-7 -45c13 5 29 9 49 9c84 0 139 -52 139 -141s-65 -148 -153 -148z" />
    <glyph glyph-name="uni2076" unicode="&#x2076;" horiz-adv-x="352" 
d="M176 302c-97 0 -165 68 -165 156c0 43 20 88 41 123l94 149h129l-76 -119c80 -3 142 -61 142 -153c0 -88 -68 -156 -165 -156zM176 406c31 0 55 23 55 54c0 29 -24 53 -55 53s-52 -23 -52 -54c0 -29 21 -53 52 -53z" />
    <glyph glyph-name="uni2077" unicode="&#x2077;" horiz-adv-x="307" 
d="M28 308l148 318h-162v104h279v-98l-144 -324h-121z" />
    <glyph glyph-name="uni2078" unicode="&#x2078;" horiz-adv-x="328" 
d="M163 302c-84 0 -149 52 -149 140c0 35 13 66 40 91c-19 21 -28 46 -28 76c0 81 57 127 137 127c81 0 139 -46 139 -127c0 -29 -10 -55 -26 -75c23 -23 37 -53 37 -92c0 -88 -65 -140 -150 -140zM163 398c27 0 45 19 45 44c0 23 -18 42 -45 42s-44 -19 -44 -42
c0 -25 17 -44 44 -44zM163 574c24 0 38 15 38 35c0 19 -13 35 -37 35s-37 -16 -37 -35c0 -20 13 -35 36 -35z" />
    <glyph glyph-name="uni2079" unicode="&#x2079;" horiz-adv-x="352" 
d="M78 308l75 120c-78 0 -142 59 -142 152c0 88 68 156 165 156s165 -68 165 -156c0 -43 -18 -88 -41 -123l-94 -149h-128zM176 525c31 0 54 23 54 54s-23 53 -54 53s-53 -22 -53 -53s22 -54 53 -54z" />
    <glyph glyph-name="uni207A" unicode="&#x207a;" horiz-adv-x="247" 
d="M16 473v91h63v61h88v-61h63v-91h-63v-61h-88v61h-63z" />
    <glyph glyph-name="uni207B" unicode="&#x207b;" horiz-adv-x="247" 
d="M16 473v90h214v-90h-214z" />
    <glyph glyph-name="uni207C" unicode="&#x207c;" horiz-adv-x="241" 
d="M14 526v86h213v-86h-213zM14 423v87h213v-87h-213z" />
    <glyph glyph-name="uni207D" unicode="&#x207d;" horiz-adv-x="266" 
d="M240 307l-67 -91c-99 75 -151 170 -151 301s54 225 150 300l68 -91c-72 -53 -105 -124 -105 -209c0 -86 35 -156 105 -210z" />
    <glyph glyph-name="uni207E" unicode="&#x207e;" horiz-adv-x="266" 
d="M94 216l-68 91c70 54 105 124 105 210c0 85 -33 156 -105 209l68 91c96 -75 150 -169 150 -300s-53 -226 -150 -301z" />
    <glyph glyph-name="uni2080" unicode="&#x2080;" horiz-adv-x="454" 
d="M226 -6c-121 0 -215 97 -215 217s94 217 215 217s217 -97 217 -217s-94 -217 -217 -217zM226 105c61 0 102 47 102 106s-42 106 -102 106s-101 -47 -101 -106s41 -106 101 -106z" />
    <glyph glyph-name="uni2081" unicode="&#x2081;" horiz-adv-x="298" 
d="M14 0v104h81v166c-13 -17 -34 -26 -63 -26h-6v107h3c56 0 70 42 70 71h109v-318h78v-104h-272z" />
    <glyph glyph-name="uni2082" unicode="&#x2082;" horiz-adv-x="330" 
d="M14 0v83c0 83 62 125 115 152c40 23 75 39 75 64c0 17 -14 32 -41 32c-31 0 -51 -27 -62 -54l-97 50c31 63 84 101 161 101c92 0 154 -53 154 -128c0 -80 -64 -119 -118 -146c-35 -19 -63 -33 -66 -50h181v-104h-302z" />
    <glyph glyph-name="uni2083" unicode="&#x2083;" horiz-adv-x="325" 
d="M158 -6c-57 0 -116 16 -153 53l85 77c18 -19 38 -28 61 -28c27 0 45 13 45 36s-24 33 -59 33h-44v98h42c35 0 52 12 52 36c0 21 -14 31 -43 31c-23 0 -41 -9 -52 -28l-80 69c33 36 88 57 136 57c93 0 157 -48 157 -125c0 -33 -14 -61 -42 -83c35 -21 52 -51 52 -91
c0 -76 -61 -135 -157 -135z" />
    <glyph glyph-name="uni2084" unicode="&#x2084;" horiz-adv-x="363" 
d="M183 0v84h-169v99l168 239h105v-243h62v-95h-62v-84h-104zM130 179h53v77z" />
    <glyph glyph-name="uni2085" unicode="&#x2085;" horiz-adv-x="320" 
d="M157 -6c-69 0 -124 30 -152 78l108 57c9 -19 23 -29 44 -29c25 0 42 17 42 42c0 24 -17 40 -44 40c-19 0 -36 -12 -43 -27l-102 35l32 232h242v-103h-155l-7 -45c13 5 29 9 49 9c84 0 139 -52 139 -141s-65 -148 -153 -148z" />
    <glyph glyph-name="uni2086" unicode="&#x2086;" horiz-adv-x="352" 
d="M176 -6c-97 0 -165 68 -165 156c0 43 20 88 41 123l94 149h129l-76 -119c80 -3 142 -61 142 -153c0 -88 -68 -156 -165 -156zM176 98c31 0 55 23 55 54c0 29 -24 53 -55 53s-52 -23 -52 -54c0 -29 21 -53 52 -53z" />
    <glyph glyph-name="uni2087" unicode="&#x2087;" horiz-adv-x="307" 
d="M28 0l148 318h-162v104h279v-98l-144 -324h-121z" />
    <glyph glyph-name="uni2088" unicode="&#x2088;" horiz-adv-x="328" 
d="M163 -6c-84 0 -149 52 -149 140c0 35 13 66 40 91c-19 21 -28 46 -28 76c0 81 57 127 137 127c81 0 139 -46 139 -127c0 -29 -10 -55 -26 -75c23 -23 37 -53 37 -92c0 -88 -65 -140 -150 -140zM163 90c27 0 45 19 45 44c0 23 -18 42 -45 42s-44 -19 -44 -42
c0 -25 17 -44 44 -44zM163 266c24 0 38 15 38 35c0 19 -13 35 -37 35s-37 -16 -37 -35c0 -20 13 -35 36 -35z" />
    <glyph glyph-name="uni2089" unicode="&#x2089;" horiz-adv-x="352" 
d="M78 0l75 120c-78 0 -142 59 -142 152c0 88 68 156 165 156s165 -68 165 -156c0 -43 -18 -88 -41 -123l-94 -149h-128zM176 217c31 0 54 23 54 54s-23 53 -54 53s-53 -22 -53 -53s22 -54 53 -54z" />
    <glyph glyph-name="uni208A" unicode="&#x208a;" horiz-adv-x="247" 
d="M16 165v91h63v61h88v-61h63v-91h-63v-61h-88v61h-63z" />
    <glyph glyph-name="uni208B" unicode="&#x208b;" horiz-adv-x="247" 
d="M16 165v90h214v-90h-214z" />
    <glyph glyph-name="uni208C" unicode="&#x208c;" horiz-adv-x="241" 
d="M14 218v86h213v-86h-213zM14 115v87h213v-87h-213z" />
    <glyph glyph-name="uni208D" unicode="&#x208d;" horiz-adv-x="266" 
d="M240 -1l-67 -91c-99 75 -151 170 -151 301s54 225 150 300l68 -91c-72 -53 -105 -124 -105 -209c0 -86 35 -156 105 -210z" />
    <glyph glyph-name="uni208E" unicode="&#x208e;" horiz-adv-x="266" 
d="M94 -92l-68 91c70 54 105 124 105 210c0 85 -33 156 -105 209l68 91c96 -75 150 -169 150 -300s-53 -226 -150 -301z" />
    <glyph glyph-name="colonmonetary" unicode="&#x20a1;" horiz-adv-x="738" 
d="M149 -120h-73l78 192c-84 68 -132 172 -132 293c0 218 164 375 375 375c11 0 19 0 30 -1l42 101h75l-47 -114c15 -3 31 -9 48 -17l54 131h75l-68 -164c46 -31 83 -70 111 -117l-119 -76c-13 23 -27 44 -46 61l-172 -418h14c93 0 162 52 201 123l122 -70
c-67 -115 -175 -189 -320 -189c-25 0 -48 3 -71 6l-47 -116h-74l54 133c-17 7 -33 14 -47 21zM157 365c0 -60 19 -112 54 -155l161 395c-125 -11 -215 -112 -215 -240zM446 601l-181 -439c14 -9 29 -16 46 -22l183 445c-15 7 -31 13 -48 16z" />
    <glyph glyph-name="uni20A2" unicode="&#x20a2;" horiz-adv-x="738" 
d="M397 -10c-226 0 -375 167 -375 375c0 218 164 375 375 375c137 0 256 -72 320 -181l-119 -76c-43 76 -106 123 -201 123c-139 0 -240 -105 -240 -241c0 -101 56 -186 144 -221v296h133v-82c25 52 70 82 138 82h27v-130h-57c-76 0 -107 -38 -107 -133v-48
c80 13 137 64 170 132l122 -67c-64 -127 -183 -204 -330 -204z" />
    <glyph glyph-name="franc" unicode="&#x20a3;" horiz-adv-x="486" 
d="M36 0v730h413v-130h-277v-101h277v-114h-277v-61h277v-115h-277v-209h-136z" />
    <glyph glyph-name="lira" unicode="&#x20a4;" horiz-adv-x="705" 
d="M85 379v98h68c-3 13 -4 29 -4 47c0 126 95 216 231 216c123 0 202 -55 230 -144l-128 -47c-13 49 -47 73 -101 73c-64 0 -104 -45 -104 -96c0 -16 2 -32 5 -49h210v-98h-173l14 -33h159v-98h-126c4 -20 7 -42 7 -65c0 -19 -3 -38 -7 -55c32 -17 61 -30 92 -30
c53 0 72 23 72 82v48h139v-65c0 -103 -47 -173 -177 -173c-71 0 -125 27 -173 56c-35 -36 -81 -57 -130 -57c-88 0 -138 33 -138 104c0 64 51 109 122 109c40 0 77 -13 112 -30c1 2 1 5 1 10c0 22 -5 44 -14 66h-187v98h128c-7 10 -14 21 -21 33h-107zM189 69
c22 0 41 8 58 23c-24 15 -47 24 -68 24c-19 0 -27 -10 -27 -22c0 -15 13 -25 37 -25z" />
    <glyph glyph-name="uni20A6" unicode="&#x20a6;" horiz-adv-x="808" 
d="M30 389v66h90v275h145l153 -275h134v275h136v-275h90v-66h-90v-33h90v-66h-90v-290h-135l-162 290h-135v-290h-136v290h-90v66h90v33h-90zM256 389v-33h98l-19 33h-79zM455 389l19 -33h78v33h-97zM298 455l-42 76v-76h42zM511 290l41 -74v74h-41z" />
    <glyph glyph-name="peseta" unicode="&#x20a7;" horiz-adv-x="1396" 
d="M619 380h-85c-35 -99 -129 -171 -249 -171h-113v-209h-136v730h250c141 0 248 -99 261 -230h72v117l134 74v-191h105v-120h-105v-163c0 -80 11 -92 96 -92h242c48 0 72 13 72 40c0 31 -48 36 -105 44c-83 13 -183 30 -183 142c0 93 78 162 198 159
c117 0 180 -45 217 -114l-118 -51c-15 33 -49 55 -94 55c-47 0 -67 -17 -67 -40c0 -27 49 -33 108 -41c81 -14 178 -37 178 -150c0 -82 -50 -172 -212 -169h-256c-158 0 -210 53 -210 216v164zM277 604h-105v-269h105c81 0 135 60 135 135s-54 134 -135 134z" />
    <glyph glyph-name="uni20A8" unicode="&#x20a8;" horiz-adv-x="987" 
d="M734 -1c-154 0 -354 45 -552 361h68c108 0 146 72 146 126c0 75 -41 117 -146 117h-78v-603h-136v730h229c167 0 268 -108 268 -244c0 -85 -39 -171 -126 -211c109 -128 219 -151 336 -151c60 0 86 16 86 41c0 29 -48 35 -105 43c-83 13 -183 32 -183 143
c0 93 78 162 198 159c117 0 180 -45 217 -114l-118 -51c-15 33 -47 55 -94 55s-67 -17 -67 -40c0 -28 49 -31 108 -42c81 -11 178 -37 178 -149c0 -82 -50 -173 -229 -170z" />
    <glyph glyph-name="uni20A9" unicode="&#x20a9;" horiz-adv-x="1078" 
d="M26 389v66h91l-78 275h142l74 -275h143l83 275h124l82 -275h143l74 275h138l-78 -275h89v-66h-108l-10 -33h118v-66h-136l-82 -290h-134l-87 290h-143l-86 -290h-139l-83 290h-137v66h119l-10 33h-109zM273 389l9 -33h87l10 33h-106zM707 389l10 -33h86l9 33h-105z
M501 389l-10 -33h104l-10 33h-84zM349 290h-49l23 -86zM786 290h-49l26 -86zM565 455l-22 75l-23 -75h45z" />
    <glyph glyph-name="uni20AA" unicode="&#x20aa;" horiz-adv-x="802" 
d="M234 0v550c115 0 136 -16 136 -115v-309h69c153 0 190 46 190 171v433h136v-433c0 -189 -94 -297 -313 -297h-218zM36 0v730h218c219 0 314 -108 314 -297v-135c0 -88 -28 -117 -136 -117v252c0 127 -35 171 -191 171h-69v-604h-136z" />
    <glyph glyph-name="Euro" unicode="&#x20ac;" horiz-adv-x="588" 
d="M31 411v106h91c8 127 108 223 247 223c79 0 142 -30 186 -78l-102 -91c-20 21 -48 35 -84 35c-64 0 -101 -38 -110 -89h224l-18 -106h-208v-92h194l-17 -106h-176c8 -52 43 -88 108 -88c43 0 66 21 85 46l122 -80c-41 -63 -109 -101 -206 -101c-155 0 -241 91 -246 223
h-90v106h90v92h-90z" />
    <glyph glyph-name="uni20AE" unicode="&#x20ae;" horiz-adv-x="598" 
d="M121 300v75l110 45v180h-195v130h526v-130h-195v-124l107 44v-75l-107 -44v-56l107 44v-75l-107 -44v-270h-136v214l-110 -45v75l110 45v56z" />
    <glyph glyph-name="uni20B1" unicode="&#x20b1;" horiz-adv-x="726" 
d="M35 488v66h77v176h250c121 0 214 -74 249 -176h90v-66h-77c1 -7 1 -11 1 -18s0 -12 -1 -15h77v-66h-89c-32 -104 -130 -180 -251 -180h-113v-209h-136v389h-77v66h77v33h-77zM248 335h104c48 0 87 21 110 54h-214v-54zM352 604h-104v-50h211c-24 31 -60 50 -107 50z
M488 470c0 7 -1 11 -1 18h-239v-33h239c0 5 1 10 1 15z" />
    <glyph glyph-name="uni2117" unicode="&#x2117;" horiz-adv-x="790" 
d="M395 -16c-208 0 -373 167 -373 375c0 207 165 375 373 375s374 -168 374 -375c0 -208 -166 -375 -374 -375zM395 88c149 0 268 122 268 271s-119 271 -268 271c-152 0 -265 -122 -265 -271s113 -271 265 -271zM253 165v384h184c81 0 147 -65 147 -148
c0 -80 -62 -148 -146 -148h-72v-88h-113zM418 455h-52v-108h52c31 0 54 26 54 54s-23 54 -54 54z" />
    <glyph glyph-name="uni2120" unicode="&#x2120;" horiz-adv-x="627" 
d="M272 440v290h91l70 -92l75 92h83v-290h-96v141l-64 -72l-63 72v-141h-96zM136 433c-56 0 -96 22 -123 59l82 52c7 -15 26 -29 41 -29c11 0 20 7 20 15c0 29 -133 8 -133 114c0 52 47 92 115 92c48 0 85 -23 108 -54l-73 -46c-10 16 -22 24 -35 24c-15 0 -22 -4 -22 -13
c0 -16 133 -14 133 -111c0 -63 -45 -103 -113 -103z" />
    <glyph glyph-name="trademark" unicode="&#x2122;" horiz-adv-x="650" 
d="M295 440v290h91l70 -91l75 91h83v-290h-96v141l-64 -72l-63 72v-141h-96zM99 440v201h-73v89h239v-89h-71v-201h-95z" />
    <glyph glyph-name="onethird" unicode="&#x2153;" horiz-adv-x="884" 
d="M85 0l527 730h156l-527 -730h-156zM717 -6c-57 0 -116 16 -153 53l85 77c18 -19 38 -28 61 -28c27 0 45 13 45 36s-24 33 -59 33h-44v98h42c35 0 52 12 52 36c0 21 -14 31 -43 31c-23 0 -41 -9 -52 -28l-80 69c33 36 88 57 136 57c93 0 157 -48 157 -125
c0 -33 -14 -61 -42 -83c35 -21 52 -51 52 -91c0 -76 -61 -135 -157 -135zM14 308v104h81v166c-13 -17 -34 -26 -63 -26h-6v107h3c56 0 70 42 70 71h109v-318h78v-104h-272z" />
    <glyph glyph-name="twothirds" unicode="&#x2154;" horiz-adv-x="913" 
d="M114 0l527 730h156l-527 -730h-156zM14 308v83c0 83 62 125 115 152c40 23 75 39 75 64c0 17 -14 32 -41 32c-31 0 -51 -27 -62 -54l-97 50c31 63 84 101 161 101c92 0 154 -53 154 -128c0 -80 -64 -119 -118 -146c-35 -19 -63 -33 -66 -50h181v-104h-302zM746 -6
c-57 0 -116 16 -153 53l85 77c18 -19 38 -28 61 -28c27 0 45 13 45 36s-24 33 -59 33h-44v98h42c35 0 52 12 52 36c0 21 -14 31 -43 31c-23 0 -41 -9 -52 -28l-80 69c33 36 88 57 136 57c93 0 157 -48 157 -125c0 -33 -14 -61 -42 -83c35 -21 52 -51 52 -91
c0 -76 -61 -135 -157 -135z" />
    <glyph glyph-name="uni2155" unicode="&#x2155;" horiz-adv-x="847" 
d="M85 0l527 730h156l-527 -730h-156zM684 -6c-69 0 -124 30 -152 78l108 57c9 -19 23 -29 44 -29c25 0 42 17 42 42c0 24 -17 40 -44 40c-19 0 -36 -12 -43 -27l-102 35l32 232h242v-103h-155l-7 -45c13 5 29 9 49 9c84 0 139 -52 139 -141s-65 -148 -153 -148zM14 308v104
h81v166c-13 -17 -34 -26 -63 -26h-6v107h3c56 0 70 42 70 71h109v-318h78v-104h-272z" />
    <glyph glyph-name="uni2156" unicode="&#x2156;" horiz-adv-x="877" 
d="M114 0l527 730h156l-527 -730h-156zM14 308v83c0 83 62 125 115 152c40 23 75 39 75 64c0 17 -14 32 -41 32c-31 0 -51 -27 -62 -54l-97 50c31 63 84 101 161 101c92 0 154 -53 154 -128c0 -80 -64 -119 -118 -146c-35 -19 -63 -33 -66 -50h181v-104h-302zM713 -6
c-69 0 -124 30 -152 78l108 57c9 -19 23 -29 44 -29c25 0 42 17 42 42c0 24 -17 40 -44 40c-19 0 -36 -12 -43 -27l-102 35l32 232h242v-103h-155l-7 -45c13 5 29 9 49 9c84 0 139 -52 139 -141s-65 -148 -153 -148z" />
    <glyph glyph-name="uni2157" unicode="&#x2157;" horiz-adv-x="854" 
d="M92 0l527 730h156l-527 -730h-156zM691 -6c-69 0 -124 30 -152 78l108 57c9 -19 23 -29 44 -29c25 0 42 17 42 42c0 24 -17 40 -44 40c-19 0 -36 -12 -43 -27l-102 35l32 232h242v-103h-155l-7 -45c13 5 29 9 49 9c84 0 139 -52 139 -141s-65 -148 -153 -148zM158 302
c-57 0 -116 16 -153 53l85 77c18 -19 38 -28 61 -28c27 0 45 13 45 36s-24 33 -59 33h-44v98h42c35 0 52 12 52 36c0 21 -14 31 -43 31c-23 0 -41 -9 -52 -28l-80 69c33 36 88 57 136 57c93 0 157 -48 157 -125c0 -33 -14 -61 -42 -83c35 -21 52 -51 52 -91
c0 -76 -61 -135 -157 -135z" />
    <glyph glyph-name="uni2158" unicode="&#x2158;" horiz-adv-x="848" 
d="M85 0l527 730h156l-527 -730h-156zM685 -6c-69 0 -124 30 -152 78l108 57c9 -19 23 -29 44 -29c25 0 42 17 42 42c0 24 -17 40 -44 40c-19 0 -36 -12 -43 -27l-102 35l32 232h242v-103h-155l-7 -45c13 5 29 9 49 9c84 0 139 -52 139 -141s-65 -148 -153 -148zM183 308v84
h-169v99l168 239h105v-243h62v-95h-62v-84h-104zM130 487h53v77z" />
    <glyph glyph-name="uni2159" unicode="&#x2159;" horiz-adv-x="881" 
d="M85 0l527 730h156l-527 -730h-156zM705 -6c-97 0 -165 68 -165 156c0 43 20 88 41 123l94 149h129l-76 -119c80 -3 142 -61 142 -153c0 -88 -68 -156 -165 -156zM14 308v104h81v166c-13 -17 -34 -26 -63 -26h-6v107h3c56 0 70 42 70 71h109v-318h78v-104h-272zM705 98
c31 0 55 23 55 54c0 29 -24 53 -55 53s-52 -23 -52 -54c0 -29 21 -53 52 -53z" />
    <glyph glyph-name="uni215A" unicode="&#x215a;" horiz-adv-x="878" 
d="M83 0l527 730h156l-527 -730h-156zM702 -6c-97 0 -165 68 -165 156c0 43 20 88 41 123l94 149h129l-76 -119c80 -3 142 -61 142 -153c0 -88 -68 -156 -165 -156zM157 302c-69 0 -124 30 -152 78l108 57c9 -19 23 -29 44 -29c25 0 42 17 42 42c0 24 -17 40 -44 40
c-19 0 -36 -12 -43 -27l-102 35l32 232h242v-103h-155l-7 -45c13 5 29 9 49 9c84 0 139 -52 139 -141s-65 -148 -153 -148zM702 98c31 0 55 23 55 54c0 29 -24 53 -55 53s-52 -23 -52 -54c0 -29 21 -53 52 -53z" />
    <glyph glyph-name="oneeighth" unicode="&#x215b;" horiz-adv-x="856" 
d="M85 0l527 730h156l-527 -730h-156zM691 -6c-84 0 -149 52 -149 140c0 35 13 66 40 91c-19 21 -28 46 -28 76c0 81 57 127 137 127c81 0 139 -46 139 -127c0 -29 -10 -55 -26 -75c23 -23 37 -53 37 -92c0 -88 -65 -140 -150 -140zM14 308v104h81v166
c-13 -17 -34 -26 -63 -26h-6v107h3c56 0 70 42 70 71h109v-318h78v-104h-272zM691 90c27 0 45 19 45 44c0 23 -18 42 -45 42s-44 -19 -44 -42c0 -25 17 -44 44 -44zM691 266c24 0 38 15 38 35c0 19 -13 35 -37 35s-37 -16 -37 -35c0 -20 13 -35 36 -35z" />
    <glyph glyph-name="threeeighths" unicode="&#x215c;" horiz-adv-x="862" 
d="M92 0l527 730h156l-527 -730h-156zM698 -6c-84 0 -149 52 -149 140c0 35 13 66 40 91c-19 21 -28 46 -28 76c0 81 57 127 137 127c81 0 139 -46 139 -127c0 -29 -10 -55 -26 -75c23 -23 37 -53 37 -92c0 -88 -65 -140 -150 -140zM158 302c-57 0 -116 16 -153 53l85 77
c18 -19 38 -28 61 -28c27 0 45 13 45 36s-24 33 -59 33h-44v98h42c35 0 52 12 52 36c0 21 -14 31 -43 31c-23 0 -41 -9 -52 -28l-80 69c33 36 88 57 136 57c93 0 157 -48 157 -125c0 -33 -14 -61 -42 -83c35 -21 52 -51 52 -91c0 -76 -61 -135 -157 -135zM698 90
c27 0 45 19 45 44c0 23 -18 42 -45 42s-44 -19 -44 -42c0 -25 17 -44 44 -44zM698 266c24 0 38 15 38 35c0 19 -13 35 -37 35s-37 -16 -37 -35c0 -20 13 -35 36 -35z" />
    <glyph glyph-name="fiveeighths" unicode="&#x215d;" horiz-adv-x="853" 
d="M83 0l527 730h156l-527 -730h-156zM688 -6c-84 0 -149 52 -149 140c0 35 13 66 40 91c-19 21 -28 46 -28 76c0 81 57 127 137 127c81 0 139 -46 139 -127c0 -29 -10 -55 -26 -75c23 -23 37 -53 37 -92c0 -88 -65 -140 -150 -140zM157 302c-69 0 -124 30 -152 78l108 57
c9 -19 23 -29 44 -29c25 0 42 17 42 42c0 24 -17 40 -44 40c-19 0 -36 -12 -43 -27l-102 35l32 232h242v-103h-155l-7 -45c13 5 29 9 49 9c84 0 139 -52 139 -141s-65 -148 -153 -148zM688 90c27 0 45 19 45 44c0 23 -18 42 -45 42s-44 -19 -44 -42c0 -25 17 -44 44 -44z
M688 266c24 0 38 15 38 35c0 19 -13 35 -37 35s-37 -16 -37 -35c0 -20 13 -35 36 -35z" />
    <glyph glyph-name="seveneighths" unicode="&#x215e;" horiz-adv-x="827" 
d="M57 0l527 730h156l-527 -730h-156zM662 -6c-84 0 -149 52 -149 140c0 35 13 66 40 91c-19 21 -28 46 -28 76c0 81 57 127 137 127c81 0 139 -46 139 -127c0 -29 -10 -55 -26 -75c23 -23 37 -53 37 -92c0 -88 -65 -140 -150 -140zM28 308l148 318h-162v104h279v-98
l-144 -324h-121zM662 90c27 0 45 19 45 44c0 23 -18 42 -45 42s-44 -19 -44 -42c0 -25 17 -44 44 -44zM662 266c24 0 38 15 38 35c0 19 -13 35 -37 35s-37 -16 -37 -35c0 -20 13 -35 36 -35z" />
    <glyph glyph-name="uni215F" unicode="&#x215f;" horiz-adv-x="779" 
d="M85 0l527 730h156l-527 -730h-156zM14 308v104h81v166c-13 -17 -34 -26 -63 -26h-6v107h3c56 0 70 42 70 71h109v-318h78v-104h-272z" />
    <glyph glyph-name="arrowleft" unicode="&#x2190;" horiz-adv-x="896" 
d="M419 142l-110 -76c-49 105 -137 205 -236 268v57c98 66 194 200 215 274l122 -65c-27 -71 -76 -127 -128 -170h523v-130h-522c53 -35 101 -94 136 -158z" />
    <glyph glyph-name="arrowup" unicode="&#x2191;" horiz-adv-x="896" 
d="M374 0v522c-43 -52 -101 -102 -170 -127l-64 121c73 21 207 117 273 215h53c66 -98 198 -194 272 -215l-64 -121c-69 25 -126 74 -169 125v-520h-131z" />
    <glyph glyph-name="arrowright" unicode="&#x2192;" horiz-adv-x="896" 
d="M569 66l-110 76c33 64 83 123 135 158h-521v130h523c-52 43 -101 99 -128 170l122 65c21 -74 117 -208 215 -274v-57c-99 -63 -187 -163 -236 -268z" />
    <glyph glyph-name="arrowdown" unicode="&#x2193;" horiz-adv-x="896" 
d="M465 -1h-53c-66 98 -198 194 -272 215l64 122c69 -27 126 -75 169 -127v521h131v-522c43 52 99 101 170 128l64 -122c-73 -21 -207 -117 -273 -215z" />
    <glyph glyph-name="uni2196" unicode="&#x2196;" horiz-adv-x="896" 
d="M660 60l-370 370c8 -68 2 -142 -30 -210l-131 40c38 70 63 226 42 346l37 37c117 -24 275 2 345 40l39 -131c-68 -31 -140 -37 -208 -30l368 -370z" />
    <glyph glyph-name="uni2197" unicode="&#x2197;" horiz-adv-x="896" 
d="M129 152l370 370c-68 -7 -142 -1 -210 30l40 131c68 -37 229 -62 346 -41l37 -37c-24 -117 2 -278 40 -345l-131 -40c-31 68 -37 141 -30 209l-370 -369z" />
    <glyph glyph-name="uni2198" unicode="&#x2198;" horiz-adv-x="896" 
d="M740 164l-36 -37c-118 24 -276 -3 -345 -40l-40 131c68 31 140 37 208 30l-368 370l92 92l370 -370c-7 68 -1 142 30 210l131 -40c-37 -69 -63 -228 -42 -346z" />
    <glyph glyph-name="uni2199" unicode="&#x2199;" horiz-adv-x="896" 
d="M593 189l-39 -131c-70 38 -228 64 -346 42l-37 37c24 115 -4 278 -41 345l131 39c31 -68 37 -142 30 -209l370 369l92 -92l-370 -369c68 7 142 0 210 -31z" />
    <glyph glyph-name="partialdiff" unicode="&#x2202;" horiz-adv-x="563" 
d="M279 -10c-138 0 -257 110 -257 259c0 144 106 248 243 248c35 0 64 -7 88 -21c-56 76 -146 154 -291 254h200c212 -165 277 -324 277 -474c0 -149 -113 -266 -260 -266zM280 117c69 0 129 60 129 132c0 73 -56 133 -128 133c-68 0 -128 -56 -128 -133
c0 -76 59 -132 127 -132z" />
    <glyph glyph-name="increment" unicode="&#x2206;" horiz-adv-x="897" 
d="M877 0h-857l429 742zM449 482l-203 -352h406z" />
    <glyph glyph-name="product" unicode="&#x220f;" horiz-adv-x="779" 
d="M36 600v130h706v-130h-121v-600h-136v600h-191v-600h-136v600h-122z" />
    <glyph glyph-name="summation" unicode="&#x2211;" horiz-adv-x="563" 
d="M35 0v146l220 228l-213 226v130h486v-130h-312l213 -226l-234 -244h333v-130h-493z" />
    <glyph glyph-name="minus" unicode="&#x2212;" horiz-adv-x="442" 
d="M36 307v115h370v-115h-370z" />
    <glyph glyph-name="radical" unicode="&#x221a;" horiz-adv-x="789" 
d="M279 0l-146 381h-88v119h181l126 -338l258 568h145l-343 -730h-133z" />
    <glyph glyph-name="infinity" unicode="&#x221e;" horiz-adv-x="893" 
d="M249 206c-99 0 -178 79 -178 178s79 179 178 179c79 0 142 -48 198 -101c56 53 119 101 196 101c99 0 179 -80 179 -179s-80 -178 -179 -178c-77 0 -139 47 -196 100c-56 -53 -119 -100 -198 -100zM249 319c40 0 79 28 118 65c-39 37 -78 65 -118 65
c-35 0 -65 -30 -65 -65s30 -65 65 -65zM643 319c35 0 65 30 65 65s-30 65 -65 65c-39 0 -76 -28 -116 -65c40 -37 77 -65 116 -65z" />
    <glyph glyph-name="integral" unicode="&#x222b;" horiz-adv-x="364" 
d="M15 -215v125c85 0 95 13 95 90v514c0 163 54 216 219 216h11v-125c-85 0 -95 -12 -95 -92v-512c0 -162 -54 -216 -219 -216h-11z" />
    <glyph glyph-name="approxequal" unicode="&#x2248;" horiz-adv-x="441" 
d="M36 384v115c29 15 56 26 97 26c61 0 124 -38 177 -38c39 0 61 10 96 25v-115c-28 -16 -52 -25 -96 -25c-55 0 -127 38 -177 38c-40 0 -66 -11 -97 -26zM36 217v115c29 15 53 27 94 27c58 0 132 -37 182 -37c39 0 59 8 94 23v-115c-28 -16 -50 -23 -94 -23
c-56 0 -131 37 -182 37c-40 0 -63 -12 -94 -27z" />
    <glyph glyph-name="notequal" unicode="&#x2260;" horiz-adv-x="442" 
d="M363 574l-32 -70h75v-115h-126l-24 -52h150v-115h-201l-31 -69h-95l30 69h-73v115h123l22 52h-145v115h195l31 70h101z" />
    <glyph glyph-name="equivalence" unicode="&#x2261;" horiz-adv-x="442" 
d="M36 305v115h370v-115h-370zM36 139v114h370v-114h-370zM36 472v115h370v-115h-370z" />
    <glyph glyph-name="lessequal" unicode="&#x2264;" horiz-adv-x="442" 
d="M405 261l-370 134v114l370 134v-119l-223 -72l223 -73v-118zM35 114v115h370v-115h-370z" />
    <glyph glyph-name="greaterequal" unicode="&#x2265;" horiz-adv-x="442" 
d="M35 261v118l223 73l-223 72v119l370 -134v-114zM35 114v115h370v-115h-370z" />
    <glyph glyph-name="uni22A0" unicode="&#x22a0;" horiz-adv-x="926" 
d="M100 0v730h726v-730h-726zM236 600v-470h454v470h-454zM340 162l-80 78l123 127l-124 129l80 78l122 -126l124 127l80 -78l-126 -130l125 -128l-80 -78l-123 126z" />
    <glyph glyph-name="house" unicode="&#x2302;" horiz-adv-x="874" 
d="M774 0h-674v427l337 323l337 -323v-427z" />
    <glyph glyph-name="filledbox" unicode="&#x25a0;" horiz-adv-x="926" 
d="M100 0v730h726v-730h-726z" />
    <glyph glyph-name="filledbox" unicode="&#xe740;" horiz-adv-x="926" 
d="M100 0v730h726v-730h-726z" />
    <glyph glyph-name="H22073" unicode="&#x25a1;" horiz-adv-x="926" 
d="M100 0v730h726v-730h-726zM236 600v-470h454v470h-454z" />
    <glyph glyph-name="H18543" unicode="&#x25aa;" horiz-adv-x="700" 
d="M100 0v500h500v-500h-500z" />
    <glyph glyph-name="H18551" unicode="&#x25ab;" horiz-adv-x="700" 
d="M100 0v500h500v-500h-500zM234 367v-234h232v234h-232z" />
    <glyph glyph-name="triagup" unicode="&#x25b2;" horiz-adv-x="897" 
d="M877 0h-857l429 742z" />
    <glyph glyph-name="triagrt" unicode="&#x25ba;" horiz-adv-x="897" 
d="M100 -57v857l742 -428z" />
    <glyph glyph-name="triagdn" unicode="&#x25bc;" horiz-adv-x="897" 
d="M20 730h857l-428 -742z" />
    <glyph glyph-name="triaglf" unicode="&#x25c4;" horiz-adv-x="897" 
d="M797 800v-857l-742 429z" />
    <glyph glyph-name="lozenge" unicode="&#x25ca;" horiz-adv-x="843" 
d="M415 -16l-382 382l380 380l382 -382zM208 367l208 -208l203 203l-208 208z" />
    <glyph glyph-name="circle" unicode="&#x25cb;" horiz-adv-x="927" 
d="M463 -10c-208 0 -373 167 -373 375c0 207 165 375 373 375s374 -168 374 -375c0 -208 -166 -375 -374 -375zM463 124c133 0 239 108 239 241s-106 241 -239 241s-238 -108 -238 -241s105 -241 238 -241z" />
    <glyph glyph-name="circle" unicode="&#x25ef;" horiz-adv-x="927" 
d="M463 -10c-208 0 -373 167 -373 375c0 207 165 375 373 375s374 -168 374 -375c0 -208 -166 -375 -374 -375zM463 124c133 0 239 108 239 241s-106 241 -239 241s-238 -108 -238 -241s105 -241 238 -241z" />
    <glyph glyph-name="uni25CE" unicode="&#x25ce;" horiz-adv-x="927" 
d="M0 0v20h927v-20h-927z" />
    <glyph glyph-name="H18533" unicode="&#x25cf;" horiz-adv-x="927" 
d="M463 -10c-208 0 -373 167 -373 375c0 207 165 375 373 375s374 -168 374 -375c0 -208 -166 -375 -374 -375z" />
    <glyph glyph-name="uni25E2" unicode="&#x25e2;" horiz-adv-x="897" 
d="M873 533l-606 -606l-222 828z" />
    <glyph glyph-name="uni25E3" unicode="&#x25e3;" horiz-adv-x="897" 
d="M632 -73l-606 606l828 222z" />
    <glyph glyph-name="uni25E4" unicode="&#x25e4;" horiz-adv-x="897" 
d="M857 -54l-828 222l606 606z" />
    <glyph glyph-name="uni25E5" unicode="&#x25e5;" horiz-adv-x="897" 
d="M872 163l-828 -221l223 828z" />
    <glyph glyph-name="uni2605" unicode="&#x2605;" horiz-adv-x="900" 
d="M562 303l72 -218l-187 135l-186 -135l72 219l-186 135l229 -1l72 218l71 -218l230 -1z" />
    <glyph glyph-name="uni2612" unicode="&#x2612;" horiz-adv-x="700" 
d="M100 0v500h500v-500h-500zM218 383v-266h264v266h-264zM295 369l55 -55l56 57l65 -65l-56 -57l55 -55l-65 -65l-55 54l-54 -55l-65 65l54 55l-55 56z" />
    <glyph glyph-name="sun" unicode="&#x263c;" horiz-adv-x="928" 
d="M287 365c0 95 79 174 174 174s174 -79 174 -174s-79 -174 -174 -174s-174 79 -174 174zM451 577l-17 142h54l-17 -142h-20zM471 155l17 -142h-54l17 142h20zM250 356l-142 -17v54l142 -17v-20zM672 376l142 17v-54l-142 17v20zM273 464l-133 55l28 47l115 -87zM649 268
l133 -55l-28 -47l-115 87zM348 544l-87 115l47 28l55 -133zM574 188l87 -115l-47 -28l-55 133zM559 554l55 133l47 -28l-87 -115zM363 178l-55 -133l-47 28l87 115zM639 480l113 86l30 -46l-133 -56zM283 252l-113 -86l-30 46l133 56z" />
    <glyph glyph-name="uni263E" unicode="&#x263e;" horiz-adv-x="787" 
d="M534 616c-132 0 -239 -113 -239 -251s107 -251 239 -251c24 0 48 5 71 12c-51 -36 -113 -57 -178 -57c-163 0 -296 133 -296 296s133 296 296 296c65 0 127 -21 178 -57c-23 7 -47 12 -71 12z" />
    <glyph glyph-name="spade" unicode="&#x2660;" horiz-adv-x="920" 
d="M594 0h-259c27 51 94 170 94 290c-24 -69 -79 -136 -170 -136c-93 0 -171 72 -171 158c0 115 70 192 235 323l140 112h1l140 -112c165 -131 228 -208 228 -323c0 -85 -72 -157 -157 -157c-96 0 -157 65 -181 135c0 -121 73 -239 100 -290z" />
    <glyph glyph-name="club" unicode="&#x2663;" horiz-adv-x="920" 
d="M595 0h-259c24 46 80 141 91 248c-28 -69 -90 -118 -167 -118c-98 0 -177 79 -177 177s79 177 177 177c15 0 29 -3 42 -7c-13 27 -19 56 -19 87c0 96 78 176 175 176c96 0 176 -80 176 -176c0 -30 -6 -59 -19 -88c15 5 30 8 46 8c99 0 176 -79 176 -177
s-79 -177 -177 -177c-77 0 -136 49 -163 117c13 -105 74 -202 98 -247z" />
    <glyph glyph-name="heart" unicode="&#x2665;" horiz-adv-x="920" 
d="M89 550c0 104 80 190 183 190c102 0 174 -70 185 -161c13 91 81 161 185 161c103 0 189 -86 189 -190c0 -115 -67 -226 -232 -410l-142 -157l-141 157c-166 185 -227 295 -227 410z" />
    <glyph glyph-name="diamond" unicode="&#x2666;" horiz-adv-x="920" 
d="M133 390l327 401l327 -401l-327 -400z" />
    <glyph glyph-name="uni267B" unicode="&#x267b;" horiz-adv-x="921" 
d="M821 246l1 -2l-91 -157c-19 -29 -33 -52 -82 -52h-54v-47l-106 128l106 127v-46h136c28 0 50 12 66 25c9 7 17 15 24 24zM184 111h-2l-90 158c-16 31 -29 55 -4 96l27 46l-40 23l164 29l55 -156l-38 23c-13 -21 -24 -40 -33 -57c-19 -32 -34 -58 -35 -61
c-15 -24 -15 -49 -12 -68c1 -11 4 -22 8 -33zM389 728v1h182c35 -1 62 -1 86 -44l26 -46l41 23l-58 -157l-162 30l38 22l-67 118c-15 24 -35 37 -54 45c-11 4 -21 7 -32 8zM197 558l63 112c5 8 17 21 32 29c55 31 137 4 155 -33l-109 -189zM429 35h-127c-11 0 -27 3 -42 12
c-57 32 -71 115 -49 150h218v-162zM767 491l65 -110c6 -9 9 -22 9 -41c0 -64 -66 -118 -105 -118l-109 189z" />
    <glyph glyph-name="uni267C" unicode="&#x267c;" horiz-adv-x="921" 
d="M837 366c0 -208 -168 -375 -375 -375c-209 0 -377 167 -377 375s168 377 377 377c207 0 375 -169 375 -377zM304 606l-49 -86l109 -63l84 146c-16 29 -78 50 -120 26c-11 -7 -21 -16 -24 -23zM399 652v-1c9 -1 17 -4 26 -7c15 -5 30 -15 41 -34l53 -91l-30 -18l126 -23
l44 122l-31 -18l-21 36c-19 32 -39 34 -67 34h-141zM332 114h99v126h-170c-17 -28 -4 -90 39 -117c11 -7 24 -9 32 -9zM243 173h1c-3 8 -5 16 -6 25c-3 16 -2 35 9 54l53 91l30 -18l-43 121l-127 -22l31 -18l-21 -36c-20 -33 -9 -51 3 -75zM746 383l-49 85l-110 -63l85 -147
c32 0 82 42 82 93c0 13 -4 25 -8 32zM739 276l-1 1c-16 -19 -37 -37 -70 -37h-105v35l-83 -98l83 -99v36h41c39 0 51 17 64 40z" />
    <glyph glyph-name="uni267D" unicode="&#x267d;" horiz-adv-x="921" 
d="M837 366c0 -208 -168 -375 -375 -375c-209 0 -377 167 -377 375s168 377 377 377c207 0 375 -169 375 -377zM818 366c0 198 -159 358 -356 358c-199 0 -359 -160 -359 -358c0 -197 160 -357 359 -357c197 0 356 160 356 357zM255 520l49 86c3 7 13 16 24 23
c42 24 104 3 120 -26l-84 -146zM399 651v1h141c28 0 48 -2 67 -34l21 -36l31 18l-44 -122l-126 23l30 18l-53 91c-11 19 -28 29 -41 34c-9 3 -17 6 -26 7zM431 114h-99c-8 0 -21 2 -32 9c-43 27 -56 89 -39 117h170v-126zM244 173h-1l-70 122c-12 24 -23 42 -3 75l21 36
l-31 18l127 22l43 -121l-30 18l-53 -91c-11 -19 -12 -38 -9 -54c1 -9 3 -17 6 -25zM697 468l49 -85c4 -7 8 -19 8 -32c0 -51 -50 -93 -82 -93l-85 147zM738 277l1 -1l-71 -122c-13 -23 -25 -40 -64 -40h-41v-36l-83 99l83 98v-35h105c23 0 39 10 52 19c7 5 13 11 18 18z" />
    <glyph glyph-name="uni26AA" unicode="&#x26aa;" horiz-adv-x="698" 
d="M349 -10c-144 0 -259 116 -259 260s115 260 259 260s259 -116 259 -260s-115 -260 -259 -260zM349 117c72 0 129 60 129 133s-57 133 -129 133s-128 -60 -128 -133s56 -133 128 -133z" />
    <glyph glyph-name="uni26AB" unicode="&#x26ab;" horiz-adv-x="698" 
d="M349 -10c-144 0 -259 116 -259 260s115 260 259 260s259 -116 259 -260s-115 -260 -259 -260z" />
    <glyph glyph-name="uni3008" unicode="&#x3008;" horiz-adv-x="392" 
d="M238 -230l-227 480l227 480h144l-228 -480l228 -480h-144z" />
    <glyph glyph-name="uni3009" unicode="&#x3009;" horiz-adv-x="392" 
d="M155 -230h-144l228 480l-228 480h144l227 -480z" />
    <glyph glyph-name="uniE141" unicode="&#xe141;" horiz-adv-x="583" 
d="M179 0h-139v730h234c175 0 275 -103 275 -256c0 -88 -41 -169 -121 -212l144 -262h-158l-113 220h-122v-220zM179 348h83c112 0 148 60 148 132c0 73 -44 120 -148 120h-83v-252z" />
    <glyph glyph-name="uniE142" unicode="&#xe142;" horiz-adv-x="583" 
d="M179 0h-139v730h234c175 0 275 -103 275 -256c0 -88 -41 -169 -121 -212l144 -262h-158l-113 220h-122v-220zM179 348h83c112 0 148 60 148 132c0 73 -44 120 -148 120h-83v-252zM196 780l115 170h126l-150 -170h-91z" />
    <glyph glyph-name="uniE143" unicode="&#xe143;" horiz-adv-x="583" 
d="M179 0h-139v730h234c175 0 275 -103 275 -256c0 -88 -41 -169 -121 -212l144 -262h-158l-113 220h-122v-220zM179 348h83c112 0 148 60 148 132c0 73 -44 120 -148 120h-83v-252zM250 780l-119 170h102l59 -89l59 89h102l-119 -170h-84z" />
    <glyph glyph-name="uniE146" unicode="&#xe146;" horiz-adv-x="583" 
d="M179 0h-139v730h234c175 0 275 -103 275 -256c0 -88 -41 -169 -121 -212l144 -262h-158l-113 220h-122v-220zM179 348h83c112 0 148 60 148 132c0 73 -44 120 -148 120h-83v-252zM290 -281h-83l34 204h119z" />
    <glyph glyph-name="uniE181" unicode="&#xe181;" horiz-adv-x="324" 
d="M170 435c-83 0 -150 67 -150 150c0 85 67 151 150 151c65 0 115 -38 138 -90l-86 -39c-8 23 -28 36 -51 36c-31 0 -56 -26 -56 -58c0 -31 25 -57 56 -57c24 0 43 14 51 35l87 -37c-23 -53 -72 -91 -139 -91z" />
    <glyph glyph-name="uniE200" unicode="&#xe200;" horiz-adv-x="486" 
d="M37 0v596h202c137 0 226 -98 226 -216c0 -120 -88 -220 -227 -220h-67v-160h-134zM234 473h-63v-189h63c56 0 96 39 96 95s-40 94 -96 94z" />
    <glyph glyph-name="uniE200" unicode="&#xf770;" horiz-adv-x="486" 
d="M37 0v596h202c137 0 226 -98 226 -216c0 -120 -88 -220 -227 -220h-67v-160h-134zM234 473h-63v-189h63c56 0 96 39 96 95s-40 94 -96 94z" />
    <glyph glyph-name="uniE201" unicode="&#xe201;" horiz-adv-x="581" 
d="M20 0l205 596h131l206 -596h-136l-31 93h-209l-31 -93h-135zM291 405l-64 -189h127z" />
    <glyph glyph-name="uniE201" unicode="&#xf761;" horiz-adv-x="581" 
d="M20 0l205 596h131l206 -596h-136l-31 93h-209l-31 -93h-135zM291 405l-64 -189h127z" />
    <glyph glyph-name="uniE202" unicode="&#xe202;" horiz-adv-x="489" 
d="M37 0v596h198c143 0 215 -55 215 -168c0 -53 -21 -91 -60 -116c51 -25 78 -68 78 -132c1 -123 -85 -180 -224 -180h-207zM244 243h-73v-123h75c57 0 86 21 86 63c0 40 -20 60 -88 60zM240 477h-69v-111h69c56 0 77 23 77 58c0 36 -22 53 -77 53z" />
    <glyph glyph-name="uniE202" unicode="&#xf762;" horiz-adv-x="489" 
d="M37 0v596h198c143 0 215 -55 215 -168c0 -53 -21 -91 -60 -116c51 -25 78 -68 78 -132c1 -123 -85 -180 -224 -180h-207zM244 243h-73v-123h75c57 0 86 21 86 63c0 40 -20 60 -88 60zM240 477h-69v-111h69c56 0 77 23 77 58c0 36 -22 53 -77 53z" />
    <glyph glyph-name="uniE203" unicode="&#xe203;" horiz-adv-x="623" 
d="M336 -8c-182 0 -308 136 -308 306c0 173 130 306 309 306c115 0 211 -59 263 -148l-115 -72c-28 53 -82 89 -149 89c-102 0 -172 -79 -172 -175s70 -174 169 -174c73 0 124 40 151 100l124 -63c-51 -100 -143 -169 -272 -169z" />
    <glyph glyph-name="uniE203" unicode="&#xf763;" horiz-adv-x="623" 
d="M336 -8c-182 0 -308 136 -308 306c0 173 130 306 309 306c115 0 211 -59 263 -148l-115 -72c-28 53 -82 89 -149 89c-102 0 -172 -79 -172 -175s70 -174 169 -174c73 0 124 40 151 100l124 -63c-51 -100 -143 -169 -272 -169z" />
    <glyph glyph-name="uniE204" unicode="&#xe204;" horiz-adv-x="550" 
d="M37 0v596h174c189 0 311 -130 311 -298c0 -171 -129 -298 -308 -298h-177zM203 472h-33v-348h37c109 0 181 76 181 174c0 99 -64 174 -185 174z" />
    <glyph glyph-name="uniE204" unicode="&#xf764;" horiz-adv-x="550" 
d="M37 0v596h174c189 0 311 -130 311 -298c0 -171 -129 -298 -308 -298h-177zM203 472h-33v-348h37c109 0 181 76 181 174c0 99 -64 174 -185 174z" />
    <glyph glyph-name="uniE205" unicode="&#xe205;" horiz-adv-x="423" 
d="M37 0v596h353v-125h-220v-109h220v-126h-220v-111h220v-125h-353z" />
    <glyph glyph-name="uniE205" unicode="&#xf765;" horiz-adv-x="423" 
d="M37 0v596h353v-125h-220v-109h220v-126h-220v-111h220v-125h-353z" />
    <glyph glyph-name="uniE206" unicode="&#xe206;" horiz-adv-x="408" 
d="M37 0v596h340v-125h-207v-109h207v-126h-207v-236h-133z" />
    <glyph glyph-name="uniE206" unicode="&#xf766;" horiz-adv-x="408" 
d="M37 0v596h340v-125h-207v-109h207v-126h-207v-236h-133z" />
    <glyph glyph-name="uniE207" unicode="&#xe207;" 
d="M333 -8c-191 0 -312 141 -312 306c0 172 128 306 307 306c127 0 219 -61 270 -149l-117 -67c-31 56 -83 88 -152 88c-97 0 -174 -77 -174 -178c0 -104 73 -179 176 -179c75 0 127 39 147 103h-173v126h318v-61c0 -160 -114 -295 -290 -295z" />
    <glyph glyph-name="uniE207" unicode="&#xf767;" 
d="M333 -8c-191 0 -312 141 -312 306c0 172 128 306 307 306c127 0 219 -61 270 -149l-117 -67c-31 56 -83 88 -152 88c-97 0 -174 -77 -174 -178c0 -104 73 -179 176 -179c75 0 127 39 147 103h-173v126h318v-61c0 -160 -114 -295 -290 -295z" />
    <glyph glyph-name="uniE208" unicode="&#xe208;" horiz-adv-x="528" 
d="M357 0v234h-186v-234h-134v596h134v-230h186v230h134v-596h-134z" />
    <glyph glyph-name="uniE208" unicode="&#xf768;" horiz-adv-x="528" 
d="M357 0v234h-186v-234h-134v596h134v-230h186v230h134v-596h-134z" />
    <glyph glyph-name="uniE209" unicode="&#xe209;" horiz-adv-x="219" 
d="M42 0v596h135v-596h-135z" />
    <glyph glyph-name="uniE209" unicode="&#xf769;" horiz-adv-x="219" 
d="M42 0v596h135v-596h-135z" />
    <glyph glyph-name="uniE20A" unicode="&#xe20a;" horiz-adv-x="433" 
d="M210 -8c-100 0 -169 51 -192 130l128 51c9 -35 28 -58 63 -58s53 27 53 63v418h135v-409c0 -123 -60 -195 -187 -195z" />
    <glyph glyph-name="uniE20A" unicode="&#xf76a;" horiz-adv-x="433" 
d="M210 -8c-100 0 -169 51 -192 130l128 51c9 -35 28 -58 63 -58s53 27 53 63v418h135v-409c0 -123 -60 -195 -187 -195z" />
    <glyph glyph-name="uniE20B" unicode="&#xe20b;" horiz-adv-x="524" 
d="M365 0l-141 263l-53 -70v-193h-134v596h134v-225l172 225h159l-181 -235l194 -361h-150z" />
    <glyph glyph-name="uniE20B" unicode="&#xf76b;" horiz-adv-x="524" 
d="M365 0l-141 263l-53 -70v-193h-134v596h134v-225l172 225h159l-181 -235l194 -361h-150z" />
    <glyph glyph-name="uniE20C" unicode="&#xe20c;" horiz-adv-x="400" 
d="M37 0v596h134v-468h201v-128h-335z" />
    <glyph glyph-name="uniE20C" unicode="&#xf76c;" horiz-adv-x="400" 
d="M37 0v596h134v-468h201v-128h-335z" />
    <glyph glyph-name="uniE20D" unicode="&#xe20d;" horiz-adv-x="658" 
d="M37 0v596h134l159 -221l165 221h127v-596h-134v380l-159 -214l-159 215v-381h-133z" />
    <glyph glyph-name="uniE20D" unicode="&#xf76d;" horiz-adv-x="658" 
d="M37 0v596h134l159 -221l165 221h127v-596h-134v380l-159 -214l-159 215v-381h-133z" />
    <glyph glyph-name="uniE20E" unicode="&#xe20e;" horiz-adv-x="579" 
d="M37 0v596h145l227 -359v359h133v-596h-134l-238 374v-374h-133z" />
    <glyph glyph-name="uniE20E" unicode="&#xf76e;" horiz-adv-x="579" 
d="M37 0v596h145l227 -359v359h133v-596h-134l-238 374v-374h-133z" />
    <glyph glyph-name="uniE20F" unicode="&#xe20f;" horiz-adv-x="653" 
d="M326 -8c-170 0 -305 136 -305 306c0 169 135 306 305 306c169 0 306 -137 306 -306c0 -170 -136 -306 -306 -306zM326 124c98 0 170 78 170 174s-73 174 -170 174c-96 0 -169 -78 -169 -174s73 -174 169 -174z" />
    <glyph glyph-name="uniE20F" unicode="&#xf76f;" horiz-adv-x="653" 
d="M326 -8c-170 0 -305 136 -305 306c0 169 135 306 305 306c169 0 306 -137 306 -306c0 -170 -136 -306 -306 -306zM326 124c98 0 170 78 170 174s-73 174 -170 174c-96 0 -169 -78 -169 -174s73 -174 169 -174z" />
    <glyph glyph-name="uniE211" unicode="&#xe211;" horiz-adv-x="666" 
d="M332 -8c-171 0 -304 136 -304 306c0 169 133 306 304 306c170 0 306 -137 306 -306c0 -75 -25 -142 -68 -195l80 -103h-146l-224 294h143l60 -78c12 24 20 51 20 82c0 96 -73 174 -171 174c-96 0 -169 -78 -169 -174s73 -174 169 -174c17 0 31 1 42 4l83 -109
c-36 -18 -78 -27 -125 -27z" />
    <glyph glyph-name="uniE211" unicode="&#xf771;" horiz-adv-x="666" 
d="M332 -8c-171 0 -304 136 -304 306c0 169 133 306 304 306c170 0 306 -137 306 -306c0 -75 -25 -142 -68 -195l80 -103h-146l-224 294h143l60 -78c12 24 20 51 20 82c0 96 -73 174 -171 174c-96 0 -169 -78 -169 -174s73 -174 169 -174c17 0 31 1 42 4l83 -109
c-36 -18 -78 -27 -125 -27z" />
    <glyph glyph-name="uniE212" unicode="&#xe212;" horiz-adv-x="489" 
d="M37 0v596h207c142 0 224 -92 224 -203c0 -76 -38 -143 -114 -175l130 -218h-152l-162 289v-289h-133zM234 473h-64v-168h64c67 0 96 43 96 86c0 55 -32 82 -96 82z" />
    <glyph glyph-name="uniE212" unicode="&#xf772;" horiz-adv-x="489" 
d="M37 0v596h207c142 0 224 -92 224 -203c0 -76 -38 -143 -114 -175l130 -218h-152l-162 289v-289h-133zM234 473h-64v-168h64c67 0 96 43 96 86c0 55 -32 82 -96 82z" />
    <glyph glyph-name="uniE213" unicode="&#xe213;" horiz-adv-x="488" 
d="M244 -8c-115 0 -183 50 -236 108l117 92c29 -47 72 -75 119 -75c48 0 77 30 77 63c0 42 -55 54 -115 72c-79 24 -170 56 -170 173c0 104 84 180 204 180c104 0 165 -42 210 -93l-108 -83c-23 37 -58 59 -101 59s-69 -24 -69 -55c0 -40 52 -53 113 -72
c80 -24 175 -61 175 -178c0 -99 -79 -191 -216 -191z" />
    <glyph glyph-name="uniE213" unicode="&#xf773;" horiz-adv-x="488" 
d="M244 -8c-115 0 -183 50 -236 108l117 92c29 -47 72 -75 119 -75c48 0 77 30 77 63c0 42 -55 54 -115 72c-79 24 -170 56 -170 173c0 104 84 180 204 180c104 0 165 -42 210 -93l-108 -83c-23 37 -58 59 -101 59s-69 -24 -69 -55c0 -40 52 -53 113 -72
c80 -24 175 -61 175 -178c0 -99 -79 -191 -216 -191z" />
    <glyph glyph-name="uniE214" unicode="&#xe214;" horiz-adv-x="494" 
d="M183 0v471h-152v125h432v-125h-150v-471h-130z" />
    <glyph glyph-name="uniE214" unicode="&#xf774;" horiz-adv-x="494" 
d="M183 0v471h-152v125h432v-125h-150v-471h-130z" />
    <glyph glyph-name="uniE215" unicode="&#xe215;" horiz-adv-x="519" 
d="M260 -8c-134 0 -223 80 -223 223v381h134v-385c0 -59 35 -97 88 -97s90 38 90 97v385h134v-381c0 -144 -88 -223 -223 -223z" />
    <glyph glyph-name="uniE215" unicode="&#xf775;" horiz-adv-x="519" 
d="M260 -8c-134 0 -223 80 -223 223v381h134v-385c0 -59 35 -97 88 -97s90 38 90 97v385h134v-381c0 -144 -88 -223 -223 -223z" />
    <glyph glyph-name="uniE216" unicode="&#xe216;" horiz-adv-x="561" 
d="M212 0l-193 596h139l124 -387l121 387h139l-191 -596h-139z" />
    <glyph glyph-name="uniE216" unicode="&#xf776;" horiz-adv-x="561" 
d="M212 0l-193 596h139l124 -387l121 387h139l-191 -596h-139z" />
    <glyph glyph-name="uniE217" unicode="&#xe217;" horiz-adv-x="850" 
d="M184 0l-165 596h136l98 -378l108 378h133l108 -379l98 379h134l-166 -596h-132l-109 383l-108 -383h-135z" />
    <glyph glyph-name="uniE217" unicode="&#xf777;" horiz-adv-x="850" 
d="M184 0l-165 596h136l98 -378l108 378h133l108 -379l98 379h134l-166 -596h-132l-109 383l-108 -383h-135z" />
    <glyph glyph-name="uniE218" unicode="&#xe218;" horiz-adv-x="538" 
d="M379 0l-109 186l-109 -186h-147l181 304l-174 292h147l103 -176l102 176h147l-175 -293l180 -303h-146z" />
    <glyph glyph-name="uniE218" unicode="&#xf778;" horiz-adv-x="538" 
d="M379 0l-109 186l-109 -186h-147l181 304l-174 292h147l103 -176l102 176h147l-175 -293l180 -303h-146z" />
    <glyph glyph-name="uniE219" unicode="&#xe219;" horiz-adv-x="537" 
d="M202 0v280l-186 316h145l109 -187l110 187h145l-188 -318v-278h-135z" />
    <glyph glyph-name="uniE219" unicode="&#xf779;" horiz-adv-x="537" 
d="M202 0v280l-186 316h145l109 -187l110 187h145l-188 -318v-278h-135z" />
    <glyph glyph-name="uniE21A" unicode="&#xe21a;" horiz-adv-x="456" 
d="M31 0v123l238 349h-233v124h389v-120l-241 -352h241v-124h-394z" />
    <glyph glyph-name="uniE21A" unicode="&#xf77a;" horiz-adv-x="456" 
d="M31 0v123l238 349h-233v124h389v-120l-241 -352h241v-124h-394z" />
    <glyph glyph-name="uniE220" unicode="&#xe220;" horiz-adv-x="581" 
d="M20 0l205 596h131l206 -596h-136l-135 405l-136 -405h-135z" />
    <glyph glyph-name="uniE221" unicode="&#xe221;" horiz-adv-x="581" 
d="M20 0l205 596h131l206 -596h-136l-31 93h-209l-31 -93h-135zM245 646l115 170h126l-150 -170h-91zM291 405l-64 -189h127z" />
    <glyph glyph-name="uniE221" unicode="&#xf7e1;" horiz-adv-x="581" 
d="M20 0l205 596h131l206 -596h-136l-31 93h-209l-31 -93h-135zM245 646l115 170h126l-150 -170h-91zM291 405l-64 -189h127z" />
    <glyph glyph-name="uniE222" unicode="&#xe222;" horiz-adv-x="581" 
d="M20 0l205 596h131l206 -596h-136l-31 93h-209l-31 -93h-135zM248 646l-150 170h127l114 -170h-91zM291 405l-64 -189h127z" />
    <glyph glyph-name="uniE222" unicode="&#xf7e0;" horiz-adv-x="581" 
d="M20 0l205 596h131l206 -596h-136l-31 93h-209l-31 -93h-135zM248 646l-150 170h127l114 -170h-91zM291 405l-64 -189h127z" />
    <glyph glyph-name="uniE223" unicode="&#xe223;" horiz-adv-x="581" 
d="M20 0l205 596h131l206 -596h-136l-31 93h-209l-31 -93h-135zM129 646l119 170h84l119 -170h-102l-59 89l-59 -89h-102zM291 405l-64 -189h127z" />
    <glyph glyph-name="uniE223" unicode="&#xf7e2;" horiz-adv-x="581" 
d="M20 0l205 596h131l206 -596h-136l-31 93h-209l-31 -93h-135zM129 646l119 170h84l119 -170h-102l-59 89l-59 -89h-102zM291 405l-64 -189h127z" />
    <glyph glyph-name="uniE224" unicode="&#xe224;" horiz-adv-x="581" 
d="M20 0l205 596h131l206 -596h-136l-31 93h-209l-31 -93h-135zM123 715c0 43 28 72 72 72c45 0 72 -29 72 -72s-27 -71 -72 -71s-72 28 -72 71zM314 715c0 43 28 72 72 72s72 -29 72 -72s-28 -71 -72 -71c-47 0 -72 28 -72 71zM291 405l-64 -189h127z" />
    <glyph glyph-name="uniE224" unicode="&#xf7e4;" horiz-adv-x="581" 
d="M20 0l205 596h131l206 -596h-136l-31 93h-209l-31 -93h-135zM123 715c0 43 28 72 72 72c45 0 72 -29 72 -72s-27 -71 -72 -71s-72 28 -72 71zM314 715c0 43 28 72 72 72s72 -29 72 -72s-28 -71 -72 -71c-47 0 -72 28 -72 71zM291 405l-64 -189h127z" />
    <glyph glyph-name="uniE225" unicode="&#xe225;" horiz-adv-x="581" 
d="M20 0l205 596h131l206 -596h-136l-31 93h-209l-31 -93h-135zM197 646h-78c0 81 39 135 104 135c33 0 56 -12 77 -24c19 -13 35 -25 52 -25c19 0 28 15 28 45h78c0 -83 -34 -135 -105 -135c-39 0 -64 18 -87 31c-15 9 -28 17 -43 17c-17 0 -26 -15 -26 -44zM291 405
l-64 -189h127z" />
    <glyph glyph-name="uniE225" unicode="&#xf7e3;" horiz-adv-x="581" 
d="M20 0l205 596h131l206 -596h-136l-31 93h-209l-31 -93h-135zM197 646h-78c0 81 39 135 104 135c33 0 56 -12 77 -24c19 -13 35 -25 52 -25c19 0 28 15 28 45h78c0 -83 -34 -135 -105 -135c-39 0 -64 18 -87 31c-15 9 -28 17 -43 17c-17 0 -26 -15 -26 -44zM291 405
l-64 -189h127z" />
    <glyph glyph-name="uniE226" unicode="&#xe226;" horiz-adv-x="581" 
d="M20 0l195 569c-28 23 -42 53 -42 90c0 67 52 118 116 118c65 0 117 -51 117 -118c0 -36 -16 -66 -41 -89l197 -570h-136l-31 93h-209l-31 -93h-135zM291 405l-64 -189h127zM289 620c23 0 41 18 41 39c0 23 -18 41 -41 41s-40 -18 -40 -41c0 -21 17 -39 40 -39z" />
    <glyph glyph-name="uniE226" unicode="&#xf7e5;" horiz-adv-x="581" 
d="M20 0l195 569c-28 23 -42 53 -42 90c0 67 52 118 116 118c65 0 117 -51 117 -118c0 -36 -16 -66 -41 -89l197 -570h-136l-31 93h-209l-31 -93h-135zM291 405l-64 -189h127zM289 620c23 0 41 18 41 39c0 23 -18 41 -41 41s-40 -18 -40 -41c0 -21 17 -39 40 -39z" />
    <glyph glyph-name="uniE228" unicode="&#xe228;" horiz-adv-x="581" 
d="M20 0l205 596h131l206 -596h-136l-31 93h-209l-31 -93h-135zM159 646v86h264v-86h-264zM291 405l-64 -189h127z" />
    <glyph glyph-name="uniE228" unicode="&#xf641;" horiz-adv-x="581" 
d="M20 0l205 596h131l206 -596h-136l-31 93h-209l-31 -93h-135zM159 646v86h264v-86h-264zM291 405l-64 -189h127z" />
    <glyph glyph-name="uniE229" unicode="&#xe229;" horiz-adv-x="581" 
d="M20 0l205 596h131l206 -596h-136l-31 93h-209l-31 -93h-135zM288 638c-110 0 -161 73 -161 170h85c0 -64 27 -93 76 -96c48 3 76 32 76 96h86c0 -97 -61 -170 -162 -170zM291 405l-64 -189h127z" />
    <glyph glyph-name="uniE229" unicode="&#xf640;" horiz-adv-x="581" 
d="M20 0l205 596h131l206 -596h-136l-31 93h-209l-31 -93h-135zM288 638c-110 0 -161 73 -161 170h85c0 -64 27 -93 76 -96c48 3 76 32 76 96h86c0 -97 -61 -170 -162 -170zM291 405l-64 -189h127z" />
    <glyph glyph-name="uniE22D" unicode="&#xe22d;" horiz-adv-x="581" 
d="M20 0l195 569c-28 23 -42 53 -42 90c0 67 52 118 116 118c65 0 117 -51 117 -118c0 -36 -16 -66 -41 -89l197 -570h-136l-31 93h-209l-31 -93h-135zM243 817l115 170h126l-150 -170h-91zM291 405l-64 -189h127zM289 620c23 0 41 18 41 39c0 23 -18 41 -41 41
s-40 -18 -40 -41c0 -21 17 -39 40 -39z" />
    <glyph glyph-name="uniE22D" unicode="&#xf625;" horiz-adv-x="581" 
d="M20 0l195 569c-28 23 -42 53 -42 90c0 67 52 118 116 118c65 0 117 -51 117 -118c0 -36 -16 -66 -41 -89l197 -570h-136l-31 93h-209l-31 -93h-135zM243 817l115 170h126l-150 -170h-91zM291 405l-64 -189h127zM289 620c23 0 41 18 41 39c0 23 -18 41 -41 41
s-40 -18 -40 -41c0 -21 17 -39 40 -39z" />
    <glyph glyph-name="uniE22F" unicode="&#xe22f;" horiz-adv-x="581" 
d="M20 0l205 596h131l206 -596c-109 -72 -130 -87 -130 -113c0 -23 20 -31 43 -31c27 0 41 14 60 29l79 -54c-35 -32 -91 -58 -139 -58c-87 0 -144 48 -144 109c0 43 20 83 92 127l-28 84h-209l-31 -93h-135zM291 405l-64 -189h127z" />
    <glyph glyph-name="uniE22F" unicode="&#xf642;" horiz-adv-x="581" 
d="M20 0l205 596h131l206 -596c-109 -72 -130 -87 -130 -113c0 -23 20 -31 43 -31c27 0 41 14 60 29l79 -54c-35 -32 -91 -58 -139 -58c-87 0 -144 48 -144 109c0 43 20 83 92 127l-28 84h-209l-31 -93h-135zM291 405l-64 -189h127z" />
    <glyph glyph-name="uniE230" unicode="&#xe230;" horiz-adv-x="421" 
d="M37 0v596h353v-125h-220v-109h220v-126h-220v-111h220v-125h-353zM48 715c0 43 28 72 72 72c45 0 72 -29 72 -72s-27 -71 -72 -71s-72 28 -72 71zM239 715c0 43 28 72 72 72s72 -29 72 -72s-28 -71 -72 -71c-47 0 -72 28 -72 71z" />
    <glyph glyph-name="uniE230" unicode="&#xf7eb;" horiz-adv-x="421" 
d="M37 0v596h353v-125h-220v-109h220v-126h-220v-111h220v-125h-353zM48 715c0 43 28 72 72 72c45 0 72 -29 72 -72s-27 -71 -72 -71s-72 28 -72 71zM239 715c0 43 28 72 72 72s72 -29 72 -72s-28 -71 -72 -71c-47 0 -72 28 -72 71z" />
    <glyph glyph-name="uniE231" unicode="&#xe231;" horiz-adv-x="787" 
d="M13 0l271 596h471v-125h-302l20 -109h282v-126h-260l20 -111h240v-125h-353l-16 88h-189l-39 -88h-145zM332 392l-81 -183h114z" />
    <glyph glyph-name="uniE231" unicode="&#xf7e6;" horiz-adv-x="787" 
d="M13 0l271 596h471v-125h-302l20 -109h282v-126h-260l20 -111h240v-125h-353l-16 88h-189l-39 -88h-145zM332 392l-81 -183h114z" />
    <glyph glyph-name="uniE232" unicode="&#xe232;" horiz-adv-x="787" 
d="M13 0l271 596h471v-125h-302l20 -109h282v-126h-260l20 -111h240v-125h-353l-16 88h-189l-39 -88h-145zM420 646l115 170h126l-150 -170h-91zM332 392l-81 -183h114z" />
    <glyph glyph-name="uniE232" unicode="&#xf624;" horiz-adv-x="787" 
d="M13 0l271 596h471v-125h-302l20 -109h282v-126h-260l20 -111h240v-125h-353l-16 88h-189l-39 -88h-145zM420 646l115 170h126l-150 -170h-91zM332 392l-81 -183h114z" />
    <glyph glyph-name="uniE234" unicode="&#xe234;" horiz-adv-x="623" 
d="M288 646l115 170h126l-150 -170h-91zM336 -8c-182 0 -308 136 -308 306c0 173 130 306 309 306c115 0 211 -59 263 -148l-115 -72c-28 53 -82 89 -149 89c-102 0 -172 -79 -172 -175s70 -174 169 -174c73 0 124 40 151 100l124 -63c-51 -100 -143 -169 -272 -169z" />
    <glyph glyph-name="uniE234" unicode="&#xf643;" horiz-adv-x="623" 
d="M288 646l115 170h126l-150 -170h-91zM336 -8c-182 0 -308 136 -308 306c0 173 130 306 309 306c115 0 211 -59 263 -148l-115 -72c-28 53 -82 89 -149 89c-102 0 -172 -79 -172 -175s70 -174 169 -174c73 0 124 40 151 100l124 -63c-51 -100 -143 -169 -272 -169z" />
    <glyph glyph-name="uniE235" unicode="&#xe235;" horiz-adv-x="623" 
d="M336 -8c-182 0 -308 136 -308 306c0 173 130 306 309 306c115 0 211 -59 263 -148l-115 -72c-28 53 -82 89 -149 89c-102 0 -172 -79 -172 -175s70 -174 169 -174c73 0 124 40 151 100l124 -63c-51 -100 -143 -169 -272 -169zM177 646l119 170h84l119 -170h-102l-59 89
l-59 -89h-102z" />
    <glyph glyph-name="uniE235" unicode="&#xf628;" horiz-adv-x="623" 
d="M336 -8c-182 0 -308 136 -308 306c0 173 130 306 309 306c115 0 211 -59 263 -148l-115 -72c-28 53 -82 89 -149 89c-102 0 -172 -79 -172 -175s70 -174 169 -174c73 0 124 40 151 100l124 -63c-51 -100 -143 -169 -272 -169zM177 646l119 170h84l119 -170h-102l-59 89
l-59 -89h-102z" />
    <glyph glyph-name="uniE236" unicode="&#xe236;" horiz-adv-x="623" 
d="M336 -8c-182 0 -308 136 -308 306c0 173 130 306 309 306c115 0 211 -59 263 -148l-115 -72c-28 53 -82 89 -149 89c-102 0 -172 -79 -172 -175s70 -174 169 -174c73 0 124 40 151 100l124 -63c-51 -100 -143 -169 -272 -169zM296 646l-119 170h102l59 -89l59 89h102
l-119 -170h-84z" />
    <glyph glyph-name="uniE236" unicode="&#xf644;" horiz-adv-x="623" 
d="M336 -8c-182 0 -308 136 -308 306c0 173 130 306 309 306c115 0 211 -59 263 -148l-115 -72c-28 53 -82 89 -149 89c-102 0 -172 -79 -172 -175s70 -174 169 -174c73 0 124 40 151 100l124 -63c-51 -100 -143 -169 -272 -169zM296 646l-119 170h102l59 -89l59 89h102
l-119 -170h-84z" />
    <glyph glyph-name="uniE237" unicode="&#xe237;" horiz-adv-x="623" 
d="M336 -8c-182 0 -308 136 -308 306c0 173 130 306 309 306c115 0 211 -59 263 -148l-115 -72c-28 53 -82 89 -149 89c-102 0 -172 -79 -172 -175s70 -174 169 -174c73 0 124 40 151 100l124 -63c-51 -100 -143 -169 -272 -169zM259 715c0 47 31 79 79 79
c49 0 79 -32 79 -79s-30 -78 -79 -78c-51 0 -79 31 -79 78z" />
    <glyph glyph-name="uniE237" unicode="&#xf629;" horiz-adv-x="623" 
d="M336 -8c-182 0 -308 136 -308 306c0 173 130 306 309 306c115 0 211 -59 263 -148l-115 -72c-28 53 -82 89 -149 89c-102 0 -172 -79 -172 -175s70 -174 169 -174c73 0 124 40 151 100l124 -63c-51 -100 -143 -169 -272 -169zM259 715c0 47 31 79 79 79
c49 0 79 -32 79 -79s-30 -78 -79 -78c-51 0 -79 31 -79 78z" />
    <glyph glyph-name="uniE238" unicode="&#xe238;" horiz-adv-x="623" 
d="M327 -240c-53 0 -105 24 -144 59l78 47c23 -19 41 -34 76 -34c29 0 55 14 55 31c0 18 -19 27 -58 27h-50v106c-154 24 -256 148 -256 302c0 173 130 306 309 306c115 0 211 -59 263 -148l-115 -72c-28 53 -82 89 -149 89c-102 0 -172 -79 -172 -175s70 -174 169 -174
c73 0 124 40 151 100l124 -63c-47 -92 -127 -156 -240 -167v-47c75 3 115 -31 115 -80c0 -62 -68 -107 -156 -107z" />
    <glyph glyph-name="uniE238" unicode="&#xf7e7;" horiz-adv-x="623" 
d="M327 -240c-53 0 -105 24 -144 59l78 47c23 -19 41 -34 76 -34c29 0 55 14 55 31c0 18 -19 27 -58 27h-50v106c-154 24 -256 148 -256 302c0 173 130 306 309 306c115 0 211 -59 263 -148l-115 -72c-28 53 -82 89 -149 89c-102 0 -172 -79 -172 -175s70 -174 169 -174
c73 0 124 40 151 100l124 -63c-47 -92 -127 -156 -240 -167v-47c75 3 115 -31 115 -80c0 -62 -68 -107 -156 -107z" />
    <glyph glyph-name="uniE239" unicode="&#xe239;" horiz-adv-x="550" 
d="M37 0v596h174c189 0 311 -130 311 -298c0 -171 -129 -298 -308 -298h-177zM203 472h-33v-348h37c109 0 181 76 181 174c0 99 -64 174 -185 174zM204 646l-119 170h102l59 -89l59 89h102l-119 -170h-84z" />
    <glyph glyph-name="uniE239" unicode="&#xf645;" horiz-adv-x="550" 
d="M37 0v596h174c189 0 311 -130 311 -298c0 -171 -129 -298 -308 -298h-177zM203 472h-33v-348h37c109 0 181 76 181 174c0 99 -64 174 -185 174zM204 646l-119 170h102l59 -89l59 89h102l-119 -170h-84z" />
    <glyph glyph-name="uniE23C" unicode="&#xe23c;" horiz-adv-x="586" 
d="M20 243v110h51v243h176c188 0 311 -130 311 -298c0 -171 -129 -298 -308 -298h-179v243h-51zM324 243h-119v-119h37c112 0 181 76 181 174c0 99 -64 174 -184 174h-34v-119h119v-110z" />
    <glyph glyph-name="uniE23C" unicode="&#xf646;" horiz-adv-x="586" 
d="M20 243v110h51v243h176c188 0 311 -130 311 -298c0 -171 -129 -298 -308 -298h-179v243h-51zM324 243h-119v-119h37c112 0 181 76 181 174c0 99 -64 174 -184 174h-34v-119h119v-110z" />
    <glyph glyph-name="uniE23D" unicode="&#xe23d;" horiz-adv-x="421" 
d="M37 0v596h353v-125h-220v-109h220v-126h-220v-111h220v-125h-353zM161 646l115 170h126l-150 -170h-91z" />
    <glyph glyph-name="uniE23D" unicode="&#xf7e9;" horiz-adv-x="421" 
d="M37 0v596h353v-125h-220v-109h220v-126h-220v-111h220v-125h-353zM161 646l115 170h126l-150 -170h-91z" />
    <glyph glyph-name="uniE23E" unicode="&#xe23e;" horiz-adv-x="421" 
d="M37 0v596h353v-125h-220v-109h220v-126h-220v-111h220v-125h-353zM190 646l-150 170h127l114 -170h-91z" />
    <glyph glyph-name="uniE23E" unicode="&#xf7e8;" horiz-adv-x="421" 
d="M37 0v596h353v-125h-220v-109h220v-126h-220v-111h220v-125h-353zM190 646l-150 170h127l114 -170h-91z" />
    <glyph glyph-name="uniE23F" unicode="&#xe23f;" horiz-adv-x="421" 
d="M37 0v596h353v-125h-220v-109h220v-126h-220v-111h220v-125h-353zM55 646l119 170h84l119 -170h-102l-59 89l-59 -89h-102z" />
    <glyph glyph-name="uniE23F" unicode="&#xf7ea;" horiz-adv-x="421" 
d="M37 0v596h353v-125h-220v-109h220v-126h-220v-111h220v-125h-353zM55 646l119 170h84l119 -170h-102l-59 89l-59 -89h-102z" />
    <glyph glyph-name="uniE240" unicode="&#xe240;" 
d="M333 -8c-191 0 -312 141 -312 306c0 172 128 306 307 306c127 0 219 -61 270 -149l-117 -67c-31 56 -83 88 -152 88c-97 0 -174 -77 -174 -178c0 -104 73 -179 176 -179c75 0 127 39 147 103h-173v126h318v-61c0 -160 -114 -295 -290 -295zM321 -250h-83l34 204h119z" />
    <glyph glyph-name="uniE240" unicode="&#xf64c;" 
d="M333 -8c-191 0 -312 141 -312 306c0 172 128 306 307 306c127 0 219 -61 270 -149l-117 -67c-31 56 -83 88 -152 88c-97 0 -174 -77 -174 -178c0 -104 73 -179 176 -179c75 0 127 39 147 103h-173v126h318v-61c0 -160 -114 -295 -290 -295zM321 -250h-83l34 204h119z" />
    <glyph glyph-name="uniE241" unicode="&#xe241;" horiz-adv-x="421" 
d="M37 0v596h353v-125h-220v-109h220v-126h-220v-111h220v-125h-353zM178 646l-119 170h102l59 -89l59 89h102l-119 -170h-84z" />
    <glyph glyph-name="uniE241" unicode="&#xf647;" horiz-adv-x="421" 
d="M37 0v596h353v-125h-220v-109h220v-126h-220v-111h220v-125h-353zM178 646l-119 170h102l59 -89l59 89h102l-119 -170h-84z" />
    <glyph glyph-name="uniE242" unicode="&#xe242;" horiz-adv-x="421" 
d="M37 0v596h353v-125h-220v-109h220v-126h-220v-111h220v-125h-353zM85 646v86h264v-86h-264z" />
    <glyph glyph-name="uniE242" unicode="&#xf649;" horiz-adv-x="421" 
d="M37 0v596h353v-125h-220v-109h220v-126h-220v-111h220v-125h-353zM85 646v86h264v-86h-264z" />
    <glyph glyph-name="uniE243" unicode="&#xe243;" horiz-adv-x="421" 
d="M37 0v596h353v-125h-220v-109h220v-126h-220v-111h220v-125h-353zM225 638c-110 0 -161 73 -161 170h85c0 -64 27 -93 76 -96c48 3 76 32 76 96h86c0 -97 -61 -170 -162 -170z" />
    <glyph glyph-name="uniE243" unicode="&#xf62a;" horiz-adv-x="421" 
d="M37 0v596h353v-125h-220v-109h220v-126h-220v-111h220v-125h-353zM225 638c-110 0 -161 73 -161 170h85c0 -64 27 -93 76 -96c48 3 76 32 76 96h86c0 -97 -61 -170 -162 -170z" />
    <glyph glyph-name="uniE246" unicode="&#xe246;" horiz-adv-x="421" 
d="M37 0v596h353v-125h-220v-109h220v-126h-220v-111h220v-125h-353zM136 715c0 47 31 79 79 79c49 0 79 -32 79 -79s-30 -78 -79 -78c-51 0 -79 31 -79 78z" />
    <glyph glyph-name="uniE246" unicode="&#xf648;" horiz-adv-x="421" 
d="M37 0v596h353v-125h-220v-109h220v-126h-220v-111h220v-125h-353zM136 715c0 47 31 79 79 79c49 0 79 -32 79 -79s-30 -78 -79 -78c-51 0 -79 31 -79 78z" />
    <glyph glyph-name="uniE249" unicode="&#xe249;" horiz-adv-x="421" 
d="M37 0v596h353v-125h-220v-109h220v-126h-220v-111h220v-125c-109 -72 -130 -87 -130 -113c0 -23 20 -31 43 -31c27 0 41 14 60 29l79 -54c-35 -32 -91 -58 -139 -58c-87 0 -144 48 -144 109c0 40 17 77 77 118h-199z" />
    <glyph glyph-name="uniE249" unicode="&#xf64a;" horiz-adv-x="421" 
d="M37 0v596h353v-125h-220v-109h220v-126h-220v-111h220v-125c-109 -72 -130 -87 -130 -113c0 -23 20 -31 43 -31c27 0 41 14 60 29l79 -54c-35 -32 -91 -58 -139 -58c-87 0 -144 48 -144 109c0 40 17 77 77 118h-199z" />
    <glyph glyph-name="uniE24B" unicode="&#xe24b;" 
d="M333 -8c-191 0 -312 141 -312 306c0 172 128 306 307 306c127 0 219 -61 270 -149l-117 -67c-31 56 -83 88 -152 88c-97 0 -174 -77 -174 -178c0 -104 73 -179 176 -179c75 0 127 39 147 103h-173v126h318v-61c0 -160 -114 -295 -290 -295zM171 646l119 170h84l119 -170
h-102l-59 89l-59 -89h-102z" />
    <glyph glyph-name="uniE24B" unicode="&#xf62c;" 
d="M333 -8c-191 0 -312 141 -312 306c0 172 128 306 307 306c127 0 219 -61 270 -149l-117 -67c-31 56 -83 88 -152 88c-97 0 -174 -77 -174 -178c0 -104 73 -179 176 -179c75 0 127 39 147 103h-173v126h318v-61c0 -160 -114 -295 -290 -295zM171 646l119 170h84l119 -170
h-102l-59 89l-59 -89h-102z" />
    <glyph glyph-name="uniE24E" unicode="&#xe24e;" 
d="M333 -8c-191 0 -312 141 -312 306c0 172 128 306 307 306c127 0 219 -61 270 -149l-117 -67c-31 56 -83 88 -152 88c-97 0 -174 -77 -174 -178c0 -104 73 -179 176 -179c75 0 127 39 147 103h-173v126h318v-61c0 -160 -114 -295 -290 -295zM332 638
c-110 0 -161 73 -161 170h85c0 -64 27 -93 76 -96c48 3 76 32 76 96h86c0 -97 -61 -170 -162 -170z" />
    <glyph glyph-name="uniE24E" unicode="&#xf64b;" 
d="M333 -8c-191 0 -312 141 -312 306c0 172 128 306 307 306c127 0 219 -61 270 -149l-117 -67c-31 56 -83 88 -152 88c-97 0 -174 -77 -174 -178c0 -104 73 -179 176 -179c75 0 127 39 147 103h-173v126h318v-61c0 -160 -114 -295 -290 -295zM332 638
c-110 0 -161 73 -161 170h85c0 -64 27 -93 76 -96c48 3 76 32 76 96h86c0 -97 -61 -170 -162 -170z" />
    <glyph glyph-name="uniE24F" unicode="&#xe24f;" 
d="M333 -8c-191 0 -312 141 -312 306c0 172 128 306 307 306c127 0 219 -61 270 -149l-117 -67c-31 56 -83 88 -152 88c-97 0 -174 -77 -174 -178c0 -104 73 -179 176 -179c75 0 127 39 147 103h-173v126h318v-61c0 -160 -114 -295 -290 -295zM252 715c0 47 31 79 79 79
c49 0 79 -32 79 -79s-30 -78 -79 -78c-51 0 -79 31 -79 78z" />
    <glyph glyph-name="uniE24F" unicode="&#xf62d;" 
d="M333 -8c-191 0 -312 141 -312 306c0 172 128 306 307 306c127 0 219 -61 270 -149l-117 -67c-31 56 -83 88 -152 88c-97 0 -174 -77 -174 -178c0 -104 73 -179 176 -179c75 0 127 39 147 103h-173v126h318v-61c0 -160 -114 -295 -290 -295zM252 715c0 47 31 79 79 79
c49 0 79 -32 79 -79s-30 -78 -79 -78c-51 0 -79 31 -79 78z" />
    <glyph glyph-name="uniE253" unicode="&#xe253;" horiz-adv-x="528" 
d="M357 0v234h-186v-234h-134v596h134v-230h186v230h134v-596h-134zM104 646l119 170h84l119 -170h-102l-59 89l-59 -89h-102z" />
    <glyph glyph-name="uniE253" unicode="&#xf62f;" horiz-adv-x="528" 
d="M357 0v234h-186v-234h-134v596h134v-230h186v230h134v-596h-134zM104 646l119 170h84l119 -170h-102l-59 89l-59 -89h-102z" />
    <glyph glyph-name="uniE257" unicode="&#xe257;" horiz-adv-x="550" 
d="M368 0v215h-186v-215h-134v404h-37v132h37v60h134v-60h186v60h134v-60h36v-132h-36v-404h-134zM182 404v-57h186v57h-186z" />
    <glyph glyph-name="uniE257" unicode="&#xf62e;" horiz-adv-x="550" 
d="M368 0v215h-186v-215h-134v404h-37v132h37v60h134v-60h186v60h134v-60h36v-132h-36v-404h-134zM182 404v-57h186v57h-186z" />
    <glyph glyph-name="uniE258" unicode="&#xe258;" horiz-adv-x="219" 
d="M61 646l115 170h126l-150 -170h-91zM42 0v596h135v-596h-135z" />
    <glyph glyph-name="uniE258" unicode="&#xf7ed;" horiz-adv-x="219" 
d="M61 646l115 170h126l-150 -170h-91zM42 0v596h135v-596h-135z" />
    <glyph glyph-name="uniE259" unicode="&#xe259;" horiz-adv-x="219" 
d="M67 646l-150 170h127l114 -170h-91zM42 0v596h135v-596h-135z" />
    <glyph glyph-name="uniE259" unicode="&#xf7ec;" horiz-adv-x="219" 
d="M67 646l-150 170h127l114 -170h-91zM42 0v596h135v-596h-135z" />
    <glyph glyph-name="uniE25A" unicode="&#xe25a;" horiz-adv-x="219" 
d="M42 0v596h135v-596h-135zM-42 646l119 170h84l119 -170h-102l-59 89l-59 -89h-102z" />
    <glyph glyph-name="uniE25A" unicode="&#xf7ee;" horiz-adv-x="219" 
d="M42 0v596h135v-596h-135zM-42 646l119 170h84l119 -170h-102l-59 89l-59 -89h-102z" />
    <glyph glyph-name="uniE25B" unicode="&#xe25b;" horiz-adv-x="219" 
d="M168 647v137h134v-137h-134zM-63 647v137h134v-137h-134zM42 0v596h135v-596h-135z" />
    <glyph glyph-name="uniE25B" unicode="&#xf7ef;" horiz-adv-x="219" 
d="M168 647v137h134v-137h-134zM-63 647v137h134v-137h-134zM42 0v596h135v-596h-135z" />
    <glyph glyph-name="uniE25C" unicode="&#xe25c;" horiz-adv-x="219" 
d="M42 0v596h135v-596h-135zM26 646h-78c0 81 39 135 104 135c33 0 56 -12 77 -24c19 -13 35 -25 52 -25c19 0 28 15 28 45h78c0 -83 -34 -135 -105 -135c-39 0 -64 18 -87 31c-15 9 -28 17 -43 17c-17 0 -26 -15 -26 -44z" />
    <glyph glyph-name="uniE25C" unicode="&#xf632;" horiz-adv-x="219" 
d="M42 0v596h135v-596h-135zM26 646h-78c0 81 39 135 104 135c33 0 56 -12 77 -24c19 -13 35 -25 52 -25c19 0 28 15 28 45h78c0 -83 -34 -135 -105 -135c-39 0 -64 18 -87 31c-15 9 -28 17 -43 17c-17 0 -26 -15 -26 -44z" />
    <glyph glyph-name="uniE25E" unicode="&#xe25e;" horiz-adv-x="219" 
d="M-24 646v86h264v-86h-264zM42 0v596h135v-596h-135z" />
    <glyph glyph-name="uniE25E" unicode="&#xf64d;" horiz-adv-x="219" 
d="M-24 646v86h264v-86h-264zM42 0v596h135v-596h-135z" />
    <glyph glyph-name="uniE25F" unicode="&#xe25f;" horiz-adv-x="219" 
d="M42 0v596h135v-596h-135zM109 638c-110 0 -161 73 -161 170h85c0 -64 27 -93 76 -96c48 3 76 32 76 96h86c0 -97 -61 -170 -162 -170z" />
    <glyph glyph-name="uniE25F" unicode="&#xf630;" horiz-adv-x="219" 
d="M42 0v596h135v-596h-135zM109 638c-110 0 -161 73 -161 170h85c0 -64 27 -93 76 -96c48 3 76 32 76 96h86c0 -97 -61 -170 -162 -170z" />
    <glyph glyph-name="uniE262" unicode="&#xe262;" horiz-adv-x="219" 
d="M42 0v596h135v-596h-135zM30 715c0 47 31 79 79 79c49 0 79 -32 79 -79s-30 -78 -79 -78c-51 0 -79 31 -79 78z" />
    <glyph glyph-name="uniE262" unicode="&#xf666;" horiz-adv-x="219" 
d="M42 0v596h135v-596h-135zM30 715c0 47 31 79 79 79c49 0 79 -32 79 -79s-30 -78 -79 -78c-51 0 -79 31 -79 78z" />
    <glyph glyph-name="uniE264" unicode="&#xe264;" horiz-adv-x="219" 
d="M105 -229c-77 0 -131 45 -132 108c0 51 25 89 69 125v592h135v-596c-76 -47 -105 -87 -105 -111c0 -23 15 -33 38 -33c20 0 37 14 50 30l79 -55c-35 -36 -75 -60 -134 -60z" />
    <glyph glyph-name="uniE264" unicode="&#xf64e;" horiz-adv-x="219" 
d="M105 -229c-77 0 -131 45 -132 108c0 51 25 89 69 125v592h135v-596c-76 -47 -105 -87 -105 -111c0 -23 15 -33 38 -33c20 0 37 14 50 30l79 -55c-35 -36 -75 -60 -134 -60z" />
    <glyph glyph-name="uniE265" unicode="&#xe265;" horiz-adv-x="433" 
d="M210 -8c-100 0 -169 51 -192 130l128 51c9 -35 28 -58 63 -58s53 27 53 63v418h135v-409c0 -123 -60 -195 -187 -195zM167 646l119 170h84l119 -170h-102l-59 89l-59 -89h-102z" />
    <glyph glyph-name="uniE265" unicode="&#xf633;" horiz-adv-x="433" 
d="M210 -8c-100 0 -169 51 -192 130l128 51c9 -35 28 -58 63 -58s53 27 53 63v418h135v-409c0 -123 -60 -195 -187 -195zM167 646l119 170h84l119 -170h-102l-59 89l-59 -89h-102z" />
    <glyph glyph-name="uniE268" unicode="&#xe268;" horiz-adv-x="524" 
d="M365 0l-141 263l-53 -70v-193h-134v596h134v-225l172 225h159l-181 -235l194 -361h-150zM255 -244h-83l34 204h119z" />
    <glyph glyph-name="uniE268" unicode="&#xf64f;" horiz-adv-x="524" 
d="M365 0l-141 263l-53 -70v-193h-134v596h134v-225l172 225h159l-181 -235l194 -361h-150zM255 -244h-83l34 204h119z" />
    <glyph glyph-name="uniE26B" unicode="&#xe26b;" horiz-adv-x="400" 
d="M37 0v596h134v-468h201v-128h-335zM55 646l115 170h126l-150 -170h-91z" />
    <glyph glyph-name="uniE26B" unicode="&#xf650;" horiz-adv-x="400" 
d="M37 0v596h134v-468h201v-128h-335zM55 646l115 170h126l-150 -170h-91z" />
    <glyph glyph-name="uniE26C" unicode="&#xe26c;" horiz-adv-x="400" 
d="M37 0v596h134v-468h201v-128h-335zM246 425l25 171h109l-51 -171h-83z" />
    <glyph glyph-name="uniE26C" unicode="&#xf651;" horiz-adv-x="400" 
d="M37 0v596h134v-468h201v-128h-335zM246 425l25 171h109l-51 -171h-83z" />
    <glyph glyph-name="uniE26D" unicode="&#xe26d;" horiz-adv-x="400" 
d="M37 0v596h134v-468h201v-128h-335zM195 -254h-83l34 204h119z" />
    <glyph glyph-name="uniE26D" unicode="&#xf652;" horiz-adv-x="400" 
d="M37 0v596h134v-468h201v-128h-335zM195 -254h-83l34 204h119z" />
    <glyph glyph-name="uniE271" unicode="&#xe271;" horiz-adv-x="399" 
d="M37 0v596h134v-468h200v-128h-334zM224 315c0 47 31 79 79 79c49 0 79 -32 79 -79s-30 -78 -79 -78c-51 0 -79 31 -79 78z" />
    <glyph glyph-name="uniE271" unicode="&#xf634;" horiz-adv-x="399" 
d="M37 0v596h134v-468h200v-128h-334zM224 315c0 47 31 79 79 79c49 0 79 -32 79 -79s-30 -78 -79 -78c-51 0 -79 31 -79 78z" />
    <glyph glyph-name="uniE272" unicode="&#xe272;" horiz-adv-x="434" 
d="M12 227v98l59 17v254h134v-214l134 41v-98l-134 -41v-156h201v-128h-335v244z" />
    <glyph glyph-name="uniE272" unicode="&#xf6f9;" horiz-adv-x="434" 
d="M12 227v98l59 17v254h134v-214l134 41v-98l-134 -41v-156h201v-128h-335v244z" />
    <glyph glyph-name="uniE276" unicode="&#xe276;" horiz-adv-x="579" 
d="M37 0v596h145l227 -359v359h133v-596h-134l-238 374v-374h-133zM248 646l115 170h126l-150 -170h-91z" />
    <glyph glyph-name="uniE276" unicode="&#xf653;" horiz-adv-x="579" 
d="M37 0v596h145l227 -359v359h133v-596h-134l-238 374v-374h-133zM248 646l115 170h126l-150 -170h-91z" />
    <glyph glyph-name="uniE279" unicode="&#xe279;" horiz-adv-x="579" 
d="M37 0v596h145l227 -359v359h133v-596h-134l-238 374v-374h-133zM203 646h-78c0 81 39 135 104 135c33 0 56 -12 77 -24c19 -13 35 -25 52 -25c19 0 28 15 28 45h78c0 -83 -34 -135 -105 -135c-39 0 -64 18 -87 31c-15 9 -28 17 -43 17c-17 0 -26 -15 -26 -44z" />
    <glyph glyph-name="uniE27A" unicode="&#xe27a;" horiz-adv-x="579" 
d="M37 0v596h145l227 -359v359h133v-596h-134l-238 374v-374h-133zM253 638l-119 170h102l59 -89l59 89h102l-119 -170h-84z" />
    <glyph glyph-name="uniE27A" unicode="&#xf654;" horiz-adv-x="579" 
d="M37 0v596h145l227 -359v359h133v-596h-134l-238 374v-374h-133zM253 638l-119 170h102l59 -89l59 89h102l-119 -170h-84z" />
    <glyph glyph-name="uniE27D" unicode="&#xe27d;" horiz-adv-x="579" 
d="M37 0v596h145l227 -359v359h133v-596h-134l-238 374v-374h-133zM289 -254h-83l34 204h119z" />
    <glyph glyph-name="uniE27D" unicode="&#xf655;" horiz-adv-x="579" 
d="M37 0v596h145l227 -359v359h133v-596h-134l-238 374v-374h-133zM289 -254h-83l34 204h119z" />
    <glyph glyph-name="uniE281" unicode="&#xe281;" horiz-adv-x="653" 
d="M326 -8c-170 0 -305 136 -305 306c0 169 135 306 305 306c169 0 306 -137 306 -306c0 -170 -136 -306 -306 -306zM326 124c98 0 170 78 170 174s-73 174 -170 174c-96 0 -169 -78 -169 -174s73 -174 169 -174zM277 646l115 170h126l-150 -170h-91z" />
    <glyph glyph-name="uniE281" unicode="&#xf7f3;" horiz-adv-x="653" 
d="M326 -8c-170 0 -305 136 -305 306c0 169 135 306 305 306c169 0 306 -137 306 -306c0 -170 -136 -306 -306 -306zM326 124c98 0 170 78 170 174s-73 174 -170 174c-96 0 -169 -78 -169 -174s73 -174 169 -174zM277 646l115 170h126l-150 -170h-91z" />
    <glyph glyph-name="uniE282" unicode="&#xe282;" horiz-adv-x="653" 
d="M326 -8c-170 0 -305 136 -305 306c0 169 135 306 305 306c169 0 306 -137 306 -306c0 -170 -136 -306 -306 -306zM326 124c98 0 170 78 170 174s-73 174 -170 174c-96 0 -169 -78 -169 -174s73 -174 169 -174zM294 646l-150 170h127l114 -170h-91z" />
    <glyph glyph-name="uniE282" unicode="&#xf7f2;" horiz-adv-x="653" 
d="M326 -8c-170 0 -305 136 -305 306c0 169 135 306 305 306c169 0 306 -137 306 -306c0 -170 -136 -306 -306 -306zM326 124c98 0 170 78 170 174s-73 174 -170 174c-96 0 -169 -78 -169 -174s73 -174 169 -174zM294 646l-150 170h127l114 -170h-91z" />
    <glyph glyph-name="uniE283" unicode="&#xe283;" horiz-adv-x="653" 
d="M326 -8c-170 0 -305 136 -305 306c0 169 135 306 305 306c169 0 306 -137 306 -306c0 -170 -136 -306 -306 -306zM326 124c98 0 170 78 170 174s-73 174 -170 174c-96 0 -169 -78 -169 -174s73 -174 169 -174zM165 646l119 170h84l119 -170h-102l-59 89l-59 -89h-102z
" />
    <glyph glyph-name="uniE283" unicode="&#xf7f4;" horiz-adv-x="653" 
d="M326 -8c-170 0 -305 136 -305 306c0 169 135 306 305 306c169 0 306 -137 306 -306c0 -170 -136 -306 -306 -306zM326 124c98 0 170 78 170 174s-73 174 -170 174c-96 0 -169 -78 -169 -174s73 -174 169 -174zM165 646l119 170h84l119 -170h-102l-59 89l-59 -89h-102z
" />
    <glyph glyph-name="uniE284" unicode="&#xe284;" horiz-adv-x="653" 
d="M326 -8c-170 0 -305 136 -305 306c0 169 135 306 305 306c169 0 306 -137 306 -306c0 -170 -136 -306 -306 -306zM326 124c98 0 170 78 170 174s-73 174 -170 174c-96 0 -169 -78 -169 -174s73 -174 169 -174zM159 715c0 43 28 72 72 72c45 0 72 -29 72 -72
s-27 -71 -72 -71s-72 28 -72 71zM350 715c0 43 28 72 72 72s72 -29 72 -72s-28 -71 -72 -71c-47 0 -72 28 -72 71z" />
    <glyph glyph-name="uniE284" unicode="&#xf7f6;" horiz-adv-x="653" 
d="M326 -8c-170 0 -305 136 -305 306c0 169 135 306 305 306c169 0 306 -137 306 -306c0 -170 -136 -306 -306 -306zM326 124c98 0 170 78 170 174s-73 174 -170 174c-96 0 -169 -78 -169 -174s73 -174 169 -174zM159 715c0 43 28 72 72 72c45 0 72 -29 72 -72
s-27 -71 -72 -71s-72 28 -72 71zM350 715c0 43 28 72 72 72s72 -29 72 -72s-28 -71 -72 -71c-47 0 -72 28 -72 71z" />
    <glyph glyph-name="uniE285" unicode="&#xe285;" horiz-adv-x="653" 
d="M326 -8c-170 0 -305 136 -305 306c0 169 135 306 305 306c169 0 306 -137 306 -306c0 -170 -136 -306 -306 -306zM326 124c98 0 170 78 170 174s-73 174 -170 174c-96 0 -169 -78 -169 -174s73 -174 169 -174zM245 646h-78c0 81 39 135 104 135c33 0 56 -12 77 -24
c19 -13 35 -25 52 -25c19 0 28 15 28 45h78c0 -83 -34 -135 -105 -135c-39 0 -64 18 -87 31c-15 9 -28 17 -43 17c-17 0 -26 -15 -26 -44z" />
    <glyph glyph-name="uniE285" unicode="&#xf7f5;" horiz-adv-x="653" 
d="M326 -8c-170 0 -305 136 -305 306c0 169 135 306 305 306c169 0 306 -137 306 -306c0 -170 -136 -306 -306 -306zM326 124c98 0 170 78 170 174s-73 174 -170 174c-96 0 -169 -78 -169 -174s73 -174 169 -174zM245 646h-78c0 81 39 135 104 135c33 0 56 -12 77 -24
c19 -13 35 -25 52 -25c19 0 28 15 28 45h78c0 -83 -34 -135 -105 -135c-39 0 -64 18 -87 31c-15 9 -28 17 -43 17c-17 0 -26 -15 -26 -44z" />
    <glyph glyph-name="uniE287" unicode="&#xe287;" horiz-adv-x="653" 
d="M326 -8c-170 0 -305 136 -305 306c0 169 135 306 305 306c169 0 306 -137 306 -306c0 -170 -136 -306 -306 -306zM326 124c98 0 170 78 170 174s-73 174 -170 174c-96 0 -169 -78 -169 -174s73 -174 169 -174zM194 646v86h264v-86h-264z" />
    <glyph glyph-name="uniE287" unicode="&#xf657;" horiz-adv-x="653" 
d="M326 -8c-170 0 -305 136 -305 306c0 169 135 306 305 306c169 0 306 -137 306 -306c0 -170 -136 -306 -306 -306zM326 124c98 0 170 78 170 174s-73 174 -170 174c-96 0 -169 -78 -169 -174s73 -174 169 -174zM194 646v86h264v-86h-264z" />
    <glyph glyph-name="uniE288" unicode="&#xe288;" horiz-adv-x="653" 
d="M326 -8c-170 0 -305 136 -305 306c0 169 135 306 305 306c169 0 306 -137 306 -306c0 -170 -136 -306 -306 -306zM326 124c98 0 170 78 170 174s-73 174 -170 174c-96 0 -169 -78 -169 -174s73 -174 169 -174zM326 638c-110 0 -161 73 -161 170h85c0 -64 27 -93 76 -96
c48 3 76 32 76 96h86c0 -97 -61 -170 -162 -170z" />
    <glyph glyph-name="uniE288" unicode="&#xf635;" horiz-adv-x="653" 
d="M326 -8c-170 0 -305 136 -305 306c0 169 135 306 305 306c169 0 306 -137 306 -306c0 -170 -136 -306 -306 -306zM326 124c98 0 170 78 170 174s-73 174 -170 174c-96 0 -169 -78 -169 -174s73 -174 169 -174zM326 638c-110 0 -161 73 -161 170h85c0 -64 27 -93 76 -96
c48 3 76 32 76 96h86c0 -97 -61 -170 -162 -170z" />
    <glyph glyph-name="uniE28A" unicode="&#xe28a;" horiz-adv-x="653" 
d="M326 -8c-170 0 -305 136 -305 306c0 169 135 306 305 306c169 0 306 -137 306 -306c0 -170 -136 -306 -306 -306zM326 124c98 0 170 78 170 174s-73 174 -170 174c-96 0 -169 -78 -169 -174s73 -174 169 -174zM195 643l114 170h120l-150 -170h-84zM361 643l114 170h120
l-150 -170h-84z" />
    <glyph glyph-name="uniE28A" unicode="&#xf656;" horiz-adv-x="653" 
d="M326 -8c-170 0 -305 136 -305 306c0 169 135 306 305 306c169 0 306 -137 306 -306c0 -170 -136 -306 -306 -306zM326 124c98 0 170 78 170 174s-73 174 -170 174c-96 0 -169 -78 -169 -174s73 -174 169 -174zM195 643l114 170h120l-150 -170h-84zM361 643l114 170h120
l-150 -170h-84z" />
    <glyph glyph-name="uniE295" unicode="&#xe295;" horiz-adv-x="653" 
d="M326 -8c-53 0 -103 13 -146 36l-23 -28h-150l84 102c-44 53 -70 120 -70 196c0 169 135 306 305 306c53 0 103 -13 148 -39l25 31h150l-86 -105c43 -53 69 -120 69 -193c0 -170 -136 -306 -306 -306zM156 298c0 -33 8 -62 23 -89l208 252c-20 7 -40 11 -61 11
c-96 0 -170 -78 -170 -174zM326 124c98 0 170 78 170 174c0 31 -7 60 -22 86l-207 -250c17 -7 37 -10 59 -10z" />
    <glyph glyph-name="uniE295" unicode="&#xf7f8;" horiz-adv-x="653" 
d="M326 -8c-53 0 -103 13 -146 36l-23 -28h-150l84 102c-44 53 -70 120 -70 196c0 169 135 306 305 306c53 0 103 -13 148 -39l25 31h150l-86 -105c43 -53 69 -120 69 -193c0 -170 -136 -306 -306 -306zM156 298c0 -33 8 -62 23 -89l208 252c-20 7 -40 11 -61 11
c-96 0 -170 -78 -170 -174zM326 124c98 0 170 78 170 174c0 31 -7 60 -22 86l-207 -250c17 -7 37 -10 59 -10z" />
    <glyph glyph-name="uniE296" unicode="&#xe296;" horiz-adv-x="653" 
d="M326 -8c-53 0 -103 13 -146 36l-23 -28h-150l84 102c-44 53 -70 120 -70 196c0 169 135 306 305 306c53 0 103 -13 148 -39l25 31h150l-86 -105c43 -53 69 -120 69 -193c0 -170 -136 -306 -306 -306zM156 298c0 -33 8 -62 23 -89l208 252c-20 7 -40 11 -61 11
c-96 0 -170 -78 -170 -174zM326 124c98 0 170 78 170 174c0 31 -7 60 -22 86l-207 -250c17 -7 37 -10 59 -10zM271 646l115 170h126l-150 -170h-91z" />
    <glyph glyph-name="uniE296" unicode="&#xf627;" horiz-adv-x="653" 
d="M326 -8c-53 0 -103 13 -146 36l-23 -28h-150l84 102c-44 53 -70 120 -70 196c0 169 135 306 305 306c53 0 103 -13 148 -39l25 31h150l-86 -105c43 -53 69 -120 69 -193c0 -170 -136 -306 -306 -306zM156 298c0 -33 8 -62 23 -89l208 252c-20 7 -40 11 -61 11
c-96 0 -170 -78 -170 -174zM326 124c98 0 170 78 170 174c0 31 -7 60 -22 86l-207 -250c17 -7 37 -10 59 -10zM271 646l115 170h126l-150 -170h-91z" />
    <glyph glyph-name="uniE298" unicode="&#xe298;" horiz-adv-x="885" 
d="M500 0v53c-47 -39 -105 -61 -174 -61c-170 0 -305 136 -305 306c0 169 135 306 305 306c69 0 127 -23 174 -62v54h354v-125h-221v-109h221v-126h-221v-111h221v-125h-354zM326 124c98 0 170 78 170 174s-73 174 -170 174c-96 0 -169 -78 -169 -174s73 -174 169 -174z" />
    <glyph glyph-name="uniE298" unicode="&#xf6fa;" horiz-adv-x="885" 
d="M500 0v53c-47 -39 -105 -61 -174 -61c-170 0 -305 136 -305 306c0 169 135 306 305 306c69 0 127 -23 174 -62v54h354v-125h-221v-109h221v-126h-221v-111h221v-125h-354zM326 124c98 0 170 78 170 174s-73 174 -170 174c-96 0 -169 -78 -169 -174s73 -174 169 -174z" />
    <glyph glyph-name="uniE29A" unicode="&#xe29a;" horiz-adv-x="489" 
d="M37 0v596h207c142 0 224 -92 224 -203c0 -76 -38 -143 -114 -175l130 -218h-152l-162 289v-289h-133zM234 473h-64v-168h64c67 0 96 43 96 86c0 55 -32 82 -96 82zM171 646l115 170h126l-150 -170h-91z" />
    <glyph glyph-name="uniE29A" unicode="&#xf658;" horiz-adv-x="489" 
d="M37 0v596h207c142 0 224 -92 224 -203c0 -76 -38 -143 -114 -175l130 -218h-152l-162 289v-289h-133zM234 473h-64v-168h64c67 0 96 43 96 86c0 55 -32 82 -96 82zM171 646l115 170h126l-150 -170h-91z" />
    <glyph glyph-name="uniE29B" unicode="&#xe29b;" horiz-adv-x="489" 
d="M37 0v596h207c142 0 224 -92 224 -203c0 -76 -38 -143 -114 -175l130 -218h-152l-162 289v-289h-133zM196 646l-119 170h102l59 -89l59 89h102l-119 -170h-84zM234 473h-64v-168h64c67 0 96 43 96 86c0 55 -32 82 -96 82z" />
    <glyph glyph-name="uniE29B" unicode="&#xf659;" horiz-adv-x="489" 
d="M37 0v596h207c142 0 224 -92 224 -203c0 -76 -38 -143 -114 -175l130 -218h-152l-162 289v-289h-133zM196 646l-119 170h102l59 -89l59 89h102l-119 -170h-84zM234 473h-64v-168h64c67 0 96 43 96 86c0 55 -32 82 -96 82z" />
    <glyph glyph-name="uniE29E" unicode="&#xe29e;" horiz-adv-x="489" 
d="M37 0v596h207c142 0 224 -92 224 -203c0 -76 -38 -143 -114 -175l130 -218h-152l-162 289v-289h-133zM234 473h-64v-168h64c67 0 96 43 96 86c0 55 -32 82 -96 82zM237 -252h-83l34 204h119z" />
    <glyph glyph-name="uniE29E" unicode="&#xf65a;" horiz-adv-x="489" 
d="M37 0v596h207c142 0 224 -92 224 -203c0 -76 -38 -143 -114 -175l130 -218h-152l-162 289v-289h-133zM234 473h-64v-168h64c67 0 96 43 96 86c0 55 -32 82 -96 82zM237 -252h-83l34 204h119z" />
    <glyph glyph-name="uniE300" unicode="&#xe300;" horiz-adv-x="519" 
d="M260 -8c-134 0 -223 80 -223 223v381h134v-385c0 -59 35 -97 88 -97s90 38 90 97v385h134v-381c0 -144 -88 -223 -223 -223zM100 646l119 170h84l119 -170h-102l-59 89l-59 -89h-102z" />
    <glyph glyph-name="uniE300" unicode="&#xf7fb;" horiz-adv-x="519" 
d="M260 -8c-134 0 -223 80 -223 223v381h134v-385c0 -59 35 -97 88 -97s90 38 90 97v385h134v-381c0 -144 -88 -223 -223 -223zM100 646l119 170h84l119 -170h-102l-59 89l-59 -89h-102z" />
    <glyph glyph-name="uniE302" unicode="&#xe302;" horiz-adv-x="488" 
d="M192 646l115 170h126l-150 -170h-91zM244 -8c-115 0 -183 50 -236 108l117 92c29 -47 72 -75 119 -75c48 0 77 30 77 63c0 42 -55 54 -115 72c-79 24 -170 56 -170 173c0 104 84 180 204 180c104 0 165 -42 210 -93l-108 -83c-23 37 -58 59 -101 59s-69 -24 -69 -55
c0 -40 52 -53 113 -72c80 -24 175 -61 175 -178c0 -99 -79 -191 -216 -191z" />
    <glyph glyph-name="uniE302" unicode="&#xf65b;" horiz-adv-x="488" 
d="M192 646l115 170h126l-150 -170h-91zM244 -8c-115 0 -183 50 -236 108l117 92c29 -47 72 -75 119 -75c48 0 77 30 77 63c0 42 -55 54 -115 72c-79 24 -170 56 -170 173c0 104 84 180 204 180c104 0 165 -42 210 -93l-108 -83c-23 37 -58 59 -101 59s-69 -24 -69 -55
c0 -40 52 -53 113 -72c80 -24 175 -61 175 -178c0 -99 -79 -191 -216 -191z" />
    <glyph glyph-name="uniE303" unicode="&#xe303;" horiz-adv-x="488" 
d="M244 -8c-115 0 -183 50 -236 108l117 92c29 -47 72 -75 119 -75c48 0 77 30 77 63c0 42 -55 54 -115 72c-79 24 -170 56 -170 173c0 104 84 180 204 180c104 0 165 -42 210 -93l-108 -83c-23 37 -58 59 -101 59s-69 -24 -69 -55c0 -40 52 -53 113 -72
c80 -24 175 -61 175 -178c0 -99 -79 -191 -216 -191zM88 646l119 170h84l119 -170h-102l-59 89l-59 -89h-102z" />
    <glyph glyph-name="uniE303" unicode="&#xf636;" horiz-adv-x="488" 
d="M244 -8c-115 0 -183 50 -236 108l117 92c29 -47 72 -75 119 -75c48 0 77 30 77 63c0 42 -55 54 -115 72c-79 24 -170 56 -170 173c0 104 84 180 204 180c104 0 165 -42 210 -93l-108 -83c-23 37 -58 59 -101 59s-69 -24 -69 -55c0 -40 52 -53 113 -72
c80 -24 175 -61 175 -178c0 -99 -79 -191 -216 -191zM88 646l119 170h84l119 -170h-102l-59 89l-59 -89h-102z" />
    <glyph glyph-name="uniE304" unicode="&#xe304;" horiz-adv-x="488" 
d="M244 -8c-115 0 -183 50 -236 108l117 92c29 -47 72 -75 119 -75c48 0 77 30 77 63c0 42 -55 54 -115 72c-79 24 -170 56 -170 173c0 104 84 180 204 180c104 0 165 -42 210 -93l-108 -83c-23 37 -58 59 -101 59s-69 -24 -69 -55c0 -40 52 -53 113 -72
c80 -24 175 -61 175 -178c0 -99 -79 -191 -216 -191zM209 646l-119 170h102l59 -89l59 89h102l-119 -170h-84z" />
    <glyph glyph-name="uniE304" unicode="&#xf6fd;" horiz-adv-x="488" 
d="M244 -8c-115 0 -183 50 -236 108l117 92c29 -47 72 -75 119 -75c48 0 77 30 77 63c0 42 -55 54 -115 72c-79 24 -170 56 -170 173c0 104 84 180 204 180c104 0 165 -42 210 -93l-108 -83c-23 37 -58 59 -101 59s-69 -24 -69 -55c0 -40 52 -53 113 -72
c80 -24 175 -61 175 -178c0 -99 -79 -191 -216 -191zM209 646l-119 170h102l59 -89l59 89h102l-119 -170h-84z" />
    <glyph glyph-name="uniE305" unicode="&#xe305;" horiz-adv-x="488" 
d="M234 -249h-83l34 204h119zM244 -8c-115 0 -183 50 -236 108l117 92c29 -47 72 -75 119 -75c48 0 77 30 77 63c0 42 -55 54 -115 72c-79 24 -170 56 -170 173c0 104 84 180 204 180c104 0 165 -42 210 -93l-108 -83c-23 37 -58 59 -101 59s-69 -24 -69 -55
c0 -40 52 -53 113 -72c80 -24 175 -61 175 -178c0 -99 -79 -191 -216 -191z" />
    <glyph glyph-name="uniE305" unicode="&#xf65d;" horiz-adv-x="488" 
d="M234 -249h-83l34 204h119zM244 -8c-115 0 -183 50 -236 108l117 92c29 -47 72 -75 119 -75c48 0 77 30 77 63c0 42 -55 54 -115 72c-79 24 -170 56 -170 173c0 104 84 180 204 180c104 0 165 -42 210 -93l-108 -83c-23 37 -58 59 -101 59s-69 -24 -69 -55
c0 -40 52 -53 113 -72c80 -24 175 -61 175 -178c0 -99 -79 -191 -216 -191z" />
    <glyph glyph-name="uniE306" unicode="&#xe306;" horiz-adv-x="488" 
d="M234 -240c-53 0 -105 24 -144 59l78 47c23 -19 41 -34 76 -34c29 0 55 14 55 31c0 18 -19 27 -58 27h-50v106c-84 12 -140 53 -183 104l117 92c29 -47 72 -75 119 -75c48 0 77 30 77 63c0 42 -55 54 -115 72c-79 24 -170 56 -170 173c0 104 84 180 204 180
c104 0 165 -42 210 -93l-108 -83c-23 37 -58 59 -101 59s-69 -24 -69 -55c0 -40 52 -53 113 -72c80 -24 175 -61 175 -178c0 -91 -68 -178 -185 -189v-47c75 3 115 -31 115 -80c0 -62 -68 -107 -156 -107z" />
    <glyph glyph-name="uniE306" unicode="&#xf65c;" horiz-adv-x="488" 
d="M234 -240c-53 0 -105 24 -144 59l78 47c23 -19 41 -34 76 -34c29 0 55 14 55 31c0 18 -19 27 -58 27h-50v106c-84 12 -140 53 -183 104l117 92c29 -47 72 -75 119 -75c48 0 77 30 77 63c0 42 -55 54 -115 72c-79 24 -170 56 -170 173c0 104 84 180 204 180
c104 0 165 -42 210 -93l-108 -83c-23 37 -58 59 -101 59s-69 -24 -69 -55c0 -40 52 -53 113 -72c80 -24 175 -61 175 -178c0 -91 -68 -178 -185 -189v-47c75 3 115 -31 115 -80c0 -62 -68 -107 -156 -107z" />
    <glyph glyph-name="uniE309" unicode="&#xe309;" horiz-adv-x="494" 
d="M185 0v471h-152v125h432v-125h-150v-471h-130zM207 646l-119 170h102l59 -89l59 89h102l-119 -170h-84z" />
    <glyph glyph-name="uniE309" unicode="&#xf65e;" horiz-adv-x="494" 
d="M185 0v471h-152v125h432v-125h-150v-471h-130zM207 646l-119 170h102l59 -89l59 89h102l-119 -170h-84z" />
    <glyph glyph-name="uniE30A" unicode="&#xe30a;" horiz-adv-x="494" 
d="M239 -264h-83l34 204h119zM185 0v471h-152v125h432v-125h-150v-471h-130z" />
    <glyph glyph-name="uniE30A" unicode="&#xf65f;" horiz-adv-x="494" 
d="M239 -264h-83l34 204h119zM185 0v471h-152v125h432v-125h-150v-471h-130z" />
    <glyph glyph-name="uniE30D" unicode="&#xe30d;" horiz-adv-x="494" 
d="M412 212h-99v-212h-130v212h-101v125h101v134h-152v125h432v-125h-150v-134h99v-125z" />
    <glyph glyph-name="uniE30D" unicode="&#xf637;" horiz-adv-x="494" 
d="M412 212h-99v-212h-130v212h-101v125h101v134h-152v125h432v-125h-150v-134h99v-125z" />
    <glyph glyph-name="uniE30E" unicode="&#xe30e;" horiz-adv-x="519" 
d="M199 646l115 170h126l-150 -170h-91zM260 -8c-134 0 -223 80 -223 223v381h134v-385c0 -59 35 -97 88 -97s90 38 90 97v385h134v-381c0 -144 -88 -223 -223 -223z" />
    <glyph glyph-name="uniE30E" unicode="&#xf7fa;" horiz-adv-x="519" 
d="M199 646l115 170h126l-150 -170h-91zM260 -8c-134 0 -223 80 -223 223v381h134v-385c0 -59 35 -97 88 -97s90 38 90 97v385h134v-381c0 -144 -88 -223 -223 -223z" />
    <glyph glyph-name="uniE30F" unicode="&#xe30f;" horiz-adv-x="519" 
d="M260 -8c-134 0 -223 80 -223 223v381h134v-385c0 -59 35 -97 88 -97s90 38 90 97v385h134v-381c0 -144 -88 -223 -223 -223zM216 643l-150 170h127l114 -170h-91z" />
    <glyph glyph-name="uniE30F" unicode="&#xf7f9;" horiz-adv-x="519" 
d="M260 -8c-134 0 -223 80 -223 223v381h134v-385c0 -59 35 -97 88 -97s90 38 90 97v385h134v-381c0 -144 -88 -223 -223 -223zM216 643l-150 170h127l114 -170h-91z" />
    <glyph glyph-name="uniE310" unicode="&#xe310;" horiz-adv-x="850" 
d="M184 0l-165 596h136l98 -378l108 378h133l108 -379l98 379h134l-166 -596h-132l-109 383l-108 -383h-135zM261 715c0 43 28 72 72 72c45 0 72 -29 72 -72s-27 -71 -72 -71s-72 28 -72 71zM452 715c0 43 28 72 72 72s72 -29 72 -72s-28 -71 -72 -71c-47 0 -72 28 -72 71z
" />
    <glyph glyph-name="uniE310" unicode="&#xf63c;" horiz-adv-x="850" 
d="M184 0l-165 596h136l98 -378l108 378h133l108 -379l98 379h134l-166 -596h-132l-109 383l-108 -383h-135zM261 715c0 43 28 72 72 72c45 0 72 -29 72 -72s-27 -71 -72 -71s-72 28 -72 71zM452 715c0 43 28 72 72 72s72 -29 72 -72s-28 -71 -72 -71c-47 0 -72 28 -72 71z
" />
    <glyph glyph-name="uniE311" unicode="&#xe311;" horiz-adv-x="519" 
d="M94 715c0 43 28 72 72 72c45 0 72 -29 72 -72s-27 -71 -72 -71s-72 28 -72 71zM285 715c0 43 28 72 72 72s72 -29 72 -72s-28 -71 -72 -71c-47 0 -72 28 -72 71zM260 -8c-134 0 -223 80 -223 223v381h134v-385c0 -59 35 -97 88 -97s90 38 90 97v385h134v-381
c0 -144 -88 -223 -223 -223z" />
    <glyph glyph-name="uniE311" unicode="&#xf7fc;" horiz-adv-x="519" 
d="M94 715c0 43 28 72 72 72c45 0 72 -29 72 -72s-27 -71 -72 -71s-72 28 -72 71zM285 715c0 43 28 72 72 72s72 -29 72 -72s-28 -71 -72 -71c-47 0 -72 28 -72 71zM260 -8c-134 0 -223 80 -223 223v381h134v-385c0 -59 35 -97 88 -97s90 38 90 97v385h134v-381
c0 -144 -88 -223 -223 -223z" />
    <glyph glyph-name="uniE312" unicode="&#xe312;" horiz-adv-x="519" 
d="M260 -8c-134 0 -223 80 -223 223v381h134v-385c0 -59 35 -97 88 -97s90 38 90 97v385h134v-381c0 -144 -88 -223 -223 -223zM167 646h-78c0 81 39 135 104 135c33 0 56 -12 77 -24c19 -13 35 -25 52 -25c19 0 28 15 28 45h78c0 -83 -34 -135 -105 -135
c-39 0 -64 18 -87 31c-15 9 -28 17 -43 17c-17 0 -26 -15 -26 -44z" />
    <glyph glyph-name="uniE312" unicode="&#xf639;" horiz-adv-x="519" 
d="M260 -8c-134 0 -223 80 -223 223v381h134v-385c0 -59 35 -97 88 -97s90 38 90 97v385h134v-381c0 -144 -88 -223 -223 -223zM167 646h-78c0 81 39 135 104 135c33 0 56 -12 77 -24c19 -13 35 -25 52 -25c19 0 28 15 28 45h78c0 -83 -34 -135 -105 -135
c-39 0 -64 18 -87 31c-15 9 -28 17 -43 17c-17 0 -26 -15 -26 -44z" />
    <glyph glyph-name="uniE313" unicode="&#xe313;" horiz-adv-x="519" 
d="M260 -8c-134 0 -223 80 -223 223v381h134v-385c0 -59 35 -97 88 -97s90 38 90 97v385h134v-381c0 -144 -88 -223 -223 -223zM260 636c-64 0 -116 52 -116 116c0 67 52 118 116 118c65 0 117 -51 117 -118c0 -64 -52 -116 -117 -116zM260 713c23 0 41 18 41 39
c0 23 -18 41 -41 41s-40 -18 -40 -41c0 -21 17 -39 40 -39z" />
    <glyph glyph-name="uniE313" unicode="&#xf663;" horiz-adv-x="519" 
d="M260 -8c-134 0 -223 80 -223 223v381h134v-385c0 -59 35 -97 88 -97s90 38 90 97v385h134v-381c0 -144 -88 -223 -223 -223zM260 636c-64 0 -116 52 -116 116c0 67 52 118 116 118c65 0 117 -51 117 -118c0 -64 -52 -116 -117 -116zM260 713c23 0 41 18 41 39
c0 23 -18 41 -41 41s-40 -18 -40 -41c0 -21 17 -39 40 -39z" />
    <glyph glyph-name="uniE315" unicode="&#xe315;" horiz-adv-x="519" 
d="M260 -8c-134 0 -223 80 -223 223v381h134v-385c0 -59 35 -97 88 -97s90 38 90 97v385h134v-381c0 -144 -88 -223 -223 -223zM130 646v86h264v-86h-264z" />
    <glyph glyph-name="uniE315" unicode="&#xf661;" horiz-adv-x="519" 
d="M260 -8c-134 0 -223 80 -223 223v381h134v-385c0 -59 35 -97 88 -97s90 38 90 97v385h134v-381c0 -144 -88 -223 -223 -223zM130 646v86h264v-86h-264z" />
    <glyph glyph-name="uniE316" unicode="&#xe316;" horiz-adv-x="519" 
d="M260 -8c-134 0 -223 80 -223 223v381h134v-385c0 -59 35 -97 88 -97s90 38 90 97v385h134v-381c0 -144 -88 -223 -223 -223zM262 636c-110 0 -161 73 -161 170h85c0 -64 27 -93 76 -96c48 3 76 32 76 96h86c0 -97 -61 -170 -162 -170z" />
    <glyph glyph-name="uniE316" unicode="&#xf638;" horiz-adv-x="519" 
d="M260 -8c-134 0 -223 80 -223 223v381h134v-385c0 -59 35 -97 88 -97s90 38 90 97v385h134v-381c0 -144 -88 -223 -223 -223zM262 636c-110 0 -161 73 -161 170h85c0 -64 27 -93 76 -96c48 3 76 32 76 96h86c0 -97 -61 -170 -162 -170z" />
    <glyph glyph-name="uniE318" unicode="&#xe318;" horiz-adv-x="519" 
d="M260 -8c-134 0 -223 80 -223 223v381h134v-385c0 -59 35 -97 88 -97s90 38 90 97v385h134v-381c0 -144 -88 -223 -223 -223zM122 646l114 170h120l-150 -170h-84zM288 646l114 170h120l-150 -170h-84z" />
    <glyph glyph-name="uniE318" unicode="&#xf660;" horiz-adv-x="519" 
d="M260 -8c-134 0 -223 80 -223 223v381h134v-385c0 -59 35 -97 88 -97s90 38 90 97v385h134v-381c0 -144 -88 -223 -223 -223zM122 646l114 170h120l-150 -170h-84zM288 646l114 170h120l-150 -170h-84z" />
    <glyph glyph-name="uniE31B" unicode="&#xe31b;" horiz-adv-x="519" 
d="M279 -212c-87 0 -144 48 -144 109c0 35 14 68 57 103c-96 23 -155 95 -155 215v381h134v-385c0 -59 35 -97 88 -97s90 38 90 97v385h134v-381c0 -107 -47 -176 -127 -207c-99 -67 -120 -81 -120 -106c0 -23 20 -31 43 -31c27 0 41 14 60 29l79 -54
c-35 -32 -91 -58 -139 -58z" />
    <glyph glyph-name="uniE31B" unicode="&#xf662;" horiz-adv-x="519" 
d="M279 -212c-87 0 -144 48 -144 109c0 35 14 68 57 103c-96 23 -155 95 -155 215v381h134v-385c0 -59 35 -97 88 -97s90 38 90 97v385h134v-381c0 -107 -47 -176 -127 -207c-99 -67 -120 -81 -120 -106c0 -23 20 -31 43 -31c27 0 41 14 60 29l79 -54
c-35 -32 -91 -58 -139 -58z" />
    <glyph glyph-name="uniE31D" unicode="&#xe31d;" horiz-adv-x="850" 
d="M184 0l-165 596h136l98 -378l108 378h133l108 -379l98 379h134l-166 -596h-132l-109 383l-108 -383h-135zM381 646l115 170h126l-150 -170h-91z" />
    <glyph glyph-name="uniE31D" unicode="&#xf63a;" horiz-adv-x="850" 
d="M184 0l-165 596h136l98 -378l108 378h133l108 -379l98 379h134l-166 -596h-132l-109 383l-108 -383h-135zM381 646l115 170h126l-150 -170h-91z" />
    <glyph glyph-name="uniE31E" unicode="&#xe31e;" horiz-adv-x="850" 
d="M184 0l-165 596h136l98 -378l108 378h133l108 -379l98 379h134l-166 -596h-132l-109 383l-108 -383h-135zM383 646l-150 170h127l114 -170h-91z" />
    <glyph glyph-name="uniE31E" unicode="&#xf63d;" horiz-adv-x="850" 
d="M184 0l-165 596h136l98 -378l108 378h133l108 -379l98 379h134l-166 -596h-132l-109 383l-108 -383h-135zM383 646l-150 170h127l114 -170h-91z" />
    <glyph glyph-name="uniE31F" unicode="&#xe31f;" horiz-adv-x="850" 
d="M184 0l-165 596h136l98 -378l108 378h133l108 -379l98 379h134l-166 -596h-132l-109 383l-108 -383h-135zM268 642l119 170h84l119 -170h-102l-59 89l-59 -89h-102z" />
    <glyph glyph-name="uniE31F" unicode="&#xf63b;" horiz-adv-x="850" 
d="M184 0l-165 596h136l98 -378l108 378h133l108 -379l98 379h134l-166 -596h-132l-109 383l-108 -383h-135zM268 642l119 170h84l119 -170h-102l-59 89l-59 -89h-102z" />
    <glyph glyph-name="uniE321" unicode="&#xe321;" horiz-adv-x="537" 
d="M202 0v280l-186 316h145l109 -187l110 187h145l-188 -318v-278h-135zM219 638l115 170h126l-150 -170h-91z" />
    <glyph glyph-name="uniE321" unicode="&#xf7fd;" horiz-adv-x="537" 
d="M202 0v280l-186 316h145l109 -187l110 187h145l-188 -318v-278h-135zM219 638l115 170h126l-150 -170h-91z" />
    <glyph glyph-name="uniE322" unicode="&#xe322;" horiz-adv-x="538" 
d="M202 0v280l-186 316h145l109 -187l110 187h145l-188 -318v-278h-135zM223 638l-150 170h127l114 -170h-91z" />
    <glyph glyph-name="uniE322" unicode="&#xf63f;" horiz-adv-x="538" 
d="M202 0v280l-186 316h145l109 -187l110 187h145l-188 -318v-278h-135zM223 638l-150 170h127l114 -170h-91z" />
    <glyph glyph-name="uniE323" unicode="&#xe323;" horiz-adv-x="537" 
d="M202 0v280l-186 316h145l109 -187l110 187h145l-188 -318v-278h-135zM109 646l119 170h84l119 -170h-102l-59 89l-59 -89h-102z" />
    <glyph glyph-name="uniE323" unicode="&#xf63e;" horiz-adv-x="537" 
d="M202 0v280l-186 316h145l109 -187l110 187h145l-188 -318v-278h-135zM109 646l119 170h84l119 -170h-102l-59 89l-59 -89h-102z" />
    <glyph glyph-name="uniE324" unicode="&#xe324;" horiz-adv-x="537" 
d="M202 0v280l-186 316h145l109 -187l110 187h145l-188 -318v-278h-135zM102 715c0 43 28 72 72 72c45 0 72 -29 72 -72s-27 -71 -72 -71s-72 28 -72 71zM293 715c0 43 28 72 72 72s72 -29 72 -72s-28 -71 -72 -71c-47 0 -72 28 -72 71z" />
    <glyph glyph-name="uniE324" unicode="&#xf7ff;" horiz-adv-x="537" 
d="M202 0v280l-186 316h145l109 -187l110 187h145l-188 -318v-278h-135zM102 715c0 43 28 72 72 72c45 0 72 -29 72 -72s-27 -71 -72 -71s-72 28 -72 71zM293 715c0 43 28 72 72 72s72 -29 72 -72s-28 -71 -72 -71c-47 0 -72 28 -72 71z" />
    <glyph glyph-name="uniE327" unicode="&#xe327;" horiz-adv-x="452" 
d="M216 0v123h6c48 1 59 12 59 68v405h135v-401c0 -156 -50 -195 -190 -195h-10zM36 0v596h135v-596h-135z" />
    <glyph glyph-name="uniE327" unicode="&#xf631;" horiz-adv-x="452" 
d="M216 0v123h6c48 1 59 12 59 68v405h135v-401c0 -156 -50 -195 -190 -195h-10zM36 0v596h135v-596h-135z" />
    <glyph glyph-name="uniE328" unicode="&#xe328;" horiz-adv-x="456" 
d="M31 0v123l238 349h-233v124h389v-120l-241 -352h241v-124h-394zM173 646l115 170h126l-150 -170h-91z" />
    <glyph glyph-name="uniE328" unicode="&#xf664;" horiz-adv-x="456" 
d="M31 0v123l238 349h-233v124h389v-120l-241 -352h241v-124h-394zM173 646l115 170h126l-150 -170h-91z" />
    <glyph glyph-name="uniE329" unicode="&#xe329;" horiz-adv-x="456" 
d="M31 0v123l238 349h-233v124h389v-120l-241 -352h241v-124h-394zM190 646l-119 170h102l59 -89l59 89h102l-119 -170h-84z" />
    <glyph glyph-name="uniE329" unicode="&#xf6ff;" horiz-adv-x="456" 
d="M31 0v123l238 349h-233v124h389v-120l-241 -352h241v-124h-394zM190 646l-119 170h102l59 -89l59 89h102l-119 -170h-84z" />
    <glyph glyph-name="uniE32A" unicode="&#xe32a;" horiz-adv-x="456" 
d="M31 0v123l238 349h-233v124h389v-120l-241 -352h241v-124h-394zM149 715c0 47 31 79 79 79c49 0 79 -32 79 -79s-30 -78 -79 -78c-51 0 -79 31 -79 78z" />
    <glyph glyph-name="uniE32A" unicode="&#xf665;" horiz-adv-x="456" 
d="M31 0v123l238 349h-233v124h389v-120l-241 -352h241v-124h-394zM149 715c0 47 31 79 79 79c49 0 79 -32 79 -79s-30 -78 -79 -78c-51 0 -79 31 -79 78z" />
    <glyph glyph-name="uniE32B" unicode="&#xe32b;" horiz-adv-x="579" 
d="M313 -230v125c84 0 95 12 95 92v19l-238 370v-376h-133v596h145l227 -354v354h133v-610c0 -163 -52 -216 -210 -216h-19z" />
    <glyph glyph-name="uniE32B" unicode="&#xf62b;" horiz-adv-x="579" 
d="M313 -230v125c84 0 95 12 95 92v19l-238 370v-376h-133v596h145l227 -354v354h133v-610c0 -163 -52 -216 -210 -216h-19z" />
    <glyph glyph-name="uniE32C" unicode="&#xe32c;" horiz-adv-x="586" 
d="M20 243v110h51v243h176c188 0 311 -130 311 -298c0 -171 -129 -298 -308 -298h-179v243h-51zM324 243h-119v-119h37c112 0 181 76 181 174c0 99 -64 174 -184 174h-34v-119h119v-110z" />
    <glyph glyph-name="uniE32C" unicode="&#xf7f0;" horiz-adv-x="586" 
d="M20 243v110h51v243h176c188 0 311 -130 311 -298c0 -171 -129 -298 -308 -298h-179v243h-51zM324 243h-119v-119h37c112 0 181 76 181 174c0 99 -64 174 -184 174h-34v-119h119v-110z" />
    <glyph glyph-name="uniE32D" unicode="&#xe32d;" horiz-adv-x="466" 
d="M37 0v596h134v-97h68c128 0 205 -89 205 -198c0 -108 -75 -199 -206 -199h-67v-102h-134zM238 375h-67v-149h67c43 0 76 31 76 74c0 45 -33 75 -76 75z" />
    <glyph glyph-name="uniE32D" unicode="&#xf7fe;" horiz-adv-x="466" 
d="M37 0v596h134v-97h68c128 0 205 -89 205 -198c0 -108 -75 -199 -206 -199h-67v-102h-134zM238 375h-67v-149h67c43 0 76 31 76 74c0 45 -33 75 -76 75z" />
    <glyph glyph-name="uniE351" unicode="&#xe351;" horiz-adv-x="341" 
d="M14 440l100 290h113l100 -290h-99l-12 35h-91l-11 -35h-100zM190 554l-19 58l-19 -58h38z" />
    <glyph glyph-name="uniE352" unicode="&#xe352;" horiz-adv-x="339" 
d="M170 435c-83 0 -150 67 -150 150c0 85 67 151 150 151s149 -66 149 -151c0 -83 -66 -150 -149 -150zM170 528c31 0 55 26 55 57c0 32 -24 58 -55 58c-32 0 -55 -26 -55 -58c0 -31 23 -57 55 -57z" />
    <glyph glyph-name="uniE353" unicode="&#xe353;" horiz-adv-x="324" 
d="M170 435c-83 0 -150 67 -150 150c0 85 67 151 150 151c65 0 115 -38 138 -90l-86 -39c-8 23 -28 36 -51 36c-31 0 -56 -26 -56 -58c0 -31 25 -57 56 -57c24 0 43 14 51 35l87 -37c-23 -53 -72 -91 -139 -91z" />
    <glyph glyph-name="uniE38C" unicode="&#xe38c;" horiz-adv-x="561" 
d="M26 380v120h85v14c0 163 52 216 218 216h11v-125c-85 0 -95 -12 -95 -92v-13h95v-120h-95v-380h-134v380h-85zM391 0v500h134v-500h-134zM391 552v137h134v-137h-134z" />
    <glyph glyph-name="uniE38C" unicode="&#xfb01;" horiz-adv-x="561" 
d="M26 380v120h85v14c0 163 52 216 218 216h11v-125c-85 0 -95 -12 -95 -92v-13h95v-120h-95v-380h-134v380h-85zM391 0v500h134v-500h-134zM391 552v137h134v-137h-134z" />
    <glyph glyph-name="uniE38D" unicode="&#xe38d;" horiz-adv-x="561" 
d="M26 380v120h85v14c0 163 52 216 218 216h11v-125c-85 0 -95 -12 -95 -92v-13h95v-120h-95v-380h-134v380h-85zM391 0v730h134v-730h-134z" />
    <glyph glyph-name="uniE38D" unicode="&#xfb02;" horiz-adv-x="561" 
d="M26 380v120h85v14c0 163 52 216 218 216h11v-125c-85 0 -95 -12 -95 -92v-13h95v-120h-95v-380h-134v380h-85zM391 0v730h134v-730h-134z" />
    <glyph glyph-name="uniE401" unicode="&#xe401;" horiz-adv-x="639" 
d="M451 0l-37 36c-47 -28 -99 -45 -156 -45c-173 0 -236 98 -236 194c0 72 38 128 93 164c-17 29 -26 61 -26 94c0 91 70 161 178 161c100 0 155 -49 182 -108l-128 -56c-8 25 -23 45 -50 45s-46 -18 -46 -42c0 -35 21 -54 104 -139l98 -99c21 29 35 59 43 92h-94v123h227
v-59c0 -80 -34 -167 -93 -239l120 -122h-179zM258 106c24 0 47 5 69 15l-105 107l-30 29c-27 -19 -39 -39 -39 -71c0 -44 37 -80 105 -80z" />
    <glyph glyph-name="uniE401" unicode="&#xf726;" horiz-adv-x="639" 
d="M451 0l-37 36c-47 -28 -99 -45 -156 -45c-173 0 -236 98 -236 194c0 72 38 128 93 164c-17 29 -26 61 -26 94c0 91 70 161 178 161c100 0 155 -49 182 -108l-128 -56c-8 25 -23 45 -50 45s-46 -18 -46 -42c0 -35 21 -54 104 -139l98 -99c21 29 35 59 43 92h-94v123h227
v-59c0 -80 -34 -167 -93 -239l120 -122h-179zM258 106c24 0 47 5 69 15l-105 107l-30 29c-27 -19 -39 -39 -39 -71c0 -44 37 -80 105 -80z" />
    <glyph glyph-name="uniE411" unicode="&#xe411;" horiz-adv-x="472" 
d="M159 550h-85c0 97 51 170 161 170c101 0 162 -73 162 -170h-86c0 64 -28 94 -76 97c-51 -2 -76 -34 -76 -97z" />
    <glyph glyph-name="uniE412" unicode="&#xe412;" horiz-adv-x="472" 
d="M188 550l-149 170h126l114 -170h-91zM353 550l-149 170h126l114 -170h-91z" />
    <glyph glyph-name="uniE413" unicode="&#xe413;" horiz-adv-x="472" 
d="M189 549l25 171h109l-51 -171h-83z" />
    <glyph glyph-name="uniE414" unicode="&#xe414;" horiz-adv-x="473" 
d="M238 -249h-83l34 204h119z" />
    <glyph glyph-name="uniE414" unicode="&#xf6c3;" horiz-adv-x="473" 
d="M238 -249h-83l34 204h119z" />
    <glyph glyph-name="uniE415" unicode="&#xe415;" horiz-adv-x="473" 
d="M146 -119c0 47 31 79 79 79c49 0 79 -32 79 -79s-30 -78 -79 -78c-51 0 -79 31 -79 78z" />
    <glyph glyph-name="uniE416" unicode="&#xe416;" horiz-adv-x="472" 
d="M225 -240c-75 0 -119 19 -154 58l77 49c19 -23 41 -35 76 -35c29 0 54 13 54 30c0 19 -19 28 -58 28h-7v57h24c84 1 132 -35 132 -84c0 -61 -69 -103 -144 -103z" />
    <glyph glyph-name="uniE441" unicode="&#xe441;" horiz-adv-x="209" 
d="M37 0v117c0 134 12 296 31 416h73c19 -120 30 -282 30 -416v-117h-134zM22 663c0 49 31 82 82 82s81 -33 81 -82c0 -48 -31 -81 -82 -81s-81 33 -81 81z" />
    <glyph glyph-name="uniE444" unicode="&#xe444;" horiz-adv-x="517" 
d="M263 -10c-135 0 -231 84 -231 209c0 189 183 150 183 332v11h120v-11c0 -243 -165 -214 -165 -334c0 -51 36 -89 95 -89c55 0 89 38 101 86l126 -43c-25 -96 -100 -161 -229 -161zM194 662c0 49 31 82 82 82s81 -33 81 -82c0 -48 -31 -81 -82 -81s-81 33 -81 81z" />
    <glyph glyph-name="uniE451" unicode="&#xe451;" horiz-adv-x="275" 
d="M222 205l-169 119v83l169 119v-101l-89 -59l89 -60v-101z" />
    <glyph glyph-name="uniE452" unicode="&#xe452;" horiz-adv-x="275" 
d="M53 206v101l89 60l-89 59v101l169 -119v-83z" />
    <glyph glyph-name="uniE453" unicode="&#xe453;" horiz-adv-x="477" 
d="M431 215l-183 113v75l183 113v-91l-100 -59l100 -60v-91zM229 215l-183 113v75l183 113v-91l-100 -59l100 -60v-91z" />
    <glyph glyph-name="uniE454" unicode="&#xe454;" horiz-adv-x="477" 
d="M248 215v91l100 60l-100 59v91l183 -113v-75zM46 215v91l100 60l-100 59v91l183 -113v-75z" />
    <glyph glyph-name="uniE461" unicode="&#xe461;" horiz-adv-x="511" 
d="M11 0l346 730h144l-346 -730h-144z" />
    <glyph glyph-name="uniE462" unicode="&#xe462;" horiz-adv-x="511" 
d="M357 0l-346 730h144l346 -730h-144z" />
    <glyph glyph-name="uniE463" unicode="&#xe463;" horiz-adv-x="209" 
d="M36 -120v960h136v-960h-136z" />
    <glyph glyph-name="uniE464" unicode="&#xe464;" horiz-adv-x="406" 
d="M36 -120v960h136v-960h-136zM234 -120v960h136v-960h-136z" />
    <glyph glyph-name="uniE465" unicode="&#xe465;" horiz-adv-x="211" 
d="M36 420v420h136v-420h-136zM36 -120v420h136v-420h-136z" />
    <glyph glyph-name="uniE466" unicode="&#xe466;" horiz-adv-x="395" 
d="M198 254c-60 0 -111 51 -111 111s51 111 111 111s111 -51 111 -111s-51 -111 -111 -111z" />
    <glyph glyph-name="uniE467" unicode="&#xe467;" horiz-adv-x="454" 
d="M17 0l283 596h138l-283 -596h-138z" />
    <glyph glyph-name="uniE468" unicode="&#xe468;" horiz-adv-x="454" 
d="M300 0l-283 596h138l283 -596h-138z" />
    <glyph glyph-name="uniE469" unicode="&#xe469;" horiz-adv-x="204" 
d="M36 -98v784h132v-784h-132z" />
    <glyph glyph-name="uniE46A" unicode="&#xe46a;" horiz-adv-x="397" 
d="M36 -98v784h132v-784h-132zM229 -98v784h132v-784h-132z" />
    <glyph glyph-name="uniE471" unicode="&#xe471;" horiz-adv-x="392" 
d="M36 197v115h320v-115h-320z" />
    <glyph glyph-name="uniE472" unicode="&#xe472;" horiz-adv-x="573" 
d="M36 197v115h501v-115h-501z" />
    <glyph glyph-name="uniE481" unicode="&#xe481;" horiz-adv-x="207" 
d="M36 290v137h134v-137h-134z" />
    <glyph glyph-name="uniE482" unicode="&#xe482;" horiz-adv-x="442" 
d="M36 302v114h370v-114h-370z" />
    <glyph glyph-name="uniE483" unicode="&#xe483;" horiz-adv-x="392" 
d="M36 302v114h320v-114h-320z" />
    <glyph glyph-name="uniE484" unicode="&#xe484;" horiz-adv-x="473" 
d="M36 302v114h401v-114h-401z" />
    <glyph glyph-name="uniE485" unicode="&#xe485;" horiz-adv-x="573" 
d="M36 302v114h501v-114h-501z" />
    <glyph glyph-name="uniE486" unicode="&#xe486;" horiz-adv-x="673" 
d="M36 302v114h601v-114h-601z" />
    <glyph glyph-name="uniE487" unicode="&#xe487;" horiz-adv-x="623" 
d="M36 302v114h551v-114h-551z" />
    <glyph glyph-name="uniE488" unicode="&#xe488;" horiz-adv-x="973" 
d="M36 302v114h901v-114h-901z" />
    <glyph glyph-name="uniE490" unicode="&#xe490;" horiz-adv-x="343" 
d="M150 -98h-139l186 391l-187 393h139l186 -393z" />
    <glyph glyph-name="uniE491" unicode="&#xe491;" horiz-adv-x="388" 
d="M385 -37l-85 -111c-165 112 -278 274 -278 503s106 377 267 495l91 -98c-125 -83 -216 -212 -216 -396c0 -179 77 -304 221 -393z" />
    <glyph glyph-name="uniE492" unicode="&#xe492;" horiz-adv-x="388" 
d="M88 -148l-84 111c144 89 220 215 220 392c0 186 -91 314 -216 397l91 98c163 -117 268 -266 268 -495s-114 -391 -279 -503z" />
    <glyph glyph-name="uniE493" unicode="&#xe493;" horiz-adv-x="345" 
d="M36 -120v960h273v-130h-137v-700h137v-130h-273z" />
    <glyph glyph-name="uniE494" unicode="&#xe494;" horiz-adv-x="345" 
d="M36 -120v130h137v700h-137v130h273v-960h-273z" />
    <glyph glyph-name="uniE495" unicode="&#xe495;" horiz-adv-x="372" 
d="M346 -120h-11c-167 0 -220 54 -220 217v97c0 77 -10 101 -94 101v125c84 0 94 22 94 100v103c0 163 53 217 220 217h11v-125c-86 0 -97 -13 -97 -93v-103c0 -84 -20 -135 -75 -162c56 -27 75 -78 75 -162v-97c0 -80 11 -93 97 -93v-125z" />
    </font>
</defs>
</svg>
